G04 #@! TF.GenerationSoftware,KiCad,Pcbnew,(6.0.10-0)*
G04 #@! TF.CreationDate,2022-12-27T18:05:12+09:00*
G04 #@! TF.ProjectId,MEZ6809RAM,4d455a36-3830-4395-9241-4d2e6b696361,A*
G04 #@! TF.SameCoordinates,PX5f5e100PY8f0d180*
G04 #@! TF.FileFunction,Legend,Top*
G04 #@! TF.FilePolarity,Positive*
%FSLAX46Y46*%
G04 Gerber Fmt 4.6, Leading zero omitted, Abs format (unit mm)*
G04 Created by KiCad (PCBNEW (6.0.10-0)) date 2022-12-27 18:05:12*
%MOMM*%
%LPD*%
G01*
G04 APERTURE LIST*
%ADD10C,0.150000*%
%ADD11C,0.120000*%
G04 APERTURE END LIST*
D10*
X9303333Y54792620D02*
X9303333Y55792620D01*
X9636666Y55078334D01*
X9970000Y55792620D01*
X9970000Y54792620D01*
X10446190Y55316429D02*
X10779523Y55316429D01*
X10922380Y54792620D02*
X10446190Y54792620D01*
X10446190Y55792620D01*
X10922380Y55792620D01*
X11255714Y55792620D02*
X11922380Y55792620D01*
X11255714Y54792620D01*
X11922380Y54792620D01*
X12731904Y55792620D02*
X12541428Y55792620D01*
X12446190Y55745000D01*
X12398571Y55697381D01*
X12303333Y55554524D01*
X12255714Y55364048D01*
X12255714Y54983096D01*
X12303333Y54887858D01*
X12350952Y54840239D01*
X12446190Y54792620D01*
X12636666Y54792620D01*
X12731904Y54840239D01*
X12779523Y54887858D01*
X12827142Y54983096D01*
X12827142Y55221191D01*
X12779523Y55316429D01*
X12731904Y55364048D01*
X12636666Y55411667D01*
X12446190Y55411667D01*
X12350952Y55364048D01*
X12303333Y55316429D01*
X12255714Y55221191D01*
X13398571Y55364048D02*
X13303333Y55411667D01*
X13255714Y55459286D01*
X13208095Y55554524D01*
X13208095Y55602143D01*
X13255714Y55697381D01*
X13303333Y55745000D01*
X13398571Y55792620D01*
X13589047Y55792620D01*
X13684285Y55745000D01*
X13731904Y55697381D01*
X13779523Y55602143D01*
X13779523Y55554524D01*
X13731904Y55459286D01*
X13684285Y55411667D01*
X13589047Y55364048D01*
X13398571Y55364048D01*
X13303333Y55316429D01*
X13255714Y55268810D01*
X13208095Y55173572D01*
X13208095Y54983096D01*
X13255714Y54887858D01*
X13303333Y54840239D01*
X13398571Y54792620D01*
X13589047Y54792620D01*
X13684285Y54840239D01*
X13731904Y54887858D01*
X13779523Y54983096D01*
X13779523Y55173572D01*
X13731904Y55268810D01*
X13684285Y55316429D01*
X13589047Y55364048D01*
X14398571Y55792620D02*
X14493809Y55792620D01*
X14589047Y55745000D01*
X14636666Y55697381D01*
X14684285Y55602143D01*
X14731904Y55411667D01*
X14731904Y55173572D01*
X14684285Y54983096D01*
X14636666Y54887858D01*
X14589047Y54840239D01*
X14493809Y54792620D01*
X14398571Y54792620D01*
X14303333Y54840239D01*
X14255714Y54887858D01*
X14208095Y54983096D01*
X14160476Y55173572D01*
X14160476Y55411667D01*
X14208095Y55602143D01*
X14255714Y55697381D01*
X14303333Y55745000D01*
X14398571Y55792620D01*
X15208095Y54792620D02*
X15398571Y54792620D01*
X15493809Y54840239D01*
X15541428Y54887858D01*
X15636666Y55030715D01*
X15684285Y55221191D01*
X15684285Y55602143D01*
X15636666Y55697381D01*
X15589047Y55745000D01*
X15493809Y55792620D01*
X15303333Y55792620D01*
X15208095Y55745000D01*
X15160476Y55697381D01*
X15112857Y55602143D01*
X15112857Y55364048D01*
X15160476Y55268810D01*
X15208095Y55221191D01*
X15303333Y55173572D01*
X15493809Y55173572D01*
X15589047Y55221191D01*
X15636666Y55268810D01*
X15684285Y55364048D01*
X16684285Y54792620D02*
X16350952Y55268810D01*
X16112857Y54792620D02*
X16112857Y55792620D01*
X16493809Y55792620D01*
X16589047Y55745000D01*
X16636666Y55697381D01*
X16684285Y55602143D01*
X16684285Y55459286D01*
X16636666Y55364048D01*
X16589047Y55316429D01*
X16493809Y55268810D01*
X16112857Y55268810D01*
X17065238Y55078334D02*
X17541428Y55078334D01*
X16970000Y54792620D02*
X17303333Y55792620D01*
X17636666Y54792620D01*
X17970000Y54792620D02*
X17970000Y55792620D01*
X18303333Y55078334D01*
X18636666Y55792620D01*
X18636666Y54792620D01*
X31917142Y39917620D02*
X32488571Y39917620D01*
X32202857Y38917620D02*
X32202857Y39917620D01*
X33393333Y39012858D02*
X33345714Y38965239D01*
X33202857Y38917620D01*
X33107619Y38917620D01*
X32964761Y38965239D01*
X32869523Y39060477D01*
X32821904Y39155715D01*
X32774285Y39346191D01*
X32774285Y39489048D01*
X32821904Y39679524D01*
X32869523Y39774762D01*
X32964761Y39870000D01*
X33107619Y39917620D01*
X33202857Y39917620D01*
X33345714Y39870000D01*
X33393333Y39822381D01*
X34298095Y39917620D02*
X33821904Y39917620D01*
X33774285Y39441429D01*
X33821904Y39489048D01*
X33917142Y39536667D01*
X34155238Y39536667D01*
X34250476Y39489048D01*
X34298095Y39441429D01*
X34345714Y39346191D01*
X34345714Y39108096D01*
X34298095Y39012858D01*
X34250476Y38965239D01*
X34155238Y38917620D01*
X33917142Y38917620D01*
X33821904Y38965239D01*
X33774285Y39012858D01*
X35250476Y39917620D02*
X34774285Y39917620D01*
X34726666Y39441429D01*
X34774285Y39489048D01*
X34869523Y39536667D01*
X35107619Y39536667D01*
X35202857Y39489048D01*
X35250476Y39441429D01*
X35298095Y39346191D01*
X35298095Y39108096D01*
X35250476Y39012858D01*
X35202857Y38965239D01*
X35107619Y38917620D01*
X34869523Y38917620D01*
X34774285Y38965239D01*
X34726666Y39012858D01*
X36250476Y38917620D02*
X35679047Y38917620D01*
X35964761Y38917620D02*
X35964761Y39917620D01*
X35869523Y39774762D01*
X35774285Y39679524D01*
X35679047Y39631905D01*
X36869523Y39917620D02*
X36964761Y39917620D01*
X37060000Y39870000D01*
X37107619Y39822381D01*
X37155238Y39727143D01*
X37202857Y39536667D01*
X37202857Y39298572D01*
X37155238Y39108096D01*
X37107619Y39012858D01*
X37060000Y38965239D01*
X36964761Y38917620D01*
X36869523Y38917620D01*
X36774285Y38965239D01*
X36726666Y39012858D01*
X36679047Y39108096D01*
X36631428Y39298572D01*
X36631428Y39536667D01*
X36679047Y39727143D01*
X36726666Y39822381D01*
X36774285Y39870000D01*
X36869523Y39917620D01*
X37821904Y39917620D02*
X37917142Y39917620D01*
X38012380Y39870000D01*
X38060000Y39822381D01*
X38107619Y39727143D01*
X38155238Y39536667D01*
X38155238Y39298572D01*
X38107619Y39108096D01*
X38060000Y39012858D01*
X38012380Y38965239D01*
X37917142Y38917620D01*
X37821904Y38917620D01*
X37726666Y38965239D01*
X37679047Y39012858D01*
X37631428Y39108096D01*
X37583809Y39298572D01*
X37583809Y39536667D01*
X37631428Y39727143D01*
X37679047Y39822381D01*
X37726666Y39870000D01*
X37821904Y39917620D01*
X39107619Y38917620D02*
X38536190Y38917620D01*
X38821904Y38917620D02*
X38821904Y39917620D01*
X38726666Y39774762D01*
X38631428Y39679524D01*
X38536190Y39631905D01*
X11231904Y38917620D02*
X11231904Y39917620D01*
X11565238Y39203334D01*
X11898571Y39917620D01*
X11898571Y38917620D01*
X12946190Y39012858D02*
X12898571Y38965239D01*
X12755714Y38917620D01*
X12660476Y38917620D01*
X12517619Y38965239D01*
X12422380Y39060477D01*
X12374761Y39155715D01*
X12327142Y39346191D01*
X12327142Y39489048D01*
X12374761Y39679524D01*
X12422380Y39774762D01*
X12517619Y39870000D01*
X12660476Y39917620D01*
X12755714Y39917620D01*
X12898571Y39870000D01*
X12946190Y39822381D01*
X13803333Y39917620D02*
X13612857Y39917620D01*
X13517619Y39870000D01*
X13470000Y39822381D01*
X13374761Y39679524D01*
X13327142Y39489048D01*
X13327142Y39108096D01*
X13374761Y39012858D01*
X13422380Y38965239D01*
X13517619Y38917620D01*
X13708095Y38917620D01*
X13803333Y38965239D01*
X13850952Y39012858D01*
X13898571Y39108096D01*
X13898571Y39346191D01*
X13850952Y39441429D01*
X13803333Y39489048D01*
X13708095Y39536667D01*
X13517619Y39536667D01*
X13422380Y39489048D01*
X13374761Y39441429D01*
X13327142Y39346191D01*
X14470000Y39489048D02*
X14374761Y39536667D01*
X14327142Y39584286D01*
X14279523Y39679524D01*
X14279523Y39727143D01*
X14327142Y39822381D01*
X14374761Y39870000D01*
X14470000Y39917620D01*
X14660476Y39917620D01*
X14755714Y39870000D01*
X14803333Y39822381D01*
X14850952Y39727143D01*
X14850952Y39679524D01*
X14803333Y39584286D01*
X14755714Y39536667D01*
X14660476Y39489048D01*
X14470000Y39489048D01*
X14374761Y39441429D01*
X14327142Y39393810D01*
X14279523Y39298572D01*
X14279523Y39108096D01*
X14327142Y39012858D01*
X14374761Y38965239D01*
X14470000Y38917620D01*
X14660476Y38917620D01*
X14755714Y38965239D01*
X14803333Y39012858D01*
X14850952Y39108096D01*
X14850952Y39298572D01*
X14803333Y39393810D01*
X14755714Y39441429D01*
X14660476Y39489048D01*
X15470000Y39917620D02*
X15565238Y39917620D01*
X15660476Y39870000D01*
X15708095Y39822381D01*
X15755714Y39727143D01*
X15803333Y39536667D01*
X15803333Y39298572D01*
X15755714Y39108096D01*
X15708095Y39012858D01*
X15660476Y38965239D01*
X15565238Y38917620D01*
X15470000Y38917620D01*
X15374761Y38965239D01*
X15327142Y39012858D01*
X15279523Y39108096D01*
X15231904Y39298572D01*
X15231904Y39536667D01*
X15279523Y39727143D01*
X15327142Y39822381D01*
X15374761Y39870000D01*
X15470000Y39917620D01*
X16279523Y38917620D02*
X16470000Y38917620D01*
X16565238Y38965239D01*
X16612857Y39012858D01*
X16708095Y39155715D01*
X16755714Y39346191D01*
X16755714Y39727143D01*
X16708095Y39822381D01*
X16660476Y39870000D01*
X16565238Y39917620D01*
X16374761Y39917620D01*
X16279523Y39870000D01*
X16231904Y39822381D01*
X16184285Y39727143D01*
X16184285Y39489048D01*
X16231904Y39393810D01*
X16279523Y39346191D01*
X16374761Y39298572D01*
X16565238Y39298572D01*
X16660476Y39346191D01*
X16708095Y39393810D01*
X16755714Y39489048D01*
X13208095Y32932620D02*
X13208095Y32123096D01*
X13255714Y32027858D01*
X13303333Y31980239D01*
X13398571Y31932620D01*
X13589047Y31932620D01*
X13684285Y31980239D01*
X13731904Y32027858D01*
X13779523Y32123096D01*
X13779523Y32932620D01*
X14779523Y31932620D02*
X14208095Y31932620D01*
X14493809Y31932620D02*
X14493809Y32932620D01*
X14398571Y32789762D01*
X14303333Y32694524D01*
X14208095Y32646905D01*
X34798095Y32932620D02*
X34798095Y32123096D01*
X34845714Y32027858D01*
X34893333Y31980239D01*
X34988571Y31932620D01*
X35179047Y31932620D01*
X35274285Y31980239D01*
X35321904Y32027858D01*
X35369523Y32123096D01*
X35369523Y32932620D01*
X35798095Y32837381D02*
X35845714Y32885000D01*
X35940952Y32932620D01*
X36179047Y32932620D01*
X36274285Y32885000D01*
X36321904Y32837381D01*
X36369523Y32742143D01*
X36369523Y32646905D01*
X36321904Y32504048D01*
X35750476Y31932620D01*
X36369523Y31932620D01*
D11*
X7102500Y56040000D02*
X7102500Y56665000D01*
X7102500Y53825000D02*
X7102500Y54450000D01*
X7102500Y53825000D02*
X3062500Y53825000D01*
X3062500Y53825000D02*
X3062500Y54450000D01*
X3062500Y56040000D02*
X3062500Y56665000D01*
X7102500Y56665000D02*
X3062500Y56665000D01*
X12967500Y52765000D02*
X7507500Y52765000D01*
X20427500Y1845000D02*
X20427500Y52765000D01*
X20427500Y52765000D02*
X14967500Y52765000D01*
X7507500Y52765000D02*
X7507500Y1845000D01*
X7507500Y1845000D02*
X20427500Y1845000D01*
X12967500Y52765000D02*
G75*
G03*
X14967500Y52765000I1000000J0D01*
G01*
X43932500Y54450000D02*
X43932500Y53825000D01*
X39892500Y54450000D02*
X39892500Y53825000D01*
X39892500Y56665000D02*
X43932500Y56665000D01*
X43932500Y56665000D02*
X43932500Y56040000D01*
X39892500Y53825000D02*
X43932500Y53825000D01*
X39892500Y56665000D02*
X39892500Y56040000D01*
X29097500Y52770000D02*
X29097500Y12010000D01*
X42017500Y12010000D02*
X42017500Y52770000D01*
X34557500Y52770000D02*
X29097500Y52770000D01*
X42017500Y52770000D02*
X36557500Y52770000D01*
X29097500Y12010000D02*
X42017500Y12010000D01*
X34557500Y52770000D02*
G75*
G03*
X36557500Y52770000I1000000J0D01*
G01*
M02*
