G04 #@! TF.GenerationSoftware,KiCad,Pcbnew,(6.0.10-0)*
G04 #@! TF.CreationDate,2022-12-27T18:05:12+09:00*
G04 #@! TF.ProjectId,MEZ6809RAM,4d455a36-3830-4395-9241-4d2e6b696361,A*
G04 #@! TF.SameCoordinates,PX5f5e100PY8f0d180*
G04 #@! TF.FileFunction,Soldermask,Top*
G04 #@! TF.FilePolarity,Negative*
%FSLAX46Y46*%
G04 Gerber Fmt 4.6, Leading zero omitted, Abs format (unit mm)*
G04 Created by KiCad (PCBNEW (6.0.10-0)) date 2022-12-27 18:05:12*
%MOMM*%
%LPD*%
G01*
G04 APERTURE LIST*
%ADD10C,1.600000*%
%ADD11R,1.600000X1.600000*%
%ADD12O,1.600000X1.600000*%
%ADD13R,1.700000X1.700000*%
%ADD14O,1.700000X1.700000*%
%ADD15C,0.605000*%
G04 APERTURE END LIST*
D10*
X6332500Y55245000D03*
X3832500Y55245000D03*
D11*
X6347500Y51435000D03*
D12*
X6347500Y48895000D03*
X6347500Y46355000D03*
X6347500Y43815000D03*
X6347500Y41275000D03*
X6347500Y38735000D03*
X6347500Y36195000D03*
X6347500Y33655000D03*
X6347500Y31115000D03*
X6347500Y28575000D03*
X6347500Y26035000D03*
X6347500Y23495000D03*
X6347500Y20955000D03*
X6347500Y18415000D03*
X6347500Y15875000D03*
X6347500Y13335000D03*
X6347500Y10795000D03*
X6347500Y8255000D03*
X6347500Y5715000D03*
X6347500Y3175000D03*
X21587500Y3175000D03*
X21587500Y5715000D03*
X21587500Y8255000D03*
X21587500Y10795000D03*
X21587500Y13335000D03*
X21587500Y15875000D03*
X21587500Y18415000D03*
X21587500Y20955000D03*
X21587500Y23495000D03*
X21587500Y26035000D03*
X21587500Y28575000D03*
X21587500Y31115000D03*
X21587500Y33655000D03*
X21587500Y36195000D03*
X21587500Y38735000D03*
X21587500Y41275000D03*
X21587500Y43815000D03*
X21587500Y46355000D03*
X21587500Y48895000D03*
X21587500Y51435000D03*
D10*
X40662500Y55245000D03*
X43162500Y55245000D03*
D11*
X27937500Y51440000D03*
D12*
X27937500Y48900000D03*
X27937500Y46360000D03*
X27937500Y43820000D03*
X27937500Y41280000D03*
X27937500Y38740000D03*
X27937500Y36200000D03*
X27937500Y33660000D03*
X27937500Y31120000D03*
X27937500Y28580000D03*
X27937500Y26040000D03*
X27937500Y23500000D03*
X27937500Y20960000D03*
X27937500Y18420000D03*
X27937500Y15880000D03*
X27937500Y13340000D03*
X43177500Y13340000D03*
X43177500Y15880000D03*
X43177500Y18420000D03*
X43177500Y20960000D03*
X43177500Y23500000D03*
X43177500Y26040000D03*
X43177500Y28580000D03*
X43177500Y31120000D03*
X43177500Y33660000D03*
X43177500Y36200000D03*
X43177500Y38740000D03*
X43177500Y41280000D03*
X43177500Y43820000D03*
X43177500Y46360000D03*
X43177500Y48900000D03*
X43177500Y51440000D03*
D13*
X24132500Y51440000D03*
D14*
X24132500Y48900000D03*
X24132500Y46360000D03*
X24132500Y43820000D03*
X24132500Y41280000D03*
X24132500Y38740000D03*
X24132500Y36200000D03*
X24132500Y33660000D03*
X24132500Y31120000D03*
X24132500Y28580000D03*
X24132500Y26040000D03*
X24132500Y23500000D03*
X24132500Y20960000D03*
X24132500Y18420000D03*
X24132500Y15880000D03*
X24132500Y13340000D03*
X24132500Y10800000D03*
X24132500Y8260000D03*
X24132500Y5720000D03*
X24132500Y3180000D03*
D13*
X3812500Y51440000D03*
D14*
X3812500Y48900000D03*
X3812500Y46360000D03*
X3812500Y43820000D03*
X3812500Y41280000D03*
X3812500Y38740000D03*
X3812500Y36200000D03*
X3812500Y33660000D03*
X3812500Y31120000D03*
X3812500Y28580000D03*
X3812500Y26040000D03*
X3812500Y23500000D03*
X3812500Y20960000D03*
X3812500Y18420000D03*
X3812500Y15880000D03*
X3812500Y13340000D03*
X3812500Y10800000D03*
X3812500Y8260000D03*
X3812500Y5720000D03*
X3812500Y3180000D03*
D15*
X18415000Y28575000D03*
X40640000Y31115000D03*
X9525000Y18415000D03*
X17780000Y41275000D03*
X40640000Y50165000D03*
X17780000Y8255000D03*
X43180000Y10160000D03*
X18415000Y31115000D03*
X18415000Y26035000D03*
X18415000Y27305000D03*
X17780000Y38735000D03*
X17780000Y35560000D03*
X26670000Y10160000D03*
X13970000Y53340000D03*
X10160000Y40005000D03*
X40640000Y33655000D03*
X1905000Y1905000D03*
X10160000Y8255000D03*
X10160000Y38735000D03*
X45085000Y8255000D03*
X26035000Y1905000D03*
X17780000Y40005000D03*
X13970000Y35560000D03*
X39370000Y50165000D03*
X10795000Y35560000D03*
X40640000Y51435000D03*
X19685000Y31115000D03*
X26038000Y19688000D03*
X26035000Y38100000D03*
X17767500Y50152500D03*
X31115000Y33655000D03*
X33020000Y10160000D03*
X10160000Y53340000D03*
X17145000Y31115000D03*
X10160000Y41275000D03*
X31115000Y38119400D03*
X40640000Y38100000D03*
X18415000Y53340000D03*
X7813400Y29330100D03*
X19710059Y19417559D03*
X18265400Y17548600D03*
X19418700Y17018000D03*
X29718000Y35814000D03*
X35560000Y17780000D03*
X20066000Y37719000D03*
X8516300Y23495000D03*
X7383300Y26879600D03*
X18288000Y16487400D03*
X31242000Y14305300D03*
M02*
