G04 #@! TF.GenerationSoftware,KiCad,Pcbnew,(6.0.10-0)*
G04 #@! TF.CreationDate,2022-12-27T18:05:12+09:00*
G04 #@! TF.ProjectId,MEZ6809RAM,4d455a36-3830-4395-9241-4d2e6b696361,A*
G04 #@! TF.SameCoordinates,PX5f5e100PY8f0d180*
G04 #@! TF.FileFunction,Copper,L2,Bot*
G04 #@! TF.FilePolarity,Positive*
%FSLAX46Y46*%
G04 Gerber Fmt 4.6, Leading zero omitted, Abs format (unit mm)*
G04 Created by KiCad (PCBNEW (6.0.10-0)) date 2022-12-27 18:05:12*
%MOMM*%
%LPD*%
G01*
G04 APERTURE LIST*
G04 Aperture macros list*
%AMFreePoly0*
4,1,22,0.500000,-0.750000,0.000000,-0.750000,0.000000,-0.745033,-0.079941,-0.743568,-0.215256,-0.701293,-0.333266,-0.622738,-0.424486,-0.514219,-0.481581,-0.384460,-0.499164,-0.250000,-0.500000,-0.250000,-0.500000,0.250000,-0.499164,0.250000,-0.499963,0.256109,-0.478152,0.396186,-0.417904,0.524511,-0.324060,0.630769,-0.204165,0.706417,-0.067858,0.745374,0.000000,0.744959,0.000000,0.750000,
0.500000,0.750000,0.500000,-0.750000,0.500000,-0.750000,$1*%
%AMFreePoly1*
4,1,20,0.000000,0.744959,0.073905,0.744508,0.209726,0.703889,0.328688,0.626782,0.421226,0.519385,0.479903,0.390333,0.500000,0.250000,0.500000,-0.250000,0.499851,-0.262216,0.476331,-0.402017,0.414519,-0.529596,0.319384,-0.634700,0.198574,-0.708877,0.061801,-0.746166,0.000000,-0.745033,0.000000,-0.750000,-0.500000,-0.750000,-0.500000,0.750000,0.000000,0.750000,0.000000,0.744959,
0.000000,0.744959,$1*%
G04 Aperture macros list end*
G04 #@! TA.AperFunction,ComponentPad*
%ADD10C,1.600000*%
G04 #@! TD*
G04 #@! TA.AperFunction,ComponentPad*
%ADD11R,1.600000X1.600000*%
G04 #@! TD*
G04 #@! TA.AperFunction,ComponentPad*
%ADD12O,1.600000X1.600000*%
G04 #@! TD*
G04 #@! TA.AperFunction,SMDPad,CuDef*
%ADD13FreePoly0,180.000000*%
G04 #@! TD*
G04 #@! TA.AperFunction,SMDPad,CuDef*
%ADD14FreePoly1,180.000000*%
G04 #@! TD*
G04 #@! TA.AperFunction,ComponentPad*
%ADD15R,1.700000X1.700000*%
G04 #@! TD*
G04 #@! TA.AperFunction,ComponentPad*
%ADD16O,1.700000X1.700000*%
G04 #@! TD*
G04 #@! TA.AperFunction,ViaPad*
%ADD17C,0.605000*%
G04 #@! TD*
G04 #@! TA.AperFunction,Conductor*
%ADD18C,0.600000*%
G04 #@! TD*
G04 #@! TA.AperFunction,Conductor*
%ADD19C,0.400000*%
G04 #@! TD*
G04 #@! TA.AperFunction,Conductor*
%ADD20C,0.152400*%
G04 #@! TD*
G04 APERTURE END LIST*
G36*
X18665000Y48595000D02*
G01*
X18165000Y48595000D01*
X18165000Y49195000D01*
X18665000Y49195000D01*
X18665000Y48595000D01*
G37*
D10*
X6332500Y55245000D03*
X3832500Y55245000D03*
D11*
X6347500Y51435000D03*
D12*
X6347500Y48895000D03*
X6347500Y46355000D03*
X6347500Y43815000D03*
X6347500Y41275000D03*
X6347500Y38735000D03*
X6347500Y36195000D03*
X6347500Y33655000D03*
X6347500Y31115000D03*
X6347500Y28575000D03*
X6347500Y26035000D03*
X6347500Y23495000D03*
X6347500Y20955000D03*
X6347500Y18415000D03*
X6347500Y15875000D03*
X6347500Y13335000D03*
X6347500Y10795000D03*
X6347500Y8255000D03*
X6347500Y5715000D03*
X6347500Y3175000D03*
X21587500Y3175000D03*
X21587500Y5715000D03*
X21587500Y8255000D03*
X21587500Y10795000D03*
X21587500Y13335000D03*
X21587500Y15875000D03*
X21587500Y18415000D03*
X21587500Y20955000D03*
X21587500Y23495000D03*
X21587500Y26035000D03*
X21587500Y28575000D03*
X21587500Y31115000D03*
X21587500Y33655000D03*
X21587500Y36195000D03*
X21587500Y38735000D03*
X21587500Y41275000D03*
X21587500Y43815000D03*
X21587500Y46355000D03*
X21587500Y48895000D03*
X21587500Y51435000D03*
D10*
X40662500Y55245000D03*
X43162500Y55245000D03*
D11*
X27937500Y51440000D03*
D12*
X27937500Y48900000D03*
X27937500Y46360000D03*
X27937500Y43820000D03*
X27937500Y41280000D03*
X27937500Y38740000D03*
X27937500Y36200000D03*
X27937500Y33660000D03*
X27937500Y31120000D03*
X27937500Y28580000D03*
X27937500Y26040000D03*
X27937500Y23500000D03*
X27937500Y20960000D03*
X27937500Y18420000D03*
X27937500Y15880000D03*
X27937500Y13340000D03*
X43177500Y13340000D03*
X43177500Y15880000D03*
X43177500Y18420000D03*
X43177500Y20960000D03*
X43177500Y23500000D03*
X43177500Y26040000D03*
X43177500Y28580000D03*
X43177500Y31120000D03*
X43177500Y33660000D03*
X43177500Y36200000D03*
X43177500Y38740000D03*
X43177500Y41280000D03*
X43177500Y43820000D03*
X43177500Y46360000D03*
X43177500Y48900000D03*
X43177500Y51440000D03*
D13*
X19065000Y48895000D03*
D14*
X17765000Y48895000D03*
D15*
X24132500Y51440000D03*
D16*
X24132500Y48900000D03*
X24132500Y46360000D03*
X24132500Y43820000D03*
X24132500Y41280000D03*
X24132500Y38740000D03*
X24132500Y36200000D03*
X24132500Y33660000D03*
X24132500Y31120000D03*
X24132500Y28580000D03*
X24132500Y26040000D03*
X24132500Y23500000D03*
X24132500Y20960000D03*
X24132500Y18420000D03*
X24132500Y15880000D03*
X24132500Y13340000D03*
X24132500Y10800000D03*
X24132500Y8260000D03*
X24132500Y5720000D03*
X24132500Y3180000D03*
D15*
X3812500Y51440000D03*
D16*
X3812500Y48900000D03*
X3812500Y46360000D03*
X3812500Y43820000D03*
X3812500Y41280000D03*
X3812500Y38740000D03*
X3812500Y36200000D03*
X3812500Y33660000D03*
X3812500Y31120000D03*
X3812500Y28580000D03*
X3812500Y26040000D03*
X3812500Y23500000D03*
X3812500Y20960000D03*
X3812500Y18420000D03*
X3812500Y15880000D03*
X3812500Y13340000D03*
X3812500Y10800000D03*
X3812500Y8260000D03*
X3812500Y5720000D03*
X3812500Y3180000D03*
D17*
X18415000Y28575000D03*
X40640000Y31115000D03*
X9525000Y18415000D03*
X17780000Y41275000D03*
X40640000Y50165000D03*
X17780000Y8255000D03*
X43180000Y10160000D03*
X18415000Y31115000D03*
X18415000Y26035000D03*
X18415000Y27305000D03*
X17780000Y38735000D03*
X17780000Y35560000D03*
X26670000Y10160000D03*
X13970000Y53340000D03*
X10160000Y40005000D03*
X40640000Y33655000D03*
X1905000Y1905000D03*
X10160000Y8255000D03*
X10160000Y38735000D03*
X45085000Y8255000D03*
X26035000Y1905000D03*
X17780000Y40005000D03*
X13970000Y35560000D03*
X39370000Y50165000D03*
X10795000Y35560000D03*
X40640000Y51435000D03*
X19685000Y31115000D03*
X26038000Y19688000D03*
X26035000Y38100000D03*
X17767500Y50152500D03*
X31115000Y33655000D03*
X33020000Y10160000D03*
X10160000Y53340000D03*
X17145000Y31115000D03*
X10160000Y41275000D03*
X31115000Y38119400D03*
X40640000Y38100000D03*
X18415000Y53340000D03*
X7813400Y29330100D03*
X19710059Y19417559D03*
X18265400Y17548600D03*
X19418700Y17018000D03*
X29718000Y35814000D03*
X35560000Y17780000D03*
X20066000Y37719000D03*
X8516300Y23495000D03*
X7383300Y26879600D03*
X18288000Y16487400D03*
X31242000Y14305300D03*
D18*
X26672000Y13335000D02*
X26038000Y13970000D01*
D19*
X30460600Y37465000D02*
X31115000Y38119400D01*
D18*
X25398000Y23500000D02*
X24132500Y23500000D01*
X24132000Y23500000D02*
X22868000Y24765000D01*
X19685000Y24765000D02*
X18415000Y26035000D01*
X27937500Y13340000D02*
X26678000Y13340000D01*
X26038000Y19688000D02*
X26038000Y22860000D01*
X26038000Y22860000D02*
X25398000Y23500000D01*
D19*
X26035000Y38100000D02*
X26670000Y37465000D01*
D18*
X26678000Y13340000D02*
X26672000Y13335000D01*
D19*
X26670000Y37465000D02*
X30460600Y37465000D01*
D18*
X22868000Y24765000D02*
X19685000Y24765000D01*
X26038000Y13970000D02*
X26038000Y19688000D01*
D20*
X3398400Y4608100D02*
X4318300Y4608100D01*
X27922100Y34688900D02*
X27559000Y35052000D01*
X23751229Y35055900D02*
X22733000Y36074129D01*
X21125739Y37187900D02*
X8191152Y37187900D01*
X3812500Y51440000D02*
X2108700Y49736200D01*
X27559000Y35052000D02*
X25196052Y35052000D01*
X1796700Y39392800D02*
X1796700Y6209800D01*
X42148600Y33660000D02*
X41119700Y34688900D01*
X4318300Y4608100D02*
X5425200Y5715000D01*
X2108700Y49736200D02*
X2108700Y40315200D01*
X2108700Y40315200D02*
X2413900Y40010000D01*
X1796700Y6209800D02*
X3398400Y4608100D01*
X25196052Y35052000D02*
X25192152Y35055900D01*
X6532161Y40005000D02*
X2418900Y40005000D01*
X22157400Y37278600D02*
X21216439Y37278600D01*
X25192152Y35055900D02*
X23751229Y35055900D01*
X22733000Y36703000D02*
X22157400Y37278600D01*
X41119700Y34688900D02*
X27922100Y34688900D01*
X2413900Y40010000D02*
X1796700Y39392800D01*
X8191152Y37187900D02*
X7376100Y38002952D01*
X21216439Y37278600D02*
X21125739Y37187900D01*
X2418900Y40005000D02*
X2413900Y40010000D01*
X43177500Y33660000D02*
X42148600Y33660000D01*
X5425200Y5715000D02*
X6347500Y5715000D01*
X7376100Y38002952D02*
X7376100Y39161061D01*
X22733000Y36074129D02*
X22733000Y36703000D01*
X7376100Y39161061D02*
X6532161Y40005000D01*
X2719000Y43340700D02*
X2719000Y46839400D01*
X2719000Y46839400D02*
X3812500Y47932900D01*
X3329000Y42730700D02*
X2719000Y43340700D01*
X27937500Y43820000D02*
X26908600Y43820000D01*
X25819300Y42730700D02*
X3329000Y42730700D01*
X3812500Y47932900D02*
X3812500Y48900000D01*
X26908600Y43820000D02*
X25819300Y42730700D01*
X9829800Y51104800D02*
X19371587Y51104800D01*
X4891400Y46360000D02*
X6047300Y47515900D01*
X7376100Y48143100D02*
X7376100Y48651100D01*
X24387871Y4450000D02*
X25211100Y5273229D01*
X23784800Y4450000D02*
X24387871Y4450000D01*
X25400000Y47979104D02*
X25622804Y47756300D01*
X28426913Y47756300D02*
X29575700Y46607513D01*
X25211100Y5425996D02*
X27786104Y8001000D01*
X6047300Y47515900D02*
X6748900Y47515900D01*
X29967000Y41280000D02*
X43177500Y41280000D01*
X45144900Y9838900D02*
X45144900Y27043652D01*
X19371587Y51104800D02*
X21035187Y52768400D01*
X6748900Y47515900D02*
X7376100Y48143100D01*
X29575700Y41671300D02*
X29967000Y41280000D01*
X25622804Y47756300D02*
X28426913Y47756300D01*
X44577000Y39880500D02*
X43177500Y41280000D01*
X43307000Y8001000D02*
X45144900Y9838900D01*
X21587500Y3175000D02*
X22509800Y3175000D01*
X25211100Y5273229D02*
X25211100Y5425996D01*
X22509800Y3175000D02*
X23784800Y4450000D01*
X44577000Y27611552D02*
X44577000Y39880500D01*
X24961300Y52768400D02*
X25400000Y52329700D01*
X29575700Y46607513D02*
X29575700Y41671300D01*
X27786104Y8001000D02*
X43307000Y8001000D01*
X45144900Y27043652D02*
X44577000Y27611552D01*
X3812500Y46360000D02*
X4891400Y46360000D01*
X25400000Y52329700D02*
X25400000Y47979104D01*
X7376100Y48651100D02*
X9829800Y51104800D01*
X21035187Y52768400D02*
X24961300Y52768400D01*
X7680900Y48524848D02*
X7680900Y46233739D01*
X9956052Y50800000D02*
X7680900Y48524848D01*
X22212400Y52463600D02*
X21161439Y52463600D01*
X24892000Y47625000D02*
X23749000Y47625000D01*
X22733000Y51943000D02*
X22212400Y52463600D01*
X19497839Y50800000D02*
X9956052Y50800000D01*
X6316361Y44869200D02*
X4861700Y44869200D01*
X26157000Y46360000D02*
X24892000Y47625000D01*
X22733000Y48641000D02*
X22733000Y51943000D01*
X4861700Y44869200D02*
X3812500Y43820000D01*
X23749000Y47625000D02*
X22733000Y48641000D01*
X27937500Y46360000D02*
X26157000Y46360000D01*
X21161439Y52463600D02*
X19497839Y50800000D01*
X7680900Y46233739D02*
X6316361Y44869200D01*
X20921735Y53086000D02*
X19270735Y51435000D01*
X3349100Y50038000D02*
X2413800Y49102700D01*
X9728948Y51435000D02*
X8331948Y50038000D01*
X2413800Y43214200D02*
X3812500Y41815500D01*
X33274000Y53086000D02*
X20921735Y53086000D01*
X3812500Y41815500D02*
X3812500Y41280000D01*
X43177500Y48900000D02*
X37460000Y48900000D01*
X8331948Y50038000D02*
X3349100Y50038000D01*
X2413800Y49102700D02*
X2413800Y43214200D01*
X19270735Y51435000D02*
X9728948Y51435000D01*
X37460000Y48900000D02*
X33274000Y53086000D01*
X9657000Y21153948D02*
X9657000Y24201948D01*
X21587500Y19306500D02*
X20243800Y20650200D01*
X8712200Y28431300D02*
X7813400Y29330100D01*
X9657000Y24201948D02*
X8712200Y25146748D01*
X10160748Y20650200D02*
X9657000Y21153948D01*
X21587500Y18415000D02*
X21587500Y19306500D01*
X20243800Y20650200D02*
X10160748Y20650200D01*
X8712200Y25146748D02*
X8712200Y28431300D01*
X9017000Y25273000D02*
X9017000Y28877589D01*
X9017000Y28877589D02*
X7848989Y30045600D01*
X7848989Y30045600D02*
X5927200Y30045600D01*
X10287000Y20955000D02*
X9961800Y21280200D01*
X21587500Y20955000D02*
X10287000Y20955000D01*
X9961800Y21280200D02*
X9961800Y24328200D01*
X4970700Y31002100D02*
X4970700Y32501800D01*
X5927200Y30045600D02*
X4970700Y31002100D01*
X9961800Y24328200D02*
X9017000Y25273000D01*
X4970700Y32501800D02*
X3812500Y33660000D01*
X20558900Y19904048D02*
X20117548Y20345400D01*
X43598900Y24537000D02*
X42759839Y24537000D01*
X33299400Y12852400D02*
X32512000Y12065000D01*
X34931396Y20299500D02*
X33299400Y18667504D01*
X9352200Y24075696D02*
X8407400Y25020496D01*
X25781000Y12065000D02*
X25211100Y12634900D01*
X8407400Y25020496D02*
X8407400Y27970400D01*
X6718800Y29659000D02*
X5273500Y29659000D01*
X9352200Y21027696D02*
X9352200Y24075696D01*
X20117548Y20345400D02*
X10034496Y20345400D01*
X20558900Y17988939D02*
X20558900Y19904048D01*
X5273500Y29659000D02*
X3812500Y31120000D01*
X44535000Y23600900D02*
X43598900Y24537000D01*
X21587500Y16960339D02*
X20558900Y17988939D01*
X43177500Y18420000D02*
X44535000Y19777500D01*
X41508500Y20299500D02*
X34931396Y20299500D01*
X24387871Y14610000D02*
X22852500Y14610000D01*
X22852500Y14610000D02*
X21587500Y15875000D01*
X33299400Y18667504D02*
X33299400Y12852400D01*
X10034496Y20345400D02*
X9352200Y21027696D01*
X42759839Y24537000D02*
X42148900Y23926061D01*
X42148900Y23926061D02*
X42148900Y20939900D01*
X32512000Y12065000D02*
X25781000Y12065000D01*
X25211100Y12634900D02*
X25211100Y13786771D01*
X21587500Y15875000D02*
X21587500Y16960339D01*
X25211100Y13786771D02*
X24387871Y14610000D01*
X8407400Y27970400D02*
X6718800Y29659000D01*
X44535000Y19777500D02*
X44535000Y23600900D01*
X42148900Y20939900D02*
X41508500Y20299500D01*
X8102600Y26911900D02*
X7603500Y27411000D01*
X9047400Y23949444D02*
X8102600Y24894244D01*
X23661400Y12183400D02*
X25231548Y12183400D01*
X21587500Y14420339D02*
X20254100Y15753739D01*
X4981500Y27411000D02*
X3812500Y28580000D01*
X25231548Y12183400D02*
X25654748Y11760200D01*
X25654748Y11760200D02*
X32638252Y11760200D01*
X9908244Y20040600D02*
X9047400Y20901444D01*
X21587500Y13335000D02*
X22509800Y13335000D01*
X33604200Y12726148D02*
X33604200Y18541252D01*
X7603500Y27411000D02*
X4981500Y27411000D01*
X32638252Y11760200D02*
X33604200Y12726148D01*
X22509800Y13335000D02*
X23661400Y12183400D01*
X33604200Y18541252D02*
X35057648Y19994700D01*
X35057648Y19994700D02*
X42212200Y19994700D01*
X20254100Y19623900D02*
X19837400Y20040600D01*
X9047400Y20901444D02*
X9047400Y23949444D01*
X42212200Y19994700D02*
X43177500Y20960000D01*
X20254100Y15753739D02*
X20254100Y19623900D01*
X8102600Y24894244D02*
X8102600Y26911900D01*
X21587500Y13335000D02*
X21587500Y14420339D01*
X19837400Y20040600D02*
X9908244Y20040600D01*
X19710059Y19417559D02*
X19391818Y19735800D01*
X7281013Y19748400D02*
X6099439Y19748400D01*
X7293613Y19735800D02*
X7281013Y19748400D01*
X19391818Y19735800D02*
X7293613Y19735800D01*
X5318900Y20528939D02*
X5318900Y21993600D01*
X6099439Y19748400D02*
X5318900Y20528939D01*
X5318900Y21993600D02*
X3812500Y23500000D01*
X22671100Y11878600D02*
X25105296Y11878600D01*
X44217100Y20527100D02*
X44217100Y21431500D01*
X19949300Y15627487D02*
X20558900Y15017887D01*
X5448400Y19443600D02*
X7154761Y19443600D01*
X21587500Y10795000D02*
X22671100Y11878600D01*
X3812500Y20952500D02*
X4953000Y19812000D01*
X7154761Y19443600D02*
X7167361Y19431000D01*
X44217100Y21431500D02*
X43177500Y22471100D01*
X43379900Y19689900D02*
X44217100Y20527100D01*
X35183900Y19689900D02*
X43379900Y19689900D01*
X25105296Y11878600D02*
X25528496Y11455400D01*
X19949300Y18214200D02*
X19949300Y15627487D01*
X33909000Y18415000D02*
X35183900Y19689900D01*
X18732500Y19431000D02*
X19949300Y18214200D01*
X25528496Y11455400D02*
X32764504Y11455400D01*
X33909000Y12599896D02*
X33909000Y18415000D01*
X43177500Y22471100D02*
X43177500Y23500000D01*
X20558900Y11823600D02*
X21587500Y10795000D01*
X4953000Y19812000D02*
X5080000Y19812000D01*
X5080000Y19812000D02*
X5448400Y19443600D01*
X7167361Y19431000D02*
X18732500Y19431000D01*
X20558900Y15017887D02*
X20558900Y11823600D01*
X32764504Y11455400D02*
X33909000Y12599896D01*
X3812500Y20960000D02*
X3812500Y20952500D01*
X27937500Y20960000D02*
X27937500Y21988900D01*
X27937500Y21988900D02*
X28982200Y23033600D01*
X4909700Y17322800D02*
X3812500Y18420000D01*
X22538000Y28575000D02*
X21587500Y28575000D01*
X18039600Y17322800D02*
X4909700Y17322800D01*
X27175700Y24767300D02*
X24573900Y27369100D01*
X18265400Y17548600D02*
X18039600Y17322800D01*
X24573900Y27369100D02*
X23743900Y27369100D01*
X28982200Y23033600D02*
X28982200Y23910400D01*
X28125300Y24767300D02*
X27175700Y24767300D01*
X28982200Y23910400D02*
X28125300Y24767300D01*
X23743900Y27369100D02*
X22538000Y28575000D01*
X22505400Y26035000D02*
X21587500Y26035000D01*
X24992400Y24662000D02*
X23878400Y24662000D01*
X27937500Y18420000D02*
X27937500Y19448900D01*
X23878400Y24662000D02*
X22505400Y26035000D01*
X19418700Y17018000D02*
X4953000Y17018000D01*
X26908600Y20477800D02*
X26908600Y22745800D01*
X27937500Y19448900D02*
X26908600Y20477800D01*
X4953000Y17018000D02*
X3815000Y15880000D01*
X26908600Y22745800D02*
X24992400Y24662000D01*
X3815000Y15880000D02*
X3812500Y15880000D01*
X43180748Y8305800D02*
X44840100Y9965152D01*
X7696948Y6858000D02*
X26212052Y6858000D01*
X44840100Y26917400D02*
X43177500Y28580000D01*
X30538300Y34993700D02*
X41345500Y34993700D01*
X29718000Y35814000D02*
X30538300Y34993700D01*
X44214800Y30646200D02*
X43177500Y29608900D01*
X44214800Y34084400D02*
X44214800Y30646200D01*
X6347500Y8207448D02*
X7696948Y6858000D01*
X6347500Y8255000D02*
X6347500Y8207448D01*
X41345500Y34993700D02*
X41345900Y34994100D01*
X43305100Y34994100D02*
X44214800Y34084400D01*
X27659852Y8305800D02*
X43180748Y8305800D01*
X44840100Y9965152D02*
X44840100Y26917400D01*
X43177500Y29608900D02*
X43177500Y28580000D01*
X26212052Y6858000D02*
X27659852Y8305800D01*
X41345900Y34994100D02*
X43305100Y34994100D01*
X29840748Y40975200D02*
X42022348Y40975200D01*
X44207900Y37230400D02*
X43177500Y36200000D01*
X27533600Y8610600D02*
X26085800Y7162800D01*
X26085800Y7162800D02*
X7950200Y7162800D01*
X43051248Y39946300D02*
X43426300Y39946300D01*
X34645600Y8610600D02*
X27533600Y8610600D01*
X25496552Y47451500D02*
X28300661Y47451500D01*
X29270900Y41545048D02*
X29840748Y40975200D01*
X44207900Y39164700D02*
X44207900Y37230400D01*
X7376100Y7736900D02*
X7376100Y9766400D01*
X35560000Y17780000D02*
X35560000Y9525000D01*
X7376100Y9766400D02*
X6347500Y10795000D01*
X35560000Y9525000D02*
X34645600Y8610600D01*
X42022348Y40975200D02*
X43051248Y39946300D01*
X29270900Y46481261D02*
X29270900Y41545048D01*
X24132500Y48900000D02*
X24132500Y48815552D01*
X24132500Y48815552D02*
X25496552Y47451500D01*
X7950200Y7162800D02*
X7376100Y7736900D01*
X43426300Y39946300D02*
X44207900Y39164700D01*
X28300661Y47451500D02*
X29270900Y46481261D01*
X43177500Y39388996D02*
X43177500Y38740000D01*
X28966100Y44246061D02*
X28966100Y41418796D01*
X24132500Y46360000D02*
X25211400Y46360000D01*
X41896096Y40670400D02*
X43177500Y39388996D01*
X29714496Y40670400D02*
X41896096Y40670400D01*
X28966100Y41418796D02*
X29714496Y40670400D01*
X28279761Y44932400D02*
X28966100Y44246061D01*
X25211400Y46360000D02*
X26639000Y44932400D01*
X26639000Y44932400D02*
X28279761Y44932400D01*
X27937500Y38740000D02*
X27937500Y39372500D01*
X26030000Y41280000D02*
X24132500Y41280000D01*
X27937500Y39372500D02*
X26030000Y41280000D01*
X20066000Y37719000D02*
X20078600Y37706400D01*
X20078600Y37706400D02*
X23098900Y37706400D01*
X23098900Y37706400D02*
X24132500Y38740000D01*
X25776000Y36200000D02*
X24132500Y37843500D01*
X27937500Y36200000D02*
X25776000Y36200000D01*
X24132500Y37843500D02*
X24132500Y38740000D01*
X8516300Y23495000D02*
X6347500Y23495000D01*
X19759648Y36578300D02*
X20558900Y35779048D01*
X4150200Y27310000D02*
X3506700Y27310000D01*
X3506700Y27310000D02*
X2406900Y28409800D01*
X25014000Y33660000D02*
X24132500Y33660000D01*
X20558900Y33228939D02*
X21161439Y32626400D01*
X21161439Y32626400D02*
X23098900Y32626400D01*
X25402500Y33655000D02*
X25019000Y33655000D01*
X27937500Y31120000D02*
X25402500Y33655000D01*
X7169300Y37321100D02*
X7912100Y36578300D01*
X20558900Y35779048D02*
X20558900Y33228939D01*
X6347500Y26035000D02*
X5318600Y26035000D01*
X5318600Y26035000D02*
X5318600Y26141600D01*
X2406900Y36348200D02*
X3379800Y37321100D01*
X23098900Y32626400D02*
X24132500Y33660000D01*
X25019000Y33655000D02*
X25014000Y33660000D01*
X7912100Y36578300D02*
X19759648Y36578300D01*
X2406900Y28409800D02*
X2406900Y36348200D01*
X3379800Y37321100D02*
X7169300Y37321100D01*
X5318600Y26141600D02*
X4150200Y27310000D01*
X7985700Y33902513D02*
X6870013Y35018200D01*
X4143300Y29850000D02*
X5418300Y28575000D01*
X24132500Y31120000D02*
X23053600Y31120000D01*
X3611100Y35018200D02*
X2712100Y34119200D01*
X25395000Y31120000D02*
X27935000Y28580000D01*
X9129704Y30086400D02*
X7985700Y31230404D01*
X2712100Y30684400D02*
X3546500Y29850000D01*
X27935000Y28580000D02*
X27937500Y28580000D01*
X23053600Y31120000D02*
X22020000Y30086400D01*
X3546500Y29850000D02*
X4143300Y29850000D01*
X7985700Y31230404D02*
X7985700Y33902513D01*
X24132500Y31120000D02*
X25395000Y31120000D01*
X22020000Y30086400D02*
X9129704Y30086400D01*
X6870013Y35018200D02*
X3611100Y35018200D01*
X5418300Y28575000D02*
X6347500Y28575000D01*
X2712100Y34119200D02*
X2712100Y30684400D01*
X24132500Y28580000D02*
X24402300Y28580000D01*
X24402300Y28580000D02*
X23200700Y29781600D01*
X7680900Y31104152D02*
X7680900Y33776261D01*
X23200700Y29781600D02*
X9003452Y29781600D01*
X5909600Y34688100D02*
X5275900Y34054400D01*
X7680900Y33776261D02*
X6769061Y34688100D01*
X6769061Y34688100D02*
X5909600Y34688100D01*
X9003452Y29781600D02*
X7680900Y31104152D01*
X5275900Y32186600D02*
X6347500Y31115000D01*
X5275900Y34054400D02*
X5275900Y32186600D01*
X26942300Y26040000D02*
X24402300Y28580000D01*
X27937500Y26040000D02*
X26942300Y26040000D01*
X7376100Y32626400D02*
X6347500Y33655000D01*
X22110600Y27546400D02*
X21161439Y27546400D01*
X8877200Y29476800D02*
X7376100Y30977900D01*
X24388500Y26040000D02*
X24260500Y26040000D01*
X23617000Y26040000D02*
X22110600Y27546400D01*
X27937500Y23500000D02*
X26928500Y23500000D01*
X26928500Y23500000D02*
X24388500Y26040000D01*
X20053200Y29476800D02*
X8877200Y29476800D01*
X24132500Y26040000D02*
X24260500Y26040000D01*
X21161439Y27546400D02*
X20558900Y28148939D01*
X7376100Y30977900D02*
X7376100Y32626400D01*
X20558900Y28971100D02*
X20053200Y29476800D01*
X20558900Y28148939D02*
X20558900Y28971100D01*
X24260500Y26040000D02*
X23617000Y26040000D01*
X7383300Y25562200D02*
X7383300Y26879600D01*
X6592900Y24771800D02*
X7383300Y25562200D01*
X3508500Y24771800D02*
X6592900Y24771800D01*
X3812500Y14284000D02*
X2712100Y15384400D01*
X3812500Y13340000D02*
X3812500Y14284000D01*
X2712100Y23975400D02*
X3508500Y24771800D01*
X2712100Y15384400D02*
X2712100Y23975400D01*
X18288000Y16487400D02*
X20254100Y14521300D01*
X20254100Y14521300D02*
X20254100Y10669800D01*
X23091300Y9758800D02*
X24132500Y10800000D01*
X20254100Y10669800D02*
X21165100Y9758800D01*
X21165100Y9758800D02*
X23091300Y9758800D01*
X21587500Y36195000D02*
X20574000Y36195000D01*
X3812500Y6664000D02*
X3812500Y5720000D01*
X3253300Y37626200D02*
X2101800Y36474700D01*
X7321800Y37626200D02*
X3253300Y37626200D01*
X19885900Y36883100D02*
X8064900Y36883100D01*
X2101800Y36474700D02*
X2101800Y8374700D01*
X2101800Y8374700D02*
X3812500Y6664000D01*
X20574000Y36195000D02*
X19885900Y36883100D01*
X8064900Y36883100D02*
X7321800Y37626200D01*
X22616400Y33669900D02*
X22616400Y33655000D01*
X30226000Y30286600D02*
X28125300Y32387300D01*
X28125300Y32387300D02*
X27429700Y32387300D01*
X25065900Y34751100D02*
X23697600Y34751100D01*
X23697600Y34751100D02*
X22616400Y33669900D01*
X31242000Y22910052D02*
X30226000Y23926052D01*
X27429700Y32387300D02*
X25065900Y34751100D01*
X30226000Y23926052D02*
X30226000Y30286600D01*
X22616400Y33655000D02*
X21587500Y33655000D01*
X31242000Y14305300D02*
X31242000Y22910052D01*
X19065000Y48895000D02*
X21587500Y48895000D01*
G04 #@! TA.AperFunction,Conductor*
G36*
X45018198Y56979998D02*
G01*
X45036373Y56965809D01*
X45869451Y56182716D01*
X45960299Y56097319D01*
X45996234Y56036088D01*
X46000000Y56005512D01*
X46000000Y8052190D01*
X45979998Y7984069D01*
X45963095Y7963095D01*
X45037089Y7037089D01*
X44974777Y7003063D01*
X44947550Y7000185D01*
X28000000Y7060000D01*
X27993100Y7052686D01*
X27016292Y6017269D01*
X27000000Y6000000D01*
X27000000Y1612191D01*
X26979998Y1544070D01*
X26963096Y1523096D01*
X26036778Y596776D01*
X25974465Y562751D01*
X25947991Y559871D01*
X1554537Y500134D01*
X1486367Y519970D01*
X1462576Y539670D01*
X534348Y1523591D01*
X502152Y1586868D01*
X500000Y1610055D01*
X500000Y6196245D01*
X1365392Y6196245D01*
X1367084Y6186983D01*
X1367084Y6186974D01*
X1375363Y6141648D01*
X1376014Y6137740D01*
X1384256Y6082916D01*
X1387216Y6076752D01*
X1388445Y6070023D01*
X1414022Y6020785D01*
X1415779Y6017269D01*
X1435720Y5975741D01*
X1435722Y5975737D01*
X1439798Y5967250D01*
X1444441Y5962228D01*
X1447593Y5956159D01*
X1451674Y5951381D01*
X1486849Y5916206D01*
X1490278Y5912641D01*
X1526895Y5873029D01*
X1532987Y5869490D01*
X1538524Y5864531D01*
X3073477Y4329578D01*
X3083335Y4318485D01*
X3093715Y4305317D01*
X3120178Y4239437D01*
X3106822Y4169707D01*
X3077839Y4132583D01*
X2937957Y4009910D01*
X2801363Y3836640D01*
X2698631Y3641380D01*
X2633203Y3430667D01*
X2607270Y3211560D01*
X2621700Y2991396D01*
X2623121Y2985800D01*
X2623122Y2985795D01*
X2674590Y2783143D01*
X2676011Y2777548D01*
X2678428Y2772306D01*
X2678428Y2772305D01*
X2716546Y2689621D01*
X2768383Y2577179D01*
X2895722Y2396998D01*
X3053764Y2243039D01*
X3058560Y2239834D01*
X3058563Y2239832D01*
X3142761Y2183573D01*
X3237217Y2120460D01*
X3242520Y2118182D01*
X3242523Y2118180D01*
X3434629Y2035645D01*
X3439936Y2033365D01*
X3490242Y2021982D01*
X3649495Y1985946D01*
X3649501Y1985945D01*
X3655132Y1984671D01*
X3660903Y1984444D01*
X3660905Y1984444D01*
X3728711Y1981780D01*
X3875598Y1976009D01*
X3984775Y1991839D01*
X4088238Y2006840D01*
X4088243Y2006841D01*
X4093952Y2007669D01*
X4099416Y2009524D01*
X4099421Y2009525D01*
X4297407Y2076732D01*
X4297412Y2076734D01*
X4302879Y2078590D01*
X4495384Y2186398D01*
X4535731Y2219954D01*
X4660586Y2323796D01*
X4665018Y2327482D01*
X4806102Y2497116D01*
X4913910Y2689621D01*
X4915766Y2695088D01*
X4915768Y2695093D01*
X4982973Y2893073D01*
X4982974Y2893078D01*
X4984831Y2898548D01*
X4985304Y2901810D01*
X5020254Y2962680D01*
X5083280Y2995363D01*
X5153971Y2988783D01*
X5209883Y2945029D01*
X5229544Y2902713D01*
X5249855Y2822741D01*
X5258345Y2789310D01*
X5346869Y2597286D01*
X5468905Y2424609D01*
X5501382Y2392971D01*
X5568609Y2327482D01*
X5620365Y2277063D01*
X5625161Y2273858D01*
X5625164Y2273856D01*
X5750526Y2190092D01*
X5796177Y2159589D01*
X5801485Y2157308D01*
X5801486Y2157308D01*
X5985150Y2078400D01*
X5985153Y2078399D01*
X5990453Y2076122D01*
X5996082Y2074848D01*
X5996083Y2074848D01*
X6191050Y2030731D01*
X6191053Y2030731D01*
X6196686Y2029456D01*
X6202457Y2029229D01*
X6202459Y2029229D01*
X6264489Y2026792D01*
X6407970Y2021154D01*
X6413679Y2021982D01*
X6413683Y2021982D01*
X6611515Y2050667D01*
X6611519Y2050668D01*
X6617230Y2051496D01*
X6705366Y2081414D01*
X6811983Y2117605D01*
X6811988Y2117607D01*
X6817455Y2119463D01*
X6822498Y2122287D01*
X6996895Y2219954D01*
X6996899Y2219957D01*
X7001942Y2222781D01*
X7164512Y2357988D01*
X7299719Y2520558D01*
X7302543Y2525601D01*
X7302546Y2525605D01*
X7400213Y2700002D01*
X7400214Y2700004D01*
X7403037Y2705045D01*
X7404893Y2710512D01*
X7404895Y2710517D01*
X7469147Y2899800D01*
X7471004Y2905270D01*
X7472077Y2912665D01*
X7500814Y3110860D01*
X7500814Y3110862D01*
X7501346Y3114530D01*
X7502929Y3175000D01*
X7483581Y3385560D01*
X7426186Y3589069D01*
X7415053Y3611646D01*
X7335219Y3773531D01*
X7332665Y3778710D01*
X7206151Y3948133D01*
X7050881Y4091663D01*
X6986027Y4132583D01*
X6876934Y4201416D01*
X6876933Y4201416D01*
X6872054Y4204495D01*
X6675660Y4282848D01*
X6670003Y4283973D01*
X6669997Y4283975D01*
X6472734Y4323212D01*
X6409824Y4356119D01*
X6374692Y4417814D01*
X6378492Y4488709D01*
X6420017Y4546295D01*
X6479234Y4571487D01*
X6611515Y4590667D01*
X6611519Y4590668D01*
X6617230Y4591496D01*
X6711143Y4623375D01*
X6811983Y4657605D01*
X6811988Y4657607D01*
X6817455Y4659463D01*
X6822498Y4662287D01*
X6996895Y4759954D01*
X6996899Y4759957D01*
X7001942Y4762781D01*
X7164512Y4897988D01*
X7299719Y5060558D01*
X7302543Y5065601D01*
X7302546Y5065605D01*
X7400213Y5240002D01*
X7400214Y5240004D01*
X7403037Y5245045D01*
X7404893Y5250512D01*
X7404895Y5250517D01*
X7469147Y5439800D01*
X7471004Y5445270D01*
X7473776Y5464384D01*
X7500814Y5650860D01*
X7500814Y5650862D01*
X7501346Y5654530D01*
X7502929Y5715000D01*
X7483581Y5925560D01*
X7426186Y6129069D01*
X7423632Y6134247D01*
X7423629Y6134256D01*
X7341023Y6301763D01*
X7328833Y6371705D01*
X7356392Y6437134D01*
X7414950Y6477278D01*
X7485915Y6479390D01*
X7495749Y6476383D01*
X7497513Y6475764D01*
X7502460Y6473693D01*
X7507105Y6470483D01*
X7516082Y6467644D01*
X7516084Y6467643D01*
X7560009Y6453752D01*
X7563739Y6452507D01*
X7616089Y6434123D01*
X7622925Y6433854D01*
X7629443Y6431793D01*
X7635707Y6431300D01*
X7685468Y6431300D01*
X7690414Y6431203D01*
X7744300Y6429086D01*
X7751111Y6430892D01*
X7758526Y6431300D01*
X20455586Y6431300D01*
X20523707Y6411298D01*
X20570200Y6357642D01*
X20580304Y6287368D01*
X20567095Y6246633D01*
X20520023Y6157164D01*
X20457320Y5955227D01*
X20432467Y5745246D01*
X20446296Y5534251D01*
X20447717Y5528655D01*
X20447718Y5528650D01*
X20470284Y5439800D01*
X20498345Y5329310D01*
X20586869Y5137286D01*
X20708905Y4964609D01*
X20860365Y4817063D01*
X20865161Y4813858D01*
X20865164Y4813856D01*
X20974408Y4740862D01*
X21036177Y4699589D01*
X21041485Y4697308D01*
X21041486Y4697308D01*
X21225150Y4618400D01*
X21225153Y4618399D01*
X21230453Y4616122D01*
X21236082Y4614848D01*
X21236083Y4614848D01*
X21431050Y4570731D01*
X21431053Y4570731D01*
X21436686Y4569456D01*
X21442458Y4569229D01*
X21448187Y4568475D01*
X21447827Y4565743D01*
X21504104Y4546784D01*
X21548450Y4491341D01*
X21555782Y4420724D01*
X21523771Y4357353D01*
X21462581Y4321349D01*
X21453204Y4319368D01*
X21294150Y4292038D01*
X21294149Y4292038D01*
X21288453Y4291059D01*
X21090075Y4217873D01*
X21085114Y4214921D01*
X21085113Y4214921D01*
X20955881Y4138036D01*
X20908356Y4109762D01*
X20749381Y3970345D01*
X20618476Y3804292D01*
X20615787Y3799181D01*
X20615785Y3799178D01*
X20602292Y3773531D01*
X20520023Y3617164D01*
X20457320Y3415227D01*
X20432467Y3205246D01*
X20446296Y2994251D01*
X20447717Y2988655D01*
X20447718Y2988650D01*
X20492070Y2814018D01*
X20498345Y2789310D01*
X20586869Y2597286D01*
X20708905Y2424609D01*
X20741382Y2392971D01*
X20808609Y2327482D01*
X20860365Y2277063D01*
X20865161Y2273858D01*
X20865164Y2273856D01*
X20990526Y2190092D01*
X21036177Y2159589D01*
X21041485Y2157308D01*
X21041486Y2157308D01*
X21225150Y2078400D01*
X21225153Y2078399D01*
X21230453Y2076122D01*
X21236082Y2074848D01*
X21236083Y2074848D01*
X21431050Y2030731D01*
X21431053Y2030731D01*
X21436686Y2029456D01*
X21442457Y2029229D01*
X21442459Y2029229D01*
X21504489Y2026792D01*
X21647970Y2021154D01*
X21653679Y2021982D01*
X21653683Y2021982D01*
X21851515Y2050667D01*
X21851519Y2050668D01*
X21857230Y2051496D01*
X21945366Y2081414D01*
X22051983Y2117605D01*
X22051988Y2117607D01*
X22057455Y2119463D01*
X22062498Y2122287D01*
X22236895Y2219954D01*
X22236899Y2219957D01*
X22241942Y2222781D01*
X22404512Y2357988D01*
X22539719Y2520558D01*
X22542543Y2525601D01*
X22542546Y2525605D01*
X22640213Y2700002D01*
X22640214Y2700004D01*
X22643037Y2705045D01*
X22650573Y2727247D01*
X22691411Y2785322D01*
X22715344Y2800327D01*
X22743856Y2814018D01*
X22743862Y2814022D01*
X22752350Y2818098D01*
X22757372Y2822741D01*
X22763441Y2825893D01*
X22768219Y2829974D01*
X22782581Y2844336D01*
X22844893Y2878362D01*
X22915708Y2873297D01*
X22972544Y2830750D01*
X22993798Y2786259D01*
X22994588Y2783149D01*
X22994590Y2783144D01*
X22996011Y2777548D01*
X22998428Y2772306D01*
X22998428Y2772305D01*
X23036546Y2689621D01*
X23088383Y2577179D01*
X23215722Y2396998D01*
X23373764Y2243039D01*
X23378560Y2239834D01*
X23378563Y2239832D01*
X23462761Y2183573D01*
X23557217Y2120460D01*
X23562520Y2118182D01*
X23562523Y2118180D01*
X23754629Y2035645D01*
X23759936Y2033365D01*
X23810242Y2021982D01*
X23969495Y1985946D01*
X23969501Y1985945D01*
X23975132Y1984671D01*
X23980903Y1984444D01*
X23980905Y1984444D01*
X24048711Y1981780D01*
X24195598Y1976009D01*
X24304775Y1991839D01*
X24408238Y2006840D01*
X24408243Y2006841D01*
X24413952Y2007669D01*
X24419416Y2009524D01*
X24419421Y2009525D01*
X24617407Y2076732D01*
X24617412Y2076734D01*
X24622879Y2078590D01*
X24815384Y2186398D01*
X24855731Y2219954D01*
X24980586Y2323796D01*
X24985018Y2327482D01*
X25126102Y2497116D01*
X25233910Y2689621D01*
X25235766Y2695088D01*
X25235768Y2695093D01*
X25302975Y2893079D01*
X25302976Y2893084D01*
X25304831Y2898548D01*
X25305659Y2904257D01*
X25305660Y2904262D01*
X25335958Y3113228D01*
X25336491Y3116902D01*
X25338143Y3180000D01*
X25317954Y3399711D01*
X25313712Y3414754D01*
X25259634Y3606500D01*
X25258065Y3612064D01*
X25160480Y3809947D01*
X25080171Y3917494D01*
X25031920Y3982109D01*
X25031920Y3982110D01*
X25028467Y3986733D01*
X24866449Y4136501D01*
X24867868Y4138036D01*
X24831461Y4187886D01*
X24827232Y4258757D01*
X24860933Y4319617D01*
X25489622Y4948306D01*
X25500712Y4958161D01*
X25518266Y4971999D01*
X25518270Y4972003D01*
X25525665Y4977833D01*
X25557207Y5023471D01*
X25559502Y5026683D01*
X25586868Y5063732D01*
X25586870Y5063736D01*
X25592463Y5071308D01*
X25594729Y5077760D01*
X25598617Y5083386D01*
X25614172Y5132570D01*
X25615348Y5136290D01*
X25616602Y5140048D01*
X25631857Y5183486D01*
X25634977Y5192370D01*
X25635246Y5199206D01*
X25637307Y5205724D01*
X25637800Y5211988D01*
X25637800Y5212522D01*
X25639244Y5219933D01*
X25642389Y5219320D01*
X25662581Y5272383D01*
X25673853Y5285304D01*
X27925944Y7537395D01*
X27988256Y7571421D01*
X28015039Y7574300D01*
X43274190Y7574300D01*
X43288998Y7573427D01*
X43320555Y7569692D01*
X43329817Y7571384D01*
X43329826Y7571384D01*
X43375152Y7579663D01*
X43379060Y7580314D01*
X43381089Y7580619D01*
X43433884Y7588556D01*
X43440048Y7591516D01*
X43446777Y7592745D01*
X43496015Y7618322D01*
X43499531Y7620079D01*
X43541059Y7640020D01*
X43541063Y7640022D01*
X43549550Y7644098D01*
X43554572Y7648741D01*
X43560641Y7651893D01*
X43565419Y7655974D01*
X43600594Y7691149D01*
X43604160Y7694579D01*
X43636856Y7724803D01*
X43643771Y7731195D01*
X43647310Y7737287D01*
X43652269Y7742824D01*
X45423422Y9513977D01*
X45434512Y9523832D01*
X45452066Y9537670D01*
X45452070Y9537674D01*
X45459465Y9543504D01*
X45491057Y9589215D01*
X45493290Y9592338D01*
X45526262Y9636979D01*
X45528527Y9643428D01*
X45532417Y9649057D01*
X45539252Y9670667D01*
X45548022Y9698400D01*
X45549154Y9701978D01*
X45550398Y9705708D01*
X45565655Y9749153D01*
X45565655Y9749154D01*
X45568776Y9758041D01*
X45569044Y9764873D01*
X45571107Y9771395D01*
X45571600Y9777659D01*
X45571600Y9827430D01*
X45571697Y9832377D01*
X45573444Y9876839D01*
X45573814Y9886252D01*
X45572008Y9893063D01*
X45571600Y9900477D01*
X45571600Y27010841D01*
X45572473Y27025652D01*
X45575101Y27047855D01*
X45576208Y27057206D01*
X45572434Y27077873D01*
X45566240Y27111787D01*
X45565590Y27115690D01*
X45558744Y27161225D01*
X45558744Y27161226D01*
X45557344Y27170536D01*
X45554384Y27176700D01*
X45553155Y27183429D01*
X45527578Y27232667D01*
X45525821Y27236183D01*
X45505880Y27277711D01*
X45505878Y27277715D01*
X45501802Y27286202D01*
X45497159Y27291224D01*
X45494007Y27297293D01*
X45489926Y27302070D01*
X45454763Y27337233D01*
X45451333Y27340799D01*
X45421096Y27373509D01*
X45414705Y27380423D01*
X45408612Y27383962D01*
X45403074Y27388922D01*
X45040604Y27751393D01*
X45006579Y27813705D01*
X45003700Y27840488D01*
X45003700Y39847689D01*
X45004573Y39862500D01*
X45007201Y39884703D01*
X45008308Y39894054D01*
X45006389Y39904562D01*
X44998340Y39948635D01*
X44997690Y39952538D01*
X44990844Y39998073D01*
X44990844Y39998074D01*
X44989444Y40007384D01*
X44986484Y40013548D01*
X44985255Y40020277D01*
X44959678Y40069515D01*
X44957921Y40073031D01*
X44937980Y40114559D01*
X44937978Y40114563D01*
X44933902Y40123050D01*
X44929259Y40128072D01*
X44926107Y40134141D01*
X44922026Y40138918D01*
X44886863Y40174081D01*
X44883433Y40177647D01*
X44873077Y40188850D01*
X44846805Y40217271D01*
X44840712Y40220810D01*
X44835174Y40225770D01*
X44292966Y40767979D01*
X44258941Y40830291D01*
X44262749Y40897574D01*
X44301004Y41010270D01*
X44303051Y41024384D01*
X44330814Y41215860D01*
X44330814Y41215862D01*
X44331346Y41219530D01*
X44332929Y41280000D01*
X44313581Y41490560D01*
X44256186Y41694069D01*
X44252388Y41701772D01*
X44165219Y41878531D01*
X44162665Y41883710D01*
X44036151Y42053133D01*
X43920469Y42160068D01*
X43885122Y42192743D01*
X43885120Y42192745D01*
X43880881Y42196663D01*
X43875998Y42199744D01*
X43706934Y42306416D01*
X43706933Y42306416D01*
X43702054Y42309495D01*
X43505660Y42387848D01*
X43500003Y42388973D01*
X43499997Y42388975D01*
X43302734Y42428212D01*
X43239824Y42461119D01*
X43204692Y42522814D01*
X43208492Y42593709D01*
X43250017Y42651295D01*
X43309234Y42676487D01*
X43441515Y42695667D01*
X43441519Y42695668D01*
X43447230Y42696496D01*
X43526487Y42723400D01*
X43641983Y42762605D01*
X43641988Y42762607D01*
X43647455Y42764463D01*
X43652498Y42767287D01*
X43826895Y42864954D01*
X43826899Y42864957D01*
X43831942Y42867781D01*
X43994512Y43002988D01*
X44129719Y43165558D01*
X44132543Y43170601D01*
X44132546Y43170605D01*
X44230213Y43345002D01*
X44230214Y43345004D01*
X44233037Y43350045D01*
X44234893Y43355512D01*
X44234895Y43355517D01*
X44297450Y43539800D01*
X44301004Y43550270D01*
X44303051Y43564384D01*
X44330814Y43755860D01*
X44330814Y43755862D01*
X44331346Y43759530D01*
X44332929Y43820000D01*
X44313581Y44030560D01*
X44256186Y44234069D01*
X44252777Y44240983D01*
X44165219Y44418531D01*
X44162665Y44423710D01*
X44071449Y44545863D01*
X44039604Y44588509D01*
X44039603Y44588510D01*
X44036151Y44593133D01*
X43880881Y44736663D01*
X43866159Y44745952D01*
X43706934Y44846416D01*
X43706933Y44846416D01*
X43702054Y44849495D01*
X43505660Y44927848D01*
X43500003Y44928973D01*
X43499997Y44928975D01*
X43302734Y44968212D01*
X43239824Y45001119D01*
X43204692Y45062814D01*
X43208492Y45133709D01*
X43250017Y45191295D01*
X43309234Y45216487D01*
X43441515Y45235667D01*
X43441519Y45235668D01*
X43447230Y45236496D01*
X43543709Y45269246D01*
X43641983Y45302605D01*
X43641988Y45302607D01*
X43647455Y45304463D01*
X43675050Y45319917D01*
X43826895Y45404954D01*
X43826899Y45404957D01*
X43831942Y45407781D01*
X43994512Y45542988D01*
X44129719Y45705558D01*
X44132543Y45710601D01*
X44132546Y45710605D01*
X44230213Y45885002D01*
X44230214Y45885004D01*
X44233037Y45890045D01*
X44234893Y45895512D01*
X44234895Y45895517D01*
X44299147Y46084800D01*
X44301004Y46090270D01*
X44303051Y46104384D01*
X44330814Y46295860D01*
X44330814Y46295862D01*
X44331346Y46299530D01*
X44332929Y46360000D01*
X44313581Y46570560D01*
X44256186Y46774069D01*
X44249958Y46786700D01*
X44165219Y46958531D01*
X44162665Y46963710D01*
X44036151Y47133133D01*
X43907585Y47251978D01*
X43885122Y47272743D01*
X43885120Y47272745D01*
X43880881Y47276663D01*
X43866159Y47285952D01*
X43706934Y47386416D01*
X43706933Y47386416D01*
X43702054Y47389495D01*
X43505660Y47467848D01*
X43500003Y47468973D01*
X43499997Y47468975D01*
X43302734Y47508212D01*
X43239824Y47541119D01*
X43204692Y47602814D01*
X43208492Y47673709D01*
X43250017Y47731295D01*
X43309234Y47756487D01*
X43441515Y47775667D01*
X43441519Y47775668D01*
X43447230Y47776496D01*
X43505047Y47796122D01*
X43641983Y47842605D01*
X43641988Y47842607D01*
X43647455Y47844463D01*
X43674509Y47859614D01*
X43826895Y47944954D01*
X43826899Y47944957D01*
X43831942Y47947781D01*
X43994512Y48082988D01*
X44129719Y48245558D01*
X44132543Y48250601D01*
X44132546Y48250605D01*
X44230213Y48425002D01*
X44230214Y48425004D01*
X44233037Y48430045D01*
X44234893Y48435512D01*
X44234895Y48435517D01*
X44297025Y48618548D01*
X44301004Y48630270D01*
X44308604Y48682680D01*
X44330814Y48835860D01*
X44330814Y48835862D01*
X44331346Y48839530D01*
X44332929Y48900000D01*
X44313581Y49110560D01*
X44256186Y49314069D01*
X44249958Y49326700D01*
X44165219Y49498531D01*
X44162665Y49503710D01*
X44061048Y49639792D01*
X44039604Y49668509D01*
X44039603Y49668510D01*
X44036151Y49673133D01*
X43931831Y49769565D01*
X43885122Y49812743D01*
X43885120Y49812745D01*
X43880881Y49816663D01*
X43864346Y49827096D01*
X43706934Y49926416D01*
X43706933Y49926416D01*
X43702054Y49929495D01*
X43505660Y50007848D01*
X43500003Y50008973D01*
X43499997Y50008975D01*
X43302734Y50048212D01*
X43239824Y50081119D01*
X43204692Y50142814D01*
X43208492Y50213709D01*
X43250017Y50271295D01*
X43309234Y50296487D01*
X43441515Y50315667D01*
X43441519Y50315668D01*
X43447230Y50316496D01*
X43534538Y50346133D01*
X43641983Y50382605D01*
X43641988Y50382607D01*
X43647455Y50384463D01*
X43653314Y50387744D01*
X43826895Y50484954D01*
X43826899Y50484957D01*
X43831942Y50487781D01*
X43994512Y50622988D01*
X44129719Y50785558D01*
X44132543Y50790601D01*
X44132546Y50790605D01*
X44230213Y50965002D01*
X44230214Y50965004D01*
X44233037Y50970045D01*
X44234893Y50975512D01*
X44234895Y50975517D01*
X44299147Y51164800D01*
X44301004Y51170270D01*
X44320830Y51307000D01*
X44330814Y51375860D01*
X44330814Y51375862D01*
X44331346Y51379530D01*
X44332929Y51440000D01*
X44313581Y51650560D01*
X44298653Y51703493D01*
X44286988Y51744851D01*
X44256186Y51854069D01*
X44251993Y51862573D01*
X44165219Y52038531D01*
X44162665Y52043710D01*
X44036151Y52213133D01*
X43917062Y52323218D01*
X43885122Y52352743D01*
X43885120Y52352745D01*
X43880881Y52356663D01*
X43840981Y52381838D01*
X43706934Y52466416D01*
X43706933Y52466416D01*
X43702054Y52469495D01*
X43505660Y52547848D01*
X43500003Y52548973D01*
X43499997Y52548975D01*
X43303942Y52587972D01*
X43303940Y52587972D01*
X43298275Y52589099D01*
X43292500Y52589175D01*
X43292496Y52589175D01*
X43186476Y52590563D01*
X43086846Y52591867D01*
X43081149Y52590888D01*
X43081148Y52590888D01*
X42884150Y52557038D01*
X42884149Y52557038D01*
X42878453Y52556059D01*
X42680075Y52482873D01*
X42675114Y52479921D01*
X42675113Y52479921D01*
X42510250Y52381838D01*
X42498356Y52374762D01*
X42339381Y52235345D01*
X42208476Y52069292D01*
X42205787Y52064181D01*
X42205785Y52064178D01*
X42192292Y52038531D01*
X42110023Y51882164D01*
X42047320Y51680227D01*
X42022467Y51470246D01*
X42036296Y51259251D01*
X42037717Y51253655D01*
X42037718Y51253650D01*
X42059690Y51167137D01*
X42088345Y51054310D01*
X42090762Y51049067D01*
X42127192Y50970045D01*
X42176869Y50862286D01*
X42298905Y50689609D01*
X42362738Y50627426D01*
X42435256Y50556782D01*
X42450365Y50542063D01*
X42455161Y50538858D01*
X42455164Y50538856D01*
X42580703Y50454974D01*
X42626177Y50424589D01*
X42631485Y50422308D01*
X42631486Y50422308D01*
X42815150Y50343400D01*
X42815153Y50343399D01*
X42820453Y50341122D01*
X42826082Y50339848D01*
X42826083Y50339848D01*
X43021050Y50295731D01*
X43021053Y50295731D01*
X43026686Y50294456D01*
X43032458Y50294229D01*
X43038187Y50293475D01*
X43037827Y50290743D01*
X43094104Y50271784D01*
X43138450Y50216341D01*
X43145782Y50145724D01*
X43113771Y50082353D01*
X43052581Y50046349D01*
X43043204Y50044368D01*
X42884150Y50017038D01*
X42884149Y50017038D01*
X42878453Y50016059D01*
X42680075Y49942873D01*
X42675114Y49939921D01*
X42675113Y49939921D01*
X42529143Y49853078D01*
X42498356Y49834762D01*
X42339381Y49695345D01*
X42208476Y49529292D01*
X42205787Y49524181D01*
X42205785Y49524178D01*
X42137312Y49394032D01*
X42087893Y49343060D01*
X42025804Y49326700D01*
X37688935Y49326700D01*
X37620814Y49346702D01*
X37599840Y49363605D01*
X33598923Y53364522D01*
X33589068Y53375612D01*
X33575230Y53393166D01*
X33575226Y53393170D01*
X33569396Y53400565D01*
X33523685Y53432157D01*
X33520562Y53434390D01*
X33475921Y53467362D01*
X33469471Y53469627D01*
X33463843Y53473517D01*
X33454868Y53476355D01*
X33454863Y53476358D01*
X33410954Y53490244D01*
X33407213Y53491492D01*
X33383429Y53499844D01*
X33363745Y53506757D01*
X33363742Y53506758D01*
X33354859Y53509877D01*
X33348023Y53510146D01*
X33341505Y53512207D01*
X33335241Y53512700D01*
X33285480Y53512700D01*
X33280534Y53512797D01*
X33280256Y53512808D01*
X33226648Y53514914D01*
X33219837Y53513108D01*
X33212422Y53512700D01*
X20954546Y53512700D01*
X20939738Y53513573D01*
X20908181Y53517308D01*
X20853580Y53507336D01*
X20849691Y53506688D01*
X20794851Y53498444D01*
X20788686Y53495484D01*
X20781959Y53494255D01*
X20742922Y53473977D01*
X20732757Y53468697D01*
X20729220Y53466930D01*
X20687677Y53446981D01*
X20687671Y53446977D01*
X20679185Y53442902D01*
X20674161Y53438258D01*
X20668095Y53435107D01*
X20663317Y53431027D01*
X20628141Y53395851D01*
X20624576Y53392422D01*
X20584964Y53355805D01*
X20581425Y53349713D01*
X20576466Y53344176D01*
X19130895Y51898605D01*
X19068583Y51864579D01*
X19041800Y51861700D01*
X9761750Y51861700D01*
X9746940Y51862573D01*
X9729688Y51864615D01*
X9715393Y51866307D01*
X9706129Y51864615D01*
X9706126Y51864615D01*
X9660826Y51856342D01*
X9656923Y51855692D01*
X9611373Y51848844D01*
X9611370Y51848843D01*
X9602064Y51847444D01*
X9595899Y51844484D01*
X9589171Y51843255D01*
X9539933Y51817678D01*
X9536417Y51815921D01*
X9494889Y51795980D01*
X9494885Y51795978D01*
X9486398Y51791902D01*
X9481376Y51787259D01*
X9475307Y51784107D01*
X9470529Y51780026D01*
X9435354Y51744851D01*
X9431789Y51741422D01*
X9392177Y51704805D01*
X9388638Y51698713D01*
X9383679Y51693176D01*
X8192108Y50501605D01*
X8129796Y50467579D01*
X8103013Y50464700D01*
X7781500Y50464700D01*
X7713379Y50484702D01*
X7666886Y50538358D01*
X7655500Y50590700D01*
X7655500Y51162885D01*
X7651025Y51178124D01*
X7649635Y51179329D01*
X7641952Y51181000D01*
X6219500Y51181000D01*
X6151379Y51201002D01*
X6104886Y51254658D01*
X6093500Y51307000D01*
X6093500Y51707115D01*
X6601500Y51707115D01*
X6605975Y51691876D01*
X6607365Y51690671D01*
X6615048Y51689000D01*
X7637384Y51689000D01*
X7652623Y51693475D01*
X7653828Y51694865D01*
X7655499Y51702548D01*
X7655499Y52279669D01*
X7655129Y52286490D01*
X7649605Y52337352D01*
X7645979Y52352604D01*
X7600824Y52473054D01*
X7592286Y52488649D01*
X7515785Y52590724D01*
X7503224Y52603285D01*
X7401149Y52679786D01*
X7385554Y52688324D01*
X7265106Y52733478D01*
X7249851Y52737105D01*
X7198986Y52742631D01*
X7192172Y52743000D01*
X6619615Y52743000D01*
X6604376Y52738525D01*
X6603171Y52737135D01*
X6601500Y52729452D01*
X6601500Y51707115D01*
X6093500Y51707115D01*
X6093500Y52724884D01*
X6089025Y52740123D01*
X6087635Y52741328D01*
X6079952Y52742999D01*
X5502831Y52742999D01*
X5496010Y52742629D01*
X5445148Y52737105D01*
X5429896Y52733479D01*
X5309446Y52688324D01*
X5293851Y52679786D01*
X5191776Y52603285D01*
X5179215Y52590724D01*
X5128569Y52523147D01*
X5071710Y52480632D01*
X5000892Y52475606D01*
X4938727Y52509538D01*
X4868850Y52579293D01*
X4855862Y52585642D01*
X4804236Y52610877D01*
X4764018Y52630536D01*
X4733527Y52634984D01*
X4700244Y52639840D01*
X4700240Y52639840D01*
X4695718Y52640500D01*
X2929282Y52640500D01*
X2924732Y52639830D01*
X2924729Y52639830D01*
X2870074Y52631784D01*
X2870073Y52631784D01*
X2860388Y52630358D01*
X2820710Y52610877D01*
X2764993Y52583522D01*
X2764991Y52583521D01*
X2755645Y52578932D01*
X2673207Y52496350D01*
X2668634Y52486994D01*
X2668633Y52486993D01*
X2660080Y52469495D01*
X2621964Y52391518D01*
X2619520Y52374762D01*
X2613258Y52331838D01*
X2612000Y52323218D01*
X2612000Y50895135D01*
X2591998Y50827014D01*
X2575095Y50806040D01*
X1830178Y50061123D01*
X1819088Y50051268D01*
X1801534Y50037430D01*
X1801530Y50037426D01*
X1794135Y50031596D01*
X1762543Y49985885D01*
X1760310Y49982762D01*
X1727338Y49938121D01*
X1725073Y49931671D01*
X1721183Y49926043D01*
X1718345Y49917068D01*
X1718342Y49917063D01*
X1704456Y49873154D01*
X1703203Y49869397D01*
X1687943Y49825945D01*
X1687942Y49825942D01*
X1684823Y49817059D01*
X1684554Y49810223D01*
X1682493Y49803705D01*
X1682000Y49797441D01*
X1682000Y49747680D01*
X1681903Y49742734D01*
X1679786Y49688848D01*
X1681592Y49682037D01*
X1682000Y49674622D01*
X1682000Y40348010D01*
X1681127Y40333202D01*
X1677392Y40301645D01*
X1679084Y40292383D01*
X1679084Y40292374D01*
X1687363Y40247048D01*
X1688014Y40243140D01*
X1696256Y40188316D01*
X1699216Y40182152D01*
X1700445Y40175423D01*
X1726022Y40126185D01*
X1727779Y40122669D01*
X1751798Y40072649D01*
X1748611Y40071118D01*
X1765045Y40020109D01*
X1746827Y39951490D01*
X1728183Y39927728D01*
X1518178Y39717723D01*
X1507088Y39707868D01*
X1489534Y39694030D01*
X1489530Y39694026D01*
X1482135Y39688196D01*
X1450543Y39642485D01*
X1448310Y39639362D01*
X1415338Y39594721D01*
X1413073Y39588271D01*
X1409183Y39582643D01*
X1406345Y39573668D01*
X1406342Y39573663D01*
X1392456Y39529754D01*
X1391208Y39526013D01*
X1386685Y39513133D01*
X1375943Y39482545D01*
X1375942Y39482542D01*
X1372823Y39473659D01*
X1372554Y39466823D01*
X1370493Y39460305D01*
X1370000Y39454041D01*
X1370000Y39404280D01*
X1369903Y39399334D01*
X1367786Y39345448D01*
X1369592Y39338637D01*
X1370000Y39331222D01*
X1370000Y6242610D01*
X1369127Y6227802D01*
X1365392Y6196245D01*
X500000Y6196245D01*
X500000Y54158938D01*
X3110993Y54158938D01*
X3120289Y54146923D01*
X3171494Y54111069D01*
X3180989Y54105586D01*
X3378447Y54013510D01*
X3388739Y54009764D01*
X3599188Y53953375D01*
X3609981Y53951472D01*
X3827025Y53932483D01*
X3837975Y53932483D01*
X4055019Y53951472D01*
X4065812Y53953375D01*
X4276261Y54009764D01*
X4286553Y54013510D01*
X4484011Y54105586D01*
X4493506Y54111069D01*
X4545548Y54147509D01*
X4553924Y54157988D01*
X4546856Y54171434D01*
X3845312Y54872978D01*
X3831368Y54880592D01*
X3829535Y54880461D01*
X3822920Y54876210D01*
X3117423Y54170713D01*
X3110993Y54158938D01*
X500000Y54158938D01*
X500000Y55239525D01*
X2519983Y55239525D01*
X2538972Y55022481D01*
X2540875Y55011688D01*
X2597264Y54801239D01*
X2601010Y54790947D01*
X2693086Y54593489D01*
X2698569Y54583994D01*
X2735009Y54531952D01*
X2745488Y54523576D01*
X2758934Y54530644D01*
X3460478Y55232188D01*
X3466856Y55243868D01*
X4196908Y55243868D01*
X4197039Y55242035D01*
X4201290Y55235420D01*
X4906787Y54529923D01*
X4918562Y54523493D01*
X4930577Y54532789D01*
X4966431Y54583994D01*
X4971914Y54593489D01*
X5055180Y54772054D01*
X5102097Y54825339D01*
X5170375Y54844800D01*
X5238335Y54824258D01*
X5283800Y54771556D01*
X5331869Y54667286D01*
X5453905Y54494609D01*
X5605365Y54347063D01*
X5610161Y54343858D01*
X5610164Y54343856D01*
X5753436Y54248125D01*
X5781177Y54229589D01*
X5786485Y54227308D01*
X5786486Y54227308D01*
X5970150Y54148400D01*
X5970153Y54148399D01*
X5975453Y54146122D01*
X5981082Y54144848D01*
X5981083Y54144848D01*
X6176050Y54100731D01*
X6176053Y54100731D01*
X6181686Y54099456D01*
X6187457Y54099229D01*
X6187459Y54099229D01*
X6249489Y54096792D01*
X6392970Y54091154D01*
X6398679Y54091982D01*
X6398683Y54091982D01*
X6596515Y54120667D01*
X6596519Y54120668D01*
X6602230Y54121496D01*
X6681487Y54148400D01*
X6796983Y54187605D01*
X6796988Y54187607D01*
X6802455Y54189463D01*
X6807498Y54192287D01*
X6981895Y54289954D01*
X6981899Y54289957D01*
X6986942Y54292781D01*
X7149512Y54427988D01*
X7284719Y54590558D01*
X7287543Y54595601D01*
X7287546Y54595605D01*
X7385213Y54770002D01*
X7385214Y54770004D01*
X7388037Y54775045D01*
X7389893Y54780512D01*
X7389895Y54780517D01*
X7454147Y54969800D01*
X7456004Y54975270D01*
X7461285Y55011688D01*
X7485814Y55180860D01*
X7485814Y55180862D01*
X7486346Y55184530D01*
X7487929Y55245000D01*
X7485150Y55275246D01*
X39507467Y55275246D01*
X39521296Y55064251D01*
X39522717Y55058655D01*
X39522718Y55058650D01*
X39545284Y54969800D01*
X39573345Y54859310D01*
X39575762Y54854067D01*
X39591980Y54818887D01*
X39661869Y54667286D01*
X39783905Y54494609D01*
X39935365Y54347063D01*
X39940161Y54343858D01*
X39940164Y54343856D01*
X40083436Y54248125D01*
X40111177Y54229589D01*
X40116485Y54227308D01*
X40116486Y54227308D01*
X40300150Y54148400D01*
X40300153Y54148399D01*
X40305453Y54146122D01*
X40311082Y54144848D01*
X40311083Y54144848D01*
X40506050Y54100731D01*
X40506053Y54100731D01*
X40511686Y54099456D01*
X40517457Y54099229D01*
X40517459Y54099229D01*
X40579489Y54096792D01*
X40722970Y54091154D01*
X40728679Y54091982D01*
X40728683Y54091982D01*
X40926515Y54120667D01*
X40926519Y54120668D01*
X40932230Y54121496D01*
X41011487Y54148400D01*
X41042531Y54158938D01*
X42440993Y54158938D01*
X42450289Y54146923D01*
X42501494Y54111069D01*
X42510989Y54105586D01*
X42708447Y54013510D01*
X42718739Y54009764D01*
X42929188Y53953375D01*
X42939981Y53951472D01*
X43157025Y53932483D01*
X43167975Y53932483D01*
X43385019Y53951472D01*
X43395812Y53953375D01*
X43606261Y54009764D01*
X43616553Y54013510D01*
X43814011Y54105586D01*
X43823506Y54111069D01*
X43875548Y54147509D01*
X43883924Y54157988D01*
X43876856Y54171434D01*
X43175312Y54872978D01*
X43161368Y54880592D01*
X43159535Y54880461D01*
X43152920Y54876210D01*
X42447423Y54170713D01*
X42440993Y54158938D01*
X41042531Y54158938D01*
X41126983Y54187605D01*
X41126988Y54187607D01*
X41132455Y54189463D01*
X41137498Y54192287D01*
X41311895Y54289954D01*
X41311899Y54289957D01*
X41316942Y54292781D01*
X41479512Y54427988D01*
X41614719Y54590558D01*
X41617543Y54595601D01*
X41617546Y54595605D01*
X41718037Y54775045D01*
X41720459Y54773689D01*
X41758778Y54818887D01*
X41826679Y54839623D01*
X41895011Y54820357D01*
X41942233Y54766880D01*
X42023086Y54593489D01*
X42028569Y54583994D01*
X42065009Y54531952D01*
X42075488Y54523576D01*
X42088934Y54530644D01*
X42790478Y55232188D01*
X42796856Y55243868D01*
X43526908Y55243868D01*
X43527039Y55242035D01*
X43531290Y55235420D01*
X44236787Y54529923D01*
X44248562Y54523493D01*
X44260577Y54532789D01*
X44296431Y54583994D01*
X44301914Y54593489D01*
X44393990Y54790947D01*
X44397736Y54801239D01*
X44454125Y55011688D01*
X44456028Y55022481D01*
X44475017Y55239525D01*
X44475017Y55250475D01*
X44456028Y55467519D01*
X44454125Y55478312D01*
X44397736Y55688761D01*
X44393990Y55699053D01*
X44301914Y55896511D01*
X44296431Y55906006D01*
X44259991Y55958048D01*
X44249512Y55966424D01*
X44236066Y55959356D01*
X43534522Y55257812D01*
X43526908Y55243868D01*
X42796856Y55243868D01*
X42798092Y55246132D01*
X42797961Y55247965D01*
X42793710Y55254580D01*
X42088213Y55960077D01*
X42076438Y55966507D01*
X42064423Y55957211D01*
X42028569Y55906006D01*
X42023086Y55896511D01*
X41940187Y55718732D01*
X41893270Y55665447D01*
X41824993Y55645986D01*
X41757033Y55666528D01*
X41712986Y55716253D01*
X41650219Y55843531D01*
X41647665Y55848710D01*
X41521151Y56018133D01*
X41365881Y56161663D01*
X41187054Y56274495D01*
X41042886Y56332012D01*
X42441076Y56332012D01*
X42448144Y56318566D01*
X43149688Y55617022D01*
X43163632Y55609408D01*
X43165465Y55609539D01*
X43172080Y55613790D01*
X43877577Y56319287D01*
X43884007Y56331062D01*
X43874711Y56343077D01*
X43823506Y56378931D01*
X43814011Y56384414D01*
X43616553Y56476490D01*
X43606261Y56480236D01*
X43395812Y56536625D01*
X43385019Y56538528D01*
X43167975Y56557517D01*
X43157025Y56557517D01*
X42939981Y56538528D01*
X42929188Y56536625D01*
X42718739Y56480236D01*
X42708447Y56476490D01*
X42510989Y56384414D01*
X42501494Y56378931D01*
X42449452Y56342491D01*
X42441076Y56332012D01*
X41042886Y56332012D01*
X40990660Y56352848D01*
X40985003Y56353973D01*
X40984997Y56353975D01*
X40788942Y56392972D01*
X40788940Y56392972D01*
X40783275Y56394099D01*
X40777500Y56394175D01*
X40777496Y56394175D01*
X40671476Y56395563D01*
X40571846Y56396867D01*
X40566149Y56395888D01*
X40566148Y56395888D01*
X40369150Y56362038D01*
X40369149Y56362038D01*
X40363453Y56361059D01*
X40165075Y56287873D01*
X40160114Y56284921D01*
X40160113Y56284921D01*
X40142589Y56274495D01*
X39983356Y56179762D01*
X39824381Y56040345D01*
X39693476Y55874292D01*
X39690787Y55869181D01*
X39690785Y55869178D01*
X39677292Y55843531D01*
X39595023Y55687164D01*
X39532320Y55485227D01*
X39507467Y55275246D01*
X7485150Y55275246D01*
X7468581Y55455560D01*
X7411186Y55659069D01*
X7404955Y55671706D01*
X7320219Y55843531D01*
X7317665Y55848710D01*
X7191151Y56018133D01*
X7035881Y56161663D01*
X6857054Y56274495D01*
X6660660Y56352848D01*
X6655003Y56353973D01*
X6654997Y56353975D01*
X6458942Y56392972D01*
X6458940Y56392972D01*
X6453275Y56394099D01*
X6447500Y56394175D01*
X6447496Y56394175D01*
X6341476Y56395563D01*
X6241846Y56396867D01*
X6236149Y56395888D01*
X6236148Y56395888D01*
X6039150Y56362038D01*
X6039149Y56362038D01*
X6033453Y56361059D01*
X5835075Y56287873D01*
X5830114Y56284921D01*
X5830113Y56284921D01*
X5812589Y56274495D01*
X5653356Y56179762D01*
X5494381Y56040345D01*
X5363476Y55874292D01*
X5360784Y55869176D01*
X5360783Y55869174D01*
X5279701Y55715063D01*
X5230282Y55664090D01*
X5161149Y55647927D01*
X5094253Y55671706D01*
X5053998Y55720480D01*
X4971914Y55896511D01*
X4966431Y55906006D01*
X4929991Y55958048D01*
X4919512Y55966424D01*
X4906066Y55959356D01*
X4204522Y55257812D01*
X4196908Y55243868D01*
X3466856Y55243868D01*
X3468092Y55246132D01*
X3467961Y55247965D01*
X3463710Y55254580D01*
X2758213Y55960077D01*
X2746438Y55966507D01*
X2734423Y55957211D01*
X2698569Y55906006D01*
X2693086Y55896511D01*
X2601010Y55699053D01*
X2597264Y55688761D01*
X2540875Y55478312D01*
X2538972Y55467519D01*
X2519983Y55250475D01*
X2519983Y55239525D01*
X500000Y55239525D01*
X500000Y56005512D01*
X520002Y56073633D01*
X539701Y56097319D01*
X630549Y56182716D01*
X789374Y56332012D01*
X3111076Y56332012D01*
X3118144Y56318566D01*
X3819688Y55617022D01*
X3833632Y55609408D01*
X3835465Y55609539D01*
X3842080Y55613790D01*
X4547577Y56319287D01*
X4554007Y56331062D01*
X4544711Y56343077D01*
X4493506Y56378931D01*
X4484011Y56384414D01*
X4286553Y56476490D01*
X4276261Y56480236D01*
X4065812Y56536625D01*
X4055019Y56538528D01*
X3837975Y56557517D01*
X3827025Y56557517D01*
X3609981Y56538528D01*
X3599188Y56536625D01*
X3388739Y56480236D01*
X3378447Y56476490D01*
X3180989Y56384414D01*
X3171494Y56378931D01*
X3119452Y56342491D01*
X3111076Y56332012D01*
X789374Y56332012D01*
X1463625Y56965808D01*
X1526959Y56997890D01*
X1549923Y57000000D01*
X44950077Y57000000D01*
X45018198Y56979998D01*
G37*
G04 #@! TD.AperFunction*
G04 #@! TA.AperFunction,Conductor*
G36*
X42185453Y19243198D02*
G01*
X42231946Y19189542D01*
X42242050Y19119268D01*
X42216282Y19059195D01*
X42212640Y19054574D01*
X42208476Y19049292D01*
X42205787Y19044181D01*
X42205785Y19044178D01*
X42183153Y19001161D01*
X42110023Y18862164D01*
X42047320Y18660227D01*
X42022467Y18450246D01*
X42036296Y18239251D01*
X42037717Y18233655D01*
X42037718Y18233650D01*
X42074519Y18088749D01*
X42088345Y18034310D01*
X42090762Y18029067D01*
X42136033Y17930866D01*
X42176869Y17842286D01*
X42298905Y17669609D01*
X42450365Y17522063D01*
X42455161Y17518858D01*
X42455164Y17518856D01*
X42546016Y17458151D01*
X42626177Y17404589D01*
X42631485Y17402308D01*
X42631486Y17402308D01*
X42815150Y17323400D01*
X42815153Y17323399D01*
X42820453Y17321122D01*
X42826082Y17319848D01*
X42826083Y17319848D01*
X43021050Y17275731D01*
X43021053Y17275731D01*
X43026686Y17274456D01*
X43032458Y17274229D01*
X43038187Y17273475D01*
X43037827Y17270743D01*
X43094104Y17251784D01*
X43138450Y17196341D01*
X43145782Y17125724D01*
X43113771Y17062353D01*
X43052581Y17026349D01*
X43043204Y17024368D01*
X42884150Y16997038D01*
X42884149Y16997038D01*
X42878453Y16996059D01*
X42680075Y16922873D01*
X42675114Y16919921D01*
X42675113Y16919921D01*
X42540077Y16839583D01*
X42498356Y16814762D01*
X42339381Y16675345D01*
X42208476Y16509292D01*
X42205787Y16504181D01*
X42205785Y16504178D01*
X42189710Y16473624D01*
X42110023Y16322164D01*
X42047320Y16120227D01*
X42022467Y15910246D01*
X42036296Y15699251D01*
X42037717Y15693655D01*
X42037718Y15693650D01*
X42063262Y15593073D01*
X42088345Y15494310D01*
X42090762Y15489067D01*
X42172937Y15310816D01*
X42176869Y15302286D01*
X42298905Y15129609D01*
X42450365Y14982063D01*
X42455161Y14978858D01*
X42455164Y14978856D01*
X42588009Y14890092D01*
X42626177Y14864589D01*
X42631485Y14862308D01*
X42631486Y14862308D01*
X42815150Y14783400D01*
X42815153Y14783399D01*
X42820453Y14781122D01*
X42826082Y14779848D01*
X42826083Y14779848D01*
X43021050Y14735731D01*
X43021053Y14735731D01*
X43026686Y14734456D01*
X43032458Y14734229D01*
X43038187Y14733475D01*
X43037827Y14730743D01*
X43094104Y14711784D01*
X43138450Y14656341D01*
X43145782Y14585724D01*
X43113771Y14522353D01*
X43052581Y14486349D01*
X43043204Y14484368D01*
X42884150Y14457038D01*
X42884149Y14457038D01*
X42878453Y14456059D01*
X42680075Y14382873D01*
X42675114Y14379921D01*
X42675113Y14379921D01*
X42519673Y14287444D01*
X42498356Y14274762D01*
X42339381Y14135345D01*
X42208476Y13969292D01*
X42205787Y13964181D01*
X42205785Y13964178D01*
X42164699Y13886086D01*
X42110023Y13782164D01*
X42047320Y13580227D01*
X42022467Y13370246D01*
X42036296Y13159251D01*
X42037717Y13153655D01*
X42037718Y13153650D01*
X42063262Y13053073D01*
X42088345Y12954310D01*
X42090762Y12949067D01*
X42172937Y12770816D01*
X42176869Y12762286D01*
X42298905Y12589609D01*
X42450365Y12442063D01*
X42455161Y12438858D01*
X42455164Y12438856D01*
X42558300Y12369943D01*
X42626177Y12324589D01*
X42631485Y12322308D01*
X42631486Y12322308D01*
X42815150Y12243400D01*
X42815153Y12243399D01*
X42820453Y12241122D01*
X42826082Y12239848D01*
X42826083Y12239848D01*
X43021050Y12195731D01*
X43021053Y12195731D01*
X43026686Y12194456D01*
X43032457Y12194229D01*
X43032459Y12194229D01*
X43094489Y12191792D01*
X43237970Y12186154D01*
X43243679Y12186982D01*
X43243683Y12186982D01*
X43441515Y12215667D01*
X43441519Y12215668D01*
X43447230Y12216496D01*
X43576500Y12260377D01*
X43641983Y12282605D01*
X43641988Y12282607D01*
X43647455Y12284463D01*
X43658867Y12290854D01*
X43826895Y12384954D01*
X43826899Y12384957D01*
X43831942Y12387781D01*
X43994512Y12522988D01*
X44129719Y12685558D01*
X44132543Y12690601D01*
X44132546Y12690605D01*
X44177466Y12770816D01*
X44228203Y12820478D01*
X44297734Y12834825D01*
X44363985Y12809304D01*
X44405921Y12752015D01*
X44413400Y12709250D01*
X44413400Y10194087D01*
X44393398Y10125966D01*
X44376495Y10104992D01*
X43040908Y8769405D01*
X42978596Y8735379D01*
X42951813Y8732500D01*
X35675135Y8732500D01*
X35607014Y8752502D01*
X35560521Y8806158D01*
X35550417Y8876432D01*
X35579911Y8941012D01*
X35586040Y8947595D01*
X35838522Y9200077D01*
X35849612Y9209932D01*
X35867167Y9223771D01*
X35867170Y9223775D01*
X35874565Y9229604D01*
X35879919Y9237351D01*
X35879923Y9237355D01*
X35906115Y9275251D01*
X35908415Y9278471D01*
X35935768Y9315504D01*
X35941363Y9323079D01*
X35943629Y9329531D01*
X35947517Y9335157D01*
X35951474Y9347667D01*
X35964248Y9388061D01*
X35965502Y9391819D01*
X35968154Y9399368D01*
X35983877Y9444141D01*
X35984146Y9450977D01*
X35986207Y9457495D01*
X35986700Y9463759D01*
X35986700Y9513520D01*
X35986797Y9518466D01*
X35988544Y9562939D01*
X35988914Y9572352D01*
X35987108Y9579163D01*
X35986700Y9586578D01*
X35986700Y17227556D01*
X36006702Y17295677D01*
X36030868Y17323366D01*
X36038428Y17329823D01*
X36044202Y17334754D01*
X36055289Y17350183D01*
X36131994Y17456929D01*
X36131995Y17456930D01*
X36136431Y17463104D01*
X36195382Y17609750D01*
X36217652Y17766224D01*
X36217796Y17780000D01*
X36216963Y17786888D01*
X36207430Y17865659D01*
X36198808Y17936906D01*
X36142941Y18084754D01*
X36109728Y18133079D01*
X36057722Y18208749D01*
X36057721Y18208751D01*
X36053420Y18215008D01*
X36042043Y18225145D01*
X35941084Y18315097D01*
X35941080Y18315100D01*
X35935413Y18320149D01*
X35928705Y18323701D01*
X35928703Y18323702D01*
X35802442Y18390553D01*
X35802441Y18390554D01*
X35795733Y18394105D01*
X35642444Y18432609D01*
X35634846Y18432649D01*
X35634844Y18432649D01*
X35563420Y18433023D01*
X35484395Y18433437D01*
X35477008Y18431663D01*
X35477004Y18431663D01*
X35343073Y18399508D01*
X35330711Y18396540D01*
X35323967Y18393059D01*
X35323964Y18393058D01*
X35249318Y18354530D01*
X35190264Y18324050D01*
X35071162Y18220151D01*
X35047206Y18186065D01*
X35016738Y18142713D01*
X34980282Y18090842D01*
X34922870Y17943587D01*
X34902240Y17786888D01*
X34908627Y17729037D01*
X34918268Y17641713D01*
X34919584Y17629792D01*
X34922194Y17622661D01*
X34922194Y17622659D01*
X34929393Y17602988D01*
X34973899Y17481367D01*
X34978136Y17475061D01*
X34978138Y17475058D01*
X34998538Y17444700D01*
X35062052Y17350183D01*
X35067670Y17345071D01*
X35092100Y17322841D01*
X35129022Y17262200D01*
X35133300Y17229648D01*
X35133300Y9753935D01*
X35113298Y9685814D01*
X35096395Y9664839D01*
X34505759Y9074204D01*
X34443447Y9040179D01*
X34416664Y9037300D01*
X27566402Y9037300D01*
X27551592Y9038173D01*
X27534340Y9040215D01*
X27520045Y9041907D01*
X27510781Y9040215D01*
X27510778Y9040215D01*
X27465478Y9031942D01*
X27461575Y9031292D01*
X27416025Y9024444D01*
X27416022Y9024443D01*
X27406716Y9023044D01*
X27400551Y9020084D01*
X27393823Y9018855D01*
X27344585Y8993278D01*
X27341069Y8991521D01*
X27299541Y8971580D01*
X27299537Y8971578D01*
X27291050Y8967502D01*
X27286028Y8962859D01*
X27279959Y8959707D01*
X27275181Y8955626D01*
X27240006Y8920451D01*
X27236441Y8917022D01*
X27196829Y8880405D01*
X27193290Y8874313D01*
X27188331Y8868776D01*
X25945960Y7626405D01*
X25883648Y7592379D01*
X25856865Y7589500D01*
X25347159Y7589500D01*
X25279038Y7609502D01*
X25232545Y7663158D01*
X25222441Y7733432D01*
X25231787Y7765830D01*
X25233910Y7769621D01*
X25270272Y7876740D01*
X25302975Y7973079D01*
X25302976Y7973084D01*
X25304831Y7978548D01*
X25305659Y7984257D01*
X25305660Y7984262D01*
X25335958Y8193228D01*
X25336491Y8196902D01*
X25338143Y8260000D01*
X25317954Y8479711D01*
X25313712Y8494754D01*
X25259634Y8686500D01*
X25258065Y8692064D01*
X25160480Y8889947D01*
X25137702Y8920451D01*
X25031920Y9062109D01*
X25031920Y9062110D01*
X25028467Y9066733D01*
X24931086Y9156751D01*
X24870689Y9212582D01*
X24870686Y9212584D01*
X24866449Y9216501D01*
X24679850Y9334236D01*
X24477455Y9414983D01*
X24421596Y9458804D01*
X24398295Y9525868D01*
X24414951Y9594883D01*
X24466275Y9643937D01*
X24483644Y9651326D01*
X24617407Y9696732D01*
X24617412Y9696734D01*
X24622879Y9698590D01*
X24642809Y9709751D01*
X24713166Y9749153D01*
X24815384Y9806398D01*
X24846621Y9832377D01*
X24980586Y9943796D01*
X24985018Y9947482D01*
X25039485Y10012971D01*
X25122408Y10112674D01*
X25122410Y10112677D01*
X25126102Y10117116D01*
X25191106Y10233188D01*
X25231086Y10304578D01*
X25231087Y10304580D01*
X25233910Y10309621D01*
X25235766Y10315088D01*
X25235768Y10315093D01*
X25302975Y10513079D01*
X25302976Y10513084D01*
X25304831Y10518548D01*
X25305659Y10524257D01*
X25305660Y10524262D01*
X25335958Y10733228D01*
X25336491Y10736902D01*
X25338143Y10800000D01*
X25329714Y10891731D01*
X25343398Y10961396D01*
X25392575Y11012603D01*
X25462281Y11028244D01*
X25462310Y11028991D01*
X25464799Y11028893D01*
X25467255Y11028700D01*
X25517026Y11028700D01*
X25521972Y11028603D01*
X25575848Y11026486D01*
X25582659Y11028292D01*
X25590073Y11028700D01*
X32731694Y11028700D01*
X32746502Y11027827D01*
X32778059Y11024092D01*
X32787321Y11025784D01*
X32787330Y11025784D01*
X32832656Y11034063D01*
X32836564Y11034714D01*
X32839976Y11035227D01*
X32891388Y11042956D01*
X32897552Y11045916D01*
X32904281Y11047145D01*
X32953519Y11072722D01*
X32957035Y11074479D01*
X32998563Y11094420D01*
X32998567Y11094422D01*
X33007054Y11098498D01*
X33012076Y11103141D01*
X33018145Y11106293D01*
X33022923Y11110374D01*
X33058097Y11145548D01*
X33061663Y11148978D01*
X33094360Y11179203D01*
X33101275Y11185595D01*
X33104814Y11191687D01*
X33109773Y11197224D01*
X34187521Y12274973D01*
X34198611Y12284828D01*
X34216162Y12298664D01*
X34223565Y12304500D01*
X34255154Y12350206D01*
X34257360Y12353294D01*
X34290363Y12397975D01*
X34292629Y12404427D01*
X34296517Y12410053D01*
X34306333Y12441090D01*
X34313248Y12462957D01*
X34314502Y12466715D01*
X34317266Y12474583D01*
X34332877Y12519037D01*
X34333146Y12525873D01*
X34335207Y12532391D01*
X34335700Y12538655D01*
X34335700Y12588416D01*
X34335797Y12593362D01*
X34337115Y12626903D01*
X34337914Y12647248D01*
X34336108Y12654059D01*
X34335700Y12661474D01*
X34335700Y18186065D01*
X34355702Y18254186D01*
X34372605Y18275160D01*
X35323740Y19226295D01*
X35386052Y19260321D01*
X35412835Y19263200D01*
X42117332Y19263200D01*
X42185453Y19243198D01*
G37*
G04 #@! TD.AperFunction*
G04 #@! TA.AperFunction,Conductor*
G36*
X17574796Y16571298D02*
G01*
X17621289Y16517642D01*
X17631914Y16479128D01*
X17632532Y16473531D01*
X17646557Y16346496D01*
X17647584Y16337192D01*
X17650194Y16330061D01*
X17650194Y16330059D01*
X17665194Y16289069D01*
X17701899Y16188767D01*
X17706136Y16182461D01*
X17706138Y16182458D01*
X17740577Y16131208D01*
X17790052Y16057583D01*
X17906951Y15951212D01*
X17913624Y15947589D01*
X17913628Y15947586D01*
X18038108Y15880000D01*
X18045849Y15875797D01*
X18198727Y15835690D01*
X18287433Y15834296D01*
X18355231Y15813226D01*
X18374548Y15797407D01*
X19790495Y14381460D01*
X19824521Y14319148D01*
X19827400Y14292365D01*
X19827400Y10702610D01*
X19826527Y10687802D01*
X19822792Y10656245D01*
X19824484Y10646983D01*
X19824484Y10646974D01*
X19832763Y10601648D01*
X19833414Y10597740D01*
X19841656Y10542916D01*
X19844616Y10536752D01*
X19845845Y10530023D01*
X19871422Y10480785D01*
X19873179Y10477269D01*
X19893120Y10435741D01*
X19893122Y10435737D01*
X19897198Y10427250D01*
X19901841Y10422228D01*
X19904993Y10416159D01*
X19909074Y10411381D01*
X19944249Y10376206D01*
X19947678Y10372641D01*
X19984295Y10333029D01*
X19990387Y10329490D01*
X19995924Y10324531D01*
X20840177Y9480278D01*
X20850032Y9469188D01*
X20863870Y9451634D01*
X20863874Y9451630D01*
X20869704Y9444235D01*
X20877451Y9438880D01*
X20877453Y9438879D01*
X20898169Y9424562D01*
X20912029Y9414983D01*
X20915332Y9412700D01*
X20918552Y9410399D01*
X20926907Y9404228D01*
X20969819Y9347667D01*
X20975339Y9276885D01*
X20941716Y9214356D01*
X20916477Y9194594D01*
X20913324Y9192718D01*
X20913321Y9192716D01*
X20908356Y9189762D01*
X20749381Y9050345D01*
X20618476Y8884292D01*
X20615787Y8879181D01*
X20615785Y8879178D01*
X20602292Y8853531D01*
X20520023Y8697164D01*
X20457320Y8495227D01*
X20432467Y8285246D01*
X20446296Y8074251D01*
X20447717Y8068655D01*
X20447718Y8068650D01*
X20487085Y7913645D01*
X20498345Y7869310D01*
X20544934Y7768252D01*
X20544934Y7768251D01*
X20555289Y7698014D01*
X20526027Y7633328D01*
X20466438Y7594731D01*
X20430508Y7589500D01*
X8179135Y7589500D01*
X8111014Y7609502D01*
X8090040Y7626405D01*
X7839705Y7876740D01*
X7805679Y7939052D01*
X7802800Y7965835D01*
X7802800Y9733590D01*
X7803673Y9748401D01*
X7806301Y9770604D01*
X7807408Y9779955D01*
X7805716Y9789217D01*
X7805716Y9789226D01*
X7797437Y9834552D01*
X7796786Y9838460D01*
X7789944Y9883970D01*
X7788544Y9893284D01*
X7785584Y9899448D01*
X7784355Y9906177D01*
X7758778Y9955415D01*
X7757021Y9958931D01*
X7737080Y10000459D01*
X7737078Y10000463D01*
X7733002Y10008950D01*
X7728359Y10013972D01*
X7725207Y10020041D01*
X7721126Y10024819D01*
X7685951Y10059994D01*
X7682521Y10063560D01*
X7652297Y10096256D01*
X7652298Y10096256D01*
X7645905Y10103171D01*
X7639813Y10106710D01*
X7634276Y10111669D01*
X7462967Y10282978D01*
X7428941Y10345290D01*
X7432749Y10412574D01*
X7455310Y10479038D01*
X7471004Y10525270D01*
X7472410Y10534961D01*
X7500814Y10730860D01*
X7500814Y10730862D01*
X7501346Y10734530D01*
X7502929Y10795000D01*
X7483581Y11005560D01*
X7478355Y11024092D01*
X7456871Y11100267D01*
X7426186Y11209069D01*
X7415053Y11231646D01*
X7335219Y11393531D01*
X7332665Y11398710D01*
X7206151Y11568133D01*
X7050881Y11711663D01*
X6986029Y11752582D01*
X6876934Y11821416D01*
X6876933Y11821416D01*
X6872054Y11824495D01*
X6675660Y11902848D01*
X6670003Y11903973D01*
X6669997Y11903975D01*
X6472734Y11943212D01*
X6409824Y11976119D01*
X6374692Y12037814D01*
X6378492Y12108709D01*
X6420017Y12166295D01*
X6479234Y12191487D01*
X6611515Y12210667D01*
X6611519Y12210668D01*
X6617230Y12211496D01*
X6705366Y12241414D01*
X6811983Y12277605D01*
X6811988Y12277607D01*
X6817455Y12279463D01*
X6822905Y12282515D01*
X6996895Y12379954D01*
X6996899Y12379957D01*
X7001942Y12382781D01*
X7164512Y12517988D01*
X7299719Y12680558D01*
X7302543Y12685601D01*
X7302546Y12685605D01*
X7400213Y12860002D01*
X7400214Y12860004D01*
X7403037Y12865045D01*
X7404893Y12870512D01*
X7404895Y12870517D01*
X7469147Y13059800D01*
X7471004Y13065270D01*
X7473334Y13081335D01*
X7500814Y13270860D01*
X7500814Y13270862D01*
X7501346Y13274530D01*
X7502929Y13335000D01*
X7483581Y13545560D01*
X7426186Y13749069D01*
X7415053Y13771646D01*
X7335219Y13933531D01*
X7332665Y13938710D01*
X7225567Y14082132D01*
X7209604Y14103509D01*
X7209603Y14103510D01*
X7206151Y14108133D01*
X7075854Y14228578D01*
X7055122Y14247743D01*
X7055120Y14247745D01*
X7050881Y14251663D01*
X7042957Y14256663D01*
X6876934Y14361416D01*
X6876932Y14361417D01*
X6872054Y14364495D01*
X6675660Y14442848D01*
X6670003Y14443973D01*
X6669997Y14443975D01*
X6472734Y14483212D01*
X6409824Y14516119D01*
X6374692Y14577814D01*
X6378492Y14648709D01*
X6420017Y14706295D01*
X6479234Y14731487D01*
X6611515Y14750667D01*
X6611519Y14750668D01*
X6617230Y14751496D01*
X6705366Y14781414D01*
X6811983Y14817605D01*
X6811988Y14817607D01*
X6817455Y14819463D01*
X6822744Y14822425D01*
X6996895Y14919954D01*
X6996899Y14919957D01*
X7001942Y14922781D01*
X7164512Y15057988D01*
X7299719Y15220558D01*
X7302543Y15225601D01*
X7302546Y15225605D01*
X7400213Y15400002D01*
X7400214Y15400004D01*
X7403037Y15405045D01*
X7404893Y15410512D01*
X7404895Y15410517D01*
X7469147Y15599800D01*
X7471004Y15605270D01*
X7473776Y15624384D01*
X7500814Y15810860D01*
X7500814Y15810862D01*
X7501346Y15814530D01*
X7502929Y15875000D01*
X7483581Y16085560D01*
X7426186Y16289069D01*
X7423631Y16294251D01*
X7423629Y16294256D01*
X7366761Y16409572D01*
X7354571Y16479514D01*
X7382130Y16544943D01*
X7440688Y16585087D01*
X7479767Y16591300D01*
X17506675Y16591300D01*
X17574796Y16571298D01*
G37*
G04 #@! TD.AperFunction*
G04 #@! TA.AperFunction,Conductor*
G36*
X40958886Y34242198D02*
G01*
X40979860Y34225295D01*
X41823677Y33381478D01*
X41833532Y33370388D01*
X41847370Y33352834D01*
X41847374Y33352830D01*
X41853204Y33345435D01*
X41860951Y33340081D01*
X41860953Y33340079D01*
X41898838Y33313896D01*
X41902050Y33311601D01*
X41946678Y33278638D01*
X41953129Y33276372D01*
X41958757Y33272483D01*
X42011714Y33255735D01*
X42015360Y33254519D01*
X42062992Y33237792D01*
X42120635Y33196351D01*
X42135666Y33171662D01*
X42140680Y33160787D01*
X42165733Y33106443D01*
X42176869Y33082286D01*
X42298905Y32909609D01*
X42450365Y32762063D01*
X42455161Y32758858D01*
X42455164Y32758856D01*
X42540083Y32702115D01*
X42626177Y32644589D01*
X42631485Y32642308D01*
X42631486Y32642308D01*
X42815150Y32563400D01*
X42815153Y32563399D01*
X42820453Y32561122D01*
X42826082Y32559848D01*
X42826083Y32559848D01*
X43021050Y32515731D01*
X43021053Y32515731D01*
X43026686Y32514456D01*
X43032458Y32514229D01*
X43038187Y32513475D01*
X43037827Y32510743D01*
X43094104Y32491784D01*
X43138450Y32436341D01*
X43145782Y32365724D01*
X43113771Y32302353D01*
X43052581Y32266349D01*
X43043204Y32264368D01*
X42884150Y32237038D01*
X42884149Y32237038D01*
X42878453Y32236059D01*
X42680075Y32162873D01*
X42675114Y32159921D01*
X42675113Y32159921D01*
X42540077Y32079583D01*
X42498356Y32054762D01*
X42339381Y31915345D01*
X42208476Y31749292D01*
X42205787Y31744181D01*
X42205785Y31744178D01*
X42194821Y31723338D01*
X42110023Y31562164D01*
X42047320Y31360227D01*
X42022467Y31150246D01*
X42036296Y30939251D01*
X42088345Y30734310D01*
X42090762Y30729067D01*
X42174451Y30547531D01*
X42176869Y30542286D01*
X42298905Y30369609D01*
X42311917Y30356933D01*
X42379802Y30290803D01*
X42450365Y30222063D01*
X42455161Y30218858D01*
X42455164Y30218856D01*
X42536520Y30164496D01*
X42626177Y30104589D01*
X42631485Y30102308D01*
X42631486Y30102308D01*
X42673057Y30084448D01*
X42735397Y30057665D01*
X42773846Y30041146D01*
X42828540Y29995878D01*
X42850077Y29928227D01*
X42831620Y29859671D01*
X42825473Y29850537D01*
X42796138Y29810821D01*
X42793873Y29804371D01*
X42789983Y29798743D01*
X42787145Y29789768D01*
X42787142Y29789763D01*
X42773256Y29745854D01*
X42772003Y29742098D01*
X42757230Y29700031D01*
X42715787Y29642386D01*
X42690303Y29628210D01*
X42690709Y29627360D01*
X42685491Y29624871D01*
X42680075Y29622873D01*
X42675114Y29619921D01*
X42675113Y29619921D01*
X42540077Y29539583D01*
X42498356Y29514762D01*
X42339381Y29375345D01*
X42208476Y29209292D01*
X42205787Y29204181D01*
X42205785Y29204178D01*
X42194539Y29182803D01*
X42110023Y29022164D01*
X42047320Y28820227D01*
X42022467Y28610246D01*
X42036296Y28399251D01*
X42037717Y28393655D01*
X42037718Y28393650D01*
X42079561Y28228896D01*
X42088345Y28194310D01*
X42090762Y28189067D01*
X42127192Y28110045D01*
X42176869Y28002286D01*
X42298905Y27829609D01*
X42321263Y27807829D01*
X42437310Y27694781D01*
X42450365Y27682063D01*
X42455161Y27678858D01*
X42455164Y27678856D01*
X42598436Y27583125D01*
X42626177Y27564589D01*
X42631485Y27562308D01*
X42631486Y27562308D01*
X42748440Y27512061D01*
X42803134Y27466793D01*
X42824671Y27399142D01*
X42806214Y27330586D01*
X42753623Y27282892D01*
X42738818Y27277380D01*
X42738913Y27277119D01*
X42723447Y27271490D01*
X42525989Y27179414D01*
X42516493Y27173931D01*
X42338033Y27048972D01*
X42329625Y27041916D01*
X42175584Y26887875D01*
X42168528Y26879467D01*
X42043569Y26701007D01*
X42038086Y26691511D01*
X41946010Y26494053D01*
X41942264Y26483761D01*
X41896106Y26311497D01*
X41896442Y26297401D01*
X41904384Y26294000D01*
X43305500Y26294000D01*
X43373621Y26273998D01*
X43420114Y26220342D01*
X43431500Y26168000D01*
X43431500Y25912000D01*
X43411498Y25843879D01*
X43357842Y25797386D01*
X43305500Y25786000D01*
X41909533Y25786000D01*
X41896002Y25782027D01*
X41894773Y25773478D01*
X41942264Y25596239D01*
X41946010Y25585947D01*
X42038086Y25388489D01*
X42043569Y25378993D01*
X42168528Y25200533D01*
X42175584Y25192125D01*
X42329625Y25038084D01*
X42338033Y25031028D01*
X42398635Y24988594D01*
X42442963Y24933137D01*
X42450272Y24862517D01*
X42426063Y24809573D01*
X42423068Y24806805D01*
X42419530Y24800714D01*
X42414570Y24795176D01*
X41870378Y24250984D01*
X41859288Y24241129D01*
X41841734Y24227291D01*
X41841730Y24227287D01*
X41834335Y24221457D01*
X41802743Y24175746D01*
X41800510Y24172623D01*
X41767538Y24127982D01*
X41765273Y24121532D01*
X41761383Y24115904D01*
X41758545Y24106929D01*
X41758542Y24106924D01*
X41744656Y24063015D01*
X41743408Y24059274D01*
X41737988Y24043841D01*
X41728143Y24015806D01*
X41728142Y24015803D01*
X41725023Y24006920D01*
X41724754Y24000084D01*
X41722693Y23993566D01*
X41722200Y23987302D01*
X41722200Y23937541D01*
X41722103Y23932595D01*
X41719986Y23878709D01*
X41721792Y23871898D01*
X41722200Y23864483D01*
X41722200Y21168835D01*
X41702198Y21100714D01*
X41685295Y21079740D01*
X41368660Y20763105D01*
X41306348Y20729079D01*
X41279565Y20726200D01*
X34964207Y20726200D01*
X34949399Y20727073D01*
X34917842Y20730808D01*
X34908578Y20729116D01*
X34908577Y20729116D01*
X34863261Y20720840D01*
X34859358Y20720190D01*
X34813823Y20713344D01*
X34813822Y20713344D01*
X34804512Y20711944D01*
X34798348Y20708984D01*
X34791619Y20707755D01*
X34742381Y20682178D01*
X34738865Y20680421D01*
X34697337Y20660480D01*
X34697333Y20660478D01*
X34688846Y20656402D01*
X34683824Y20651759D01*
X34677755Y20648607D01*
X34672978Y20644526D01*
X34637815Y20609363D01*
X34634250Y20605934D01*
X34594625Y20569305D01*
X34591086Y20563212D01*
X34586122Y20557670D01*
X33020878Y18992427D01*
X33009788Y18982572D01*
X32992234Y18968734D01*
X32992230Y18968730D01*
X32984835Y18962900D01*
X32953243Y18917189D01*
X32951010Y18914066D01*
X32918038Y18869425D01*
X32915773Y18862975D01*
X32911883Y18857347D01*
X32909045Y18848372D01*
X32909042Y18848367D01*
X32895156Y18804458D01*
X32893903Y18800701D01*
X32878643Y18757249D01*
X32878642Y18757246D01*
X32875523Y18748363D01*
X32875254Y18741527D01*
X32873193Y18735009D01*
X32872700Y18728745D01*
X32872700Y18678984D01*
X32872603Y18674038D01*
X32870486Y18620152D01*
X32872292Y18613341D01*
X32872700Y18605926D01*
X32872700Y13081335D01*
X32852698Y13013214D01*
X32835795Y12992240D01*
X32372160Y12528605D01*
X32309848Y12494579D01*
X32283065Y12491700D01*
X29181536Y12491700D01*
X29113415Y12511702D01*
X29066922Y12565358D01*
X29056818Y12635632D01*
X29072417Y12680701D01*
X29076914Y12688489D01*
X29168990Y12885947D01*
X29172736Y12896239D01*
X29218894Y13068503D01*
X29218558Y13082599D01*
X29210616Y13086000D01*
X26669533Y13086000D01*
X26656002Y13082027D01*
X26654773Y13073478D01*
X26702264Y12896239D01*
X26706010Y12885947D01*
X26798086Y12688489D01*
X26802583Y12680701D01*
X26819321Y12611705D01*
X26796101Y12544613D01*
X26740294Y12500726D01*
X26693464Y12491700D01*
X26009935Y12491700D01*
X25941814Y12511702D01*
X25920840Y12528605D01*
X25674705Y12774740D01*
X25640679Y12837052D01*
X25637800Y12863835D01*
X25637800Y13753960D01*
X25638673Y13768771D01*
X25642408Y13800325D01*
X25632436Y13854926D01*
X25631787Y13858824D01*
X25631264Y13862307D01*
X25623544Y13913655D01*
X25620584Y13919820D01*
X25619355Y13926547D01*
X25593797Y13975749D01*
X25592030Y13979286D01*
X25572081Y14020829D01*
X25572077Y14020835D01*
X25568002Y14029321D01*
X25563358Y14034345D01*
X25560207Y14040411D01*
X25556127Y14045189D01*
X25520951Y14080365D01*
X25517521Y14083931D01*
X25487297Y14116627D01*
X25487298Y14116627D01*
X25480905Y14123542D01*
X25474813Y14127081D01*
X25469276Y14132040D01*
X24858193Y14743123D01*
X24824167Y14805435D01*
X24829232Y14876250D01*
X24866718Y14929092D01*
X24980585Y15023795D01*
X24980586Y15023796D01*
X24985018Y15027482D01*
X25065798Y15124609D01*
X25122408Y15192674D01*
X25122410Y15192677D01*
X25126102Y15197116D01*
X25191106Y15313188D01*
X25231086Y15384578D01*
X25231087Y15384580D01*
X25233910Y15389621D01*
X25235766Y15395088D01*
X25235768Y15395093D01*
X25302975Y15593079D01*
X25302976Y15593084D01*
X25304831Y15598548D01*
X25305659Y15604257D01*
X25305660Y15604262D01*
X25335958Y15813228D01*
X25336491Y15816902D01*
X25338143Y15880000D01*
X25317954Y16099711D01*
X25313712Y16114754D01*
X25266120Y16283504D01*
X25258065Y16312064D01*
X25160480Y16509947D01*
X25101881Y16588421D01*
X25031920Y16682109D01*
X25031920Y16682110D01*
X25028467Y16686733D01*
X24919195Y16787743D01*
X24870689Y16832582D01*
X24870686Y16832584D01*
X24866449Y16836501D01*
X24679850Y16954236D01*
X24477455Y17034983D01*
X24421596Y17078804D01*
X24398295Y17145868D01*
X24414951Y17214883D01*
X24466275Y17263937D01*
X24483644Y17271326D01*
X24617407Y17316732D01*
X24617412Y17316734D01*
X24622879Y17318590D01*
X24631408Y17323366D01*
X24782173Y17407799D01*
X24815384Y17426398D01*
X24852094Y17456929D01*
X24980586Y17563796D01*
X24985018Y17567482D01*
X25056982Y17654009D01*
X25122408Y17732674D01*
X25122410Y17732677D01*
X25126102Y17737116D01*
X25199711Y17868554D01*
X25231086Y17924578D01*
X25231087Y17924580D01*
X25233910Y17929621D01*
X25235766Y17935088D01*
X25235768Y17935093D01*
X25302975Y18133079D01*
X25302976Y18133084D01*
X25304831Y18138548D01*
X25305659Y18144257D01*
X25305660Y18144262D01*
X25324846Y18276587D01*
X25336491Y18356902D01*
X25338143Y18420000D01*
X25317954Y18639711D01*
X25313712Y18654754D01*
X25266118Y18823510D01*
X25258065Y18852064D01*
X25160480Y19049947D01*
X25125820Y19096363D01*
X25031920Y19222109D01*
X25031920Y19222110D01*
X25028467Y19226733D01*
X24917880Y19328959D01*
X24870689Y19372582D01*
X24870686Y19372584D01*
X24866449Y19376501D01*
X24679850Y19494236D01*
X24477455Y19574983D01*
X24421596Y19618804D01*
X24398295Y19685868D01*
X24414951Y19754883D01*
X24466275Y19803937D01*
X24483644Y19811326D01*
X24617407Y19856732D01*
X24617412Y19856734D01*
X24622879Y19858590D01*
X24815384Y19966398D01*
X24855731Y19999954D01*
X24980586Y20103796D01*
X24985018Y20107482D01*
X25038908Y20172277D01*
X25122408Y20272674D01*
X25122410Y20272677D01*
X25126102Y20277116D01*
X25199238Y20407709D01*
X25231086Y20464578D01*
X25231087Y20464580D01*
X25233910Y20469621D01*
X25235766Y20475088D01*
X25235768Y20475093D01*
X25302975Y20673079D01*
X25302976Y20673084D01*
X25304831Y20678548D01*
X25305659Y20684257D01*
X25305660Y20684262D01*
X25335958Y20893228D01*
X25336491Y20896902D01*
X25338143Y20960000D01*
X25317954Y21179711D01*
X25258065Y21392064D01*
X25160480Y21589947D01*
X25053558Y21733133D01*
X25031920Y21762109D01*
X25031920Y21762110D01*
X25028467Y21766733D01*
X24919195Y21867743D01*
X24870689Y21912582D01*
X24870686Y21912584D01*
X24866449Y21916501D01*
X24681202Y22033383D01*
X24681200Y22033385D01*
X24679850Y22034236D01*
X24680017Y22034501D01*
X24630571Y22081198D01*
X24613502Y22150112D01*
X24636401Y22217314D01*
X24683954Y22257871D01*
X24825595Y22327261D01*
X24834445Y22332536D01*
X25007828Y22456208D01*
X25015700Y22462861D01*
X25166552Y22613188D01*
X25173230Y22621035D01*
X25297503Y22793980D01*
X25302813Y22802817D01*
X25397170Y22993733D01*
X25400969Y23003328D01*
X25462876Y23207085D01*
X25465055Y23217165D01*
X25474603Y23289687D01*
X25503326Y23354614D01*
X25562591Y23393705D01*
X25633583Y23394550D01*
X25688620Y23362335D01*
X26444995Y22605960D01*
X26479021Y22543648D01*
X26481900Y22516865D01*
X26481900Y20510610D01*
X26481027Y20495802D01*
X26477292Y20464245D01*
X26478984Y20454983D01*
X26478984Y20454974D01*
X26487263Y20409648D01*
X26487914Y20405740D01*
X26496156Y20350916D01*
X26499116Y20344752D01*
X26500345Y20338023D01*
X26525922Y20288785D01*
X26527679Y20285269D01*
X26547620Y20243741D01*
X26547622Y20243737D01*
X26551698Y20235250D01*
X26556341Y20230228D01*
X26559493Y20224159D01*
X26563574Y20219381D01*
X26598749Y20184206D01*
X26602178Y20180641D01*
X26638795Y20141029D01*
X26644887Y20137490D01*
X26650424Y20132531D01*
X27253714Y19529241D01*
X27287740Y19466929D01*
X27282675Y19396114D01*
X27247698Y19345415D01*
X27099381Y19215345D01*
X26968476Y19049292D01*
X26965787Y19044181D01*
X26965785Y19044178D01*
X26943153Y19001161D01*
X26870023Y18862164D01*
X26807320Y18660227D01*
X26782467Y18450246D01*
X26796296Y18239251D01*
X26797717Y18233655D01*
X26797718Y18233650D01*
X26834519Y18088749D01*
X26848345Y18034310D01*
X26850762Y18029067D01*
X26896033Y17930866D01*
X26936869Y17842286D01*
X27058905Y17669609D01*
X27210365Y17522063D01*
X27215161Y17518858D01*
X27215164Y17518856D01*
X27306016Y17458151D01*
X27386177Y17404589D01*
X27391485Y17402308D01*
X27391486Y17402308D01*
X27575150Y17323400D01*
X27575153Y17323399D01*
X27580453Y17321122D01*
X27586082Y17319848D01*
X27586083Y17319848D01*
X27781050Y17275731D01*
X27781053Y17275731D01*
X27786686Y17274456D01*
X27792458Y17274229D01*
X27798187Y17273475D01*
X27797827Y17270743D01*
X27854104Y17251784D01*
X27898450Y17196341D01*
X27905782Y17125724D01*
X27873771Y17062353D01*
X27812581Y17026349D01*
X27803204Y17024368D01*
X27644150Y16997038D01*
X27644149Y16997038D01*
X27638453Y16996059D01*
X27440075Y16922873D01*
X27435114Y16919921D01*
X27435113Y16919921D01*
X27300077Y16839583D01*
X27258356Y16814762D01*
X27099381Y16675345D01*
X26968476Y16509292D01*
X26965787Y16504181D01*
X26965785Y16504178D01*
X26949710Y16473624D01*
X26870023Y16322164D01*
X26807320Y16120227D01*
X26782467Y15910246D01*
X26796296Y15699251D01*
X26797717Y15693655D01*
X26797718Y15693650D01*
X26823262Y15593073D01*
X26848345Y15494310D01*
X26850762Y15489067D01*
X26932937Y15310816D01*
X26936869Y15302286D01*
X27058905Y15129609D01*
X27210365Y14982063D01*
X27215161Y14978858D01*
X27215164Y14978856D01*
X27348009Y14890092D01*
X27386177Y14864589D01*
X27391485Y14862308D01*
X27391486Y14862308D01*
X27508440Y14812061D01*
X27563134Y14766793D01*
X27584671Y14699142D01*
X27566214Y14630586D01*
X27513623Y14582892D01*
X27498818Y14577380D01*
X27498913Y14577119D01*
X27483447Y14571490D01*
X27285989Y14479414D01*
X27276493Y14473931D01*
X27098033Y14348972D01*
X27089625Y14341916D01*
X26935584Y14187875D01*
X26928528Y14179467D01*
X26803569Y14001007D01*
X26798086Y13991511D01*
X26706010Y13794053D01*
X26702264Y13783761D01*
X26656106Y13611497D01*
X26656442Y13597401D01*
X26664384Y13594000D01*
X29205467Y13594000D01*
X29218998Y13597973D01*
X29220227Y13606522D01*
X29172736Y13783761D01*
X29168990Y13794053D01*
X29076914Y13991511D01*
X29071431Y14001007D01*
X28946472Y14179467D01*
X28939416Y14187875D01*
X28785375Y14341916D01*
X28776967Y14348972D01*
X28598507Y14473931D01*
X28589011Y14479414D01*
X28391550Y14571491D01*
X28376283Y14577048D01*
X28319111Y14619142D01*
X28293773Y14685463D01*
X28308314Y14754955D01*
X28358116Y14805554D01*
X28378868Y14814759D01*
X28407455Y14824463D01*
X28412498Y14827287D01*
X28586895Y14924954D01*
X28586899Y14924957D01*
X28591942Y14927781D01*
X28754512Y15062988D01*
X28889719Y15225558D01*
X28892543Y15230601D01*
X28892546Y15230605D01*
X28990213Y15405002D01*
X28990214Y15405004D01*
X28993037Y15410045D01*
X28994893Y15415512D01*
X28994895Y15415517D01*
X29057450Y15599800D01*
X29061004Y15610270D01*
X29063051Y15624384D01*
X29090814Y15815860D01*
X29090814Y15815862D01*
X29091346Y15819530D01*
X29092929Y15880000D01*
X29073581Y16090560D01*
X29016186Y16294069D01*
X29008685Y16309281D01*
X28925219Y16478531D01*
X28922665Y16483710D01*
X28796151Y16653133D01*
X28640881Y16796663D01*
X28635998Y16799744D01*
X28466934Y16906416D01*
X28466933Y16906416D01*
X28462054Y16909495D01*
X28265660Y16987848D01*
X28260003Y16988973D01*
X28259997Y16988975D01*
X28062734Y17028212D01*
X27999824Y17061119D01*
X27964692Y17122814D01*
X27968492Y17193709D01*
X28010017Y17251295D01*
X28069234Y17276487D01*
X28201515Y17295667D01*
X28201519Y17295668D01*
X28207230Y17296496D01*
X28294400Y17326086D01*
X28401983Y17362605D01*
X28401988Y17362607D01*
X28407455Y17364463D01*
X28412498Y17367287D01*
X28586895Y17464954D01*
X28586899Y17464957D01*
X28591942Y17467781D01*
X28754512Y17602988D01*
X28889719Y17765558D01*
X28892543Y17770601D01*
X28892546Y17770605D01*
X28990213Y17945002D01*
X28990214Y17945004D01*
X28993037Y17950045D01*
X28994893Y17955512D01*
X28994895Y17955517D01*
X29057450Y18139800D01*
X29061004Y18150270D01*
X29062656Y18161658D01*
X29090814Y18355860D01*
X29090814Y18355862D01*
X29091346Y18359530D01*
X29092929Y18420000D01*
X29073581Y18630560D01*
X29016186Y18834069D01*
X29005059Y18856634D01*
X28925219Y19018531D01*
X28922665Y19023710D01*
X28796151Y19193133D01*
X28640881Y19336663D01*
X28529146Y19407163D01*
X28466934Y19446416D01*
X28466933Y19446416D01*
X28462054Y19449495D01*
X28430147Y19462225D01*
X28374289Y19506045D01*
X28352240Y19560519D01*
X28351345Y19566470D01*
X28351344Y19566474D01*
X28349944Y19575784D01*
X28346984Y19581949D01*
X28345755Y19588677D01*
X28320178Y19637915D01*
X28318421Y19641431D01*
X28298480Y19682959D01*
X28298478Y19682963D01*
X28294402Y19691450D01*
X28289759Y19696472D01*
X28289625Y19696729D01*
X28289322Y19697684D01*
X28287840Y19700168D01*
X28286612Y19702532D01*
X28287617Y19703054D01*
X28268221Y19764150D01*
X28286732Y19832691D01*
X28339361Y19880343D01*
X28353689Y19886212D01*
X28407455Y19904463D01*
X28412498Y19907287D01*
X28586895Y20004954D01*
X28586899Y20004957D01*
X28591942Y20007781D01*
X28754512Y20142988D01*
X28889719Y20305558D01*
X28892543Y20310601D01*
X28892546Y20310605D01*
X28990213Y20485002D01*
X28990214Y20485004D01*
X28993037Y20490045D01*
X28994893Y20495512D01*
X28994895Y20495517D01*
X29051720Y20662920D01*
X29061004Y20690270D01*
X29063051Y20704384D01*
X29090814Y20895860D01*
X29090814Y20895862D01*
X29091346Y20899530D01*
X29092929Y20960000D01*
X29073581Y21170560D01*
X29016186Y21374069D01*
X28994224Y21418605D01*
X28925219Y21558531D01*
X28922665Y21563710D01*
X28796151Y21733133D01*
X28640881Y21876663D01*
X28635994Y21879746D01*
X28634436Y21880942D01*
X28592569Y21938280D01*
X28588347Y22009151D01*
X28622045Y22070000D01*
X29260722Y22708677D01*
X29271812Y22718532D01*
X29289367Y22732371D01*
X29289370Y22732375D01*
X29296765Y22738204D01*
X29302119Y22745951D01*
X29302123Y22745955D01*
X29328315Y22783851D01*
X29330615Y22787071D01*
X29357968Y22824104D01*
X29363563Y22831679D01*
X29365829Y22838131D01*
X29369717Y22843757D01*
X29386448Y22896661D01*
X29387702Y22900419D01*
X29391970Y22912570D01*
X29406077Y22952741D01*
X29406346Y22959577D01*
X29408407Y22966095D01*
X29408900Y22972359D01*
X29408900Y23022120D01*
X29408997Y23027066D01*
X29409891Y23049829D01*
X29411114Y23080952D01*
X29409308Y23087763D01*
X29408900Y23095178D01*
X29408900Y23877589D01*
X29409773Y23892400D01*
X29413508Y23923954D01*
X29403536Y23978555D01*
X29402887Y23982453D01*
X29400237Y24000084D01*
X29394644Y24037284D01*
X29391684Y24043449D01*
X29390455Y24050176D01*
X29364897Y24099378D01*
X29363130Y24102915D01*
X29343181Y24144458D01*
X29343177Y24144464D01*
X29339102Y24152950D01*
X29334458Y24157974D01*
X29331307Y24164040D01*
X29327227Y24168818D01*
X29292045Y24204000D01*
X29288615Y24207567D01*
X29258400Y24240254D01*
X29258396Y24240257D01*
X29252005Y24247171D01*
X29245913Y24250710D01*
X29240376Y24255669D01*
X28589321Y24906724D01*
X28555295Y24969036D01*
X28560360Y25039851D01*
X28597844Y25092689D01*
X28754512Y25222988D01*
X28889719Y25385558D01*
X28892543Y25390601D01*
X28892546Y25390605D01*
X28990213Y25565002D01*
X28990214Y25565004D01*
X28993037Y25570045D01*
X28994893Y25575512D01*
X28994895Y25575517D01*
X29059147Y25764800D01*
X29061004Y25770270D01*
X29081555Y25912000D01*
X29090814Y25975860D01*
X29090814Y25975862D01*
X29091346Y25979530D01*
X29092929Y26040000D01*
X29073581Y26250560D01*
X29016186Y26454069D01*
X29001544Y26483761D01*
X28925219Y26638531D01*
X28922665Y26643710D01*
X28796151Y26813133D01*
X28640881Y26956663D01*
X28626159Y26965952D01*
X28466934Y27066416D01*
X28466933Y27066416D01*
X28462054Y27069495D01*
X28265660Y27147848D01*
X28260003Y27148973D01*
X28259997Y27148975D01*
X28071814Y27186406D01*
X28062734Y27188212D01*
X27999824Y27221119D01*
X27964692Y27282814D01*
X27968492Y27353709D01*
X28010017Y27411295D01*
X28069234Y27436487D01*
X28201515Y27455667D01*
X28201519Y27455668D01*
X28207230Y27456496D01*
X28321187Y27495179D01*
X28401983Y27522605D01*
X28401988Y27522607D01*
X28407455Y27524463D01*
X28412498Y27527287D01*
X28586895Y27624954D01*
X28586899Y27624957D01*
X28591942Y27627781D01*
X28754512Y27762988D01*
X28889719Y27925558D01*
X28892543Y27930601D01*
X28892546Y27930605D01*
X28990213Y28105002D01*
X28990214Y28105004D01*
X28993037Y28110045D01*
X28994893Y28115512D01*
X28994895Y28115517D01*
X29059147Y28304800D01*
X29061004Y28310270D01*
X29091346Y28519530D01*
X29092929Y28580000D01*
X29073581Y28790560D01*
X29016186Y28994069D01*
X29011229Y29004122D01*
X28925219Y29178531D01*
X28922665Y29183710D01*
X28796151Y29353133D01*
X28640881Y29496663D01*
X28462054Y29609495D01*
X28265660Y29687848D01*
X28260003Y29688973D01*
X28259997Y29688975D01*
X28062734Y29728212D01*
X27999824Y29761119D01*
X27964692Y29822814D01*
X27968492Y29893709D01*
X28010017Y29951295D01*
X28069234Y29976487D01*
X28201515Y29995667D01*
X28201519Y29995668D01*
X28207230Y29996496D01*
X28286487Y30023400D01*
X28401983Y30062605D01*
X28401988Y30062607D01*
X28407455Y30064463D01*
X28412498Y30067287D01*
X28586895Y30164954D01*
X28586899Y30164957D01*
X28591942Y30167781D01*
X28754512Y30302988D01*
X28889719Y30465558D01*
X28892543Y30470601D01*
X28892546Y30470605D01*
X28990213Y30645002D01*
X28990214Y30645004D01*
X28993037Y30650045D01*
X28995337Y30656821D01*
X28995713Y30657356D01*
X28997244Y30660794D01*
X28997919Y30660493D01*
X29036176Y30714896D01*
X29101929Y30741672D01*
X29171721Y30728649D01*
X29203744Y30705411D01*
X29762395Y30146760D01*
X29796421Y30084448D01*
X29799300Y30057665D01*
X29799300Y23958862D01*
X29798427Y23944054D01*
X29794692Y23912497D01*
X29796384Y23903235D01*
X29796384Y23903226D01*
X29804663Y23857900D01*
X29805314Y23853992D01*
X29813556Y23799168D01*
X29816516Y23793004D01*
X29817745Y23786275D01*
X29843322Y23737037D01*
X29845079Y23733521D01*
X29865020Y23691993D01*
X29865022Y23691989D01*
X29869098Y23683502D01*
X29873741Y23678480D01*
X29876893Y23672411D01*
X29880974Y23667633D01*
X29916149Y23632458D01*
X29919578Y23628893D01*
X29956195Y23589281D01*
X29962287Y23585742D01*
X29967824Y23580783D01*
X30778395Y22770212D01*
X30812421Y22707900D01*
X30815300Y22681117D01*
X30815300Y14856946D01*
X30795298Y14788825D01*
X30772129Y14761997D01*
X30758887Y14750446D01*
X30758884Y14750442D01*
X30753162Y14745451D01*
X30729157Y14711295D01*
X30668585Y14625110D01*
X30662282Y14616142D01*
X30604870Y14468887D01*
X30601726Y14445007D01*
X30588154Y14341916D01*
X30584240Y14312188D01*
X30592912Y14233640D01*
X30599528Y14173717D01*
X30601584Y14155092D01*
X30604194Y14147961D01*
X30604194Y14147959D01*
X30617335Y14112049D01*
X30655899Y14006667D01*
X30660136Y14000361D01*
X30660138Y14000358D01*
X30695095Y13948338D01*
X30744052Y13875483D01*
X30860951Y13769112D01*
X30867624Y13765489D01*
X30867628Y13765486D01*
X30963759Y13713292D01*
X30999849Y13693697D01*
X31152727Y13653590D01*
X31236077Y13652280D01*
X31303161Y13651226D01*
X31303164Y13651226D01*
X31310758Y13651107D01*
X31464820Y13686392D01*
X31606019Y13757408D01*
X31726202Y13860054D01*
X31739435Y13878469D01*
X31813994Y13982229D01*
X31813995Y13982230D01*
X31818431Y13988404D01*
X31877382Y14135050D01*
X31899652Y14291524D01*
X31899796Y14305300D01*
X31898963Y14312188D01*
X31886259Y14417159D01*
X31880808Y14462206D01*
X31824941Y14610054D01*
X31790363Y14660365D01*
X31739722Y14734049D01*
X31739721Y14734051D01*
X31735420Y14740308D01*
X31729748Y14745361D01*
X31729746Y14745364D01*
X31710880Y14762174D01*
X31673325Y14822425D01*
X31668700Y14856249D01*
X31668700Y22877242D01*
X31669573Y22892053D01*
X31673308Y22923607D01*
X31671616Y22932869D01*
X31671616Y22932878D01*
X31663337Y22978204D01*
X31662686Y22982112D01*
X31659496Y23003328D01*
X31654444Y23036936D01*
X31651484Y23043100D01*
X31650255Y23049829D01*
X31624678Y23099067D01*
X31622921Y23102583D01*
X31602980Y23144111D01*
X31602978Y23144115D01*
X31598902Y23152602D01*
X31594259Y23157624D01*
X31591107Y23163693D01*
X31587026Y23168471D01*
X31551851Y23203646D01*
X31548421Y23207212D01*
X31518197Y23239908D01*
X31518198Y23239908D01*
X31511805Y23246823D01*
X31505713Y23250362D01*
X31500176Y23255321D01*
X30689605Y24065892D01*
X30655579Y24128204D01*
X30652700Y24154987D01*
X30652700Y30253798D01*
X30653573Y30268608D01*
X30656200Y30290803D01*
X30657307Y30300155D01*
X30655615Y30309422D01*
X30647342Y30354722D01*
X30646692Y30358625D01*
X30639844Y30404175D01*
X30639843Y30404178D01*
X30638444Y30413484D01*
X30635484Y30419649D01*
X30634255Y30426377D01*
X30608678Y30475615D01*
X30606921Y30479131D01*
X30586980Y30520659D01*
X30586978Y30520663D01*
X30582902Y30529150D01*
X30578259Y30534172D01*
X30575107Y30540241D01*
X30571026Y30545019D01*
X30535851Y30580194D01*
X30532421Y30583760D01*
X30502197Y30616456D01*
X30502198Y30616456D01*
X30495805Y30623371D01*
X30489713Y30626910D01*
X30484176Y30631869D01*
X28589321Y32526724D01*
X28555295Y32589036D01*
X28560360Y32659851D01*
X28597844Y32712689D01*
X28754512Y32842988D01*
X28889719Y33005558D01*
X28892543Y33010601D01*
X28892546Y33010605D01*
X28990213Y33185002D01*
X28990214Y33185004D01*
X28993037Y33190045D01*
X28994893Y33195512D01*
X28994895Y33195517D01*
X29041673Y33333324D01*
X29061004Y33390270D01*
X29062079Y33397679D01*
X29090814Y33595860D01*
X29090814Y33595862D01*
X29091346Y33599530D01*
X29092929Y33660000D01*
X29073581Y33870560D01*
X29071727Y33877136D01*
X29027046Y34035562D01*
X29016186Y34074069D01*
X29013031Y34080467D01*
X29012920Y34081101D01*
X29011560Y34084645D01*
X29012256Y34084912D01*
X29000838Y34150408D01*
X29028393Y34215839D01*
X29086949Y34255985D01*
X29126034Y34262200D01*
X40890765Y34262200D01*
X40958886Y34242198D01*
G37*
G04 #@! TD.AperFunction*
G04 #@! TA.AperFunction,Conductor*
G36*
X18571686Y18984298D02*
G01*
X18592660Y18967395D01*
X19485695Y18074360D01*
X19519721Y18012048D01*
X19522600Y17985265D01*
X19522600Y17797158D01*
X19502598Y17729037D01*
X19448942Y17682544D01*
X19395941Y17671160D01*
X19343095Y17671437D01*
X19335708Y17669663D01*
X19335704Y17669663D01*
X19219288Y17641713D01*
X19189411Y17634540D01*
X19182667Y17631059D01*
X19182664Y17631058D01*
X19090155Y17583310D01*
X19020448Y17569841D01*
X18954524Y17596196D01*
X18913315Y17654009D01*
X18907278Y17680138D01*
X18905120Y17697966D01*
X18904208Y17705506D01*
X18848341Y17853354D01*
X18799390Y17924578D01*
X18763122Y17977349D01*
X18763121Y17977351D01*
X18758820Y17983608D01*
X18726900Y18012048D01*
X18646484Y18083697D01*
X18646480Y18083700D01*
X18640813Y18088749D01*
X18634105Y18092301D01*
X18634103Y18092302D01*
X18507842Y18159153D01*
X18507841Y18159154D01*
X18501133Y18162705D01*
X18347844Y18201209D01*
X18340246Y18201249D01*
X18340244Y18201249D01*
X18268819Y18201623D01*
X18189795Y18202037D01*
X18182408Y18200263D01*
X18182404Y18200263D01*
X18048473Y18168108D01*
X18036111Y18165140D01*
X18029367Y18161659D01*
X18029364Y18161658D01*
X17973982Y18133073D01*
X17895664Y18092650D01*
X17889942Y18087658D01*
X17889940Y18087657D01*
X17835201Y18039905D01*
X17776562Y17988751D01*
X17772195Y17982537D01*
X17709571Y17893432D01*
X17685682Y17859442D01*
X17682922Y17852362D01*
X17674098Y17829730D01*
X17630717Y17773528D01*
X17556705Y17749500D01*
X7508503Y17749500D01*
X7440382Y17769502D01*
X7393889Y17823158D01*
X7383785Y17893432D01*
X7398566Y17937062D01*
X7403037Y17945045D01*
X7404893Y17950512D01*
X7404895Y17950517D01*
X7469147Y18139800D01*
X7471004Y18145270D01*
X7473381Y18161658D01*
X7500814Y18350860D01*
X7500814Y18350862D01*
X7501346Y18354530D01*
X7502929Y18415000D01*
X7483581Y18625560D01*
X7454480Y18728745D01*
X7427754Y18823510D01*
X7427753Y18823512D01*
X7426186Y18829069D01*
X7424030Y18833440D01*
X7418317Y18903913D01*
X7451749Y18966546D01*
X7513735Y19001161D01*
X7541686Y19004300D01*
X18503565Y19004300D01*
X18571686Y18984298D01*
G37*
G04 #@! TD.AperFunction*
G04 #@! TA.AperFunction,Conductor*
G36*
X19892385Y29030098D02*
G01*
X19913359Y29013196D01*
X20095295Y28831261D01*
X20129320Y28768949D01*
X20132200Y28742165D01*
X20132200Y28181749D01*
X20131327Y28166941D01*
X20127592Y28135384D01*
X20129284Y28126122D01*
X20129284Y28126113D01*
X20137563Y28080787D01*
X20138214Y28076879D01*
X20146456Y28022055D01*
X20149416Y28015891D01*
X20150645Y28009162D01*
X20176222Y27959924D01*
X20177979Y27956408D01*
X20197920Y27914880D01*
X20197922Y27914876D01*
X20201998Y27906389D01*
X20206641Y27901367D01*
X20209793Y27895298D01*
X20213874Y27890520D01*
X20249048Y27855346D01*
X20252478Y27851780D01*
X20289095Y27812168D01*
X20295187Y27808629D01*
X20300719Y27803675D01*
X20836520Y27267875D01*
X20846375Y27256784D01*
X20866043Y27231835D01*
X20911749Y27200246D01*
X20914854Y27198027D01*
X20930589Y27186405D01*
X20973495Y27129842D01*
X20979009Y27059059D01*
X20945381Y26996532D01*
X20920146Y26976776D01*
X20908356Y26969762D01*
X20749381Y26830345D01*
X20618476Y26664292D01*
X20615787Y26659181D01*
X20615785Y26659178D01*
X20604922Y26638531D01*
X20520023Y26477164D01*
X20457320Y26275227D01*
X20432467Y26065246D01*
X20446296Y25854251D01*
X20447717Y25848655D01*
X20447718Y25848650D01*
X20470829Y25757653D01*
X20498345Y25649310D01*
X20500762Y25644067D01*
X20517251Y25608300D01*
X20586869Y25457286D01*
X20708905Y25284609D01*
X20741382Y25252971D01*
X20841269Y25155666D01*
X20860365Y25137063D01*
X20865161Y25133858D01*
X20865164Y25133856D01*
X20967884Y25065221D01*
X21036177Y25019589D01*
X21041485Y25017308D01*
X21041486Y25017308D01*
X21225150Y24938400D01*
X21225153Y24938399D01*
X21230453Y24936122D01*
X21236082Y24934848D01*
X21236083Y24934848D01*
X21431050Y24890731D01*
X21431053Y24890731D01*
X21436686Y24889456D01*
X21442458Y24889229D01*
X21448187Y24888475D01*
X21447827Y24885743D01*
X21504104Y24866784D01*
X21548450Y24811341D01*
X21555782Y24740724D01*
X21523771Y24677353D01*
X21462581Y24641349D01*
X21453204Y24639368D01*
X21294150Y24612038D01*
X21294149Y24612038D01*
X21288453Y24611059D01*
X21090075Y24537873D01*
X21085114Y24534921D01*
X21085113Y24534921D01*
X20950919Y24455084D01*
X20908356Y24429762D01*
X20749381Y24290345D01*
X20618476Y24124292D01*
X20615787Y24119181D01*
X20615785Y24119178D01*
X20567799Y24027972D01*
X20520023Y23937164D01*
X20457320Y23735227D01*
X20432467Y23525246D01*
X20446296Y23314251D01*
X20447717Y23308655D01*
X20447718Y23308650D01*
X20496924Y23114905D01*
X20498345Y23109310D01*
X20500762Y23104067D01*
X20560342Y22974828D01*
X20586869Y22917286D01*
X20708905Y22744609D01*
X20860365Y22597063D01*
X20865161Y22593858D01*
X20865164Y22593856D01*
X20986252Y22512948D01*
X21036177Y22479589D01*
X21041485Y22477308D01*
X21041486Y22477308D01*
X21225150Y22398400D01*
X21225153Y22398399D01*
X21230453Y22396122D01*
X21236082Y22394848D01*
X21236083Y22394848D01*
X21431050Y22350731D01*
X21431053Y22350731D01*
X21436686Y22349456D01*
X21442458Y22349229D01*
X21448187Y22348475D01*
X21447827Y22345743D01*
X21504104Y22326784D01*
X21548450Y22271341D01*
X21555782Y22200724D01*
X21523771Y22137353D01*
X21462581Y22101349D01*
X21453204Y22099368D01*
X21294150Y22072038D01*
X21294149Y22072038D01*
X21288453Y22071059D01*
X21090075Y21997873D01*
X21085114Y21994921D01*
X21085113Y21994921D01*
X20990009Y21938340D01*
X20908356Y21889762D01*
X20749381Y21750345D01*
X20618476Y21584292D01*
X20615787Y21579181D01*
X20615785Y21579178D01*
X20547312Y21449032D01*
X20497893Y21398060D01*
X20435804Y21381700D01*
X10515935Y21381700D01*
X10447814Y21401702D01*
X10426840Y21418605D01*
X10425405Y21420040D01*
X10391379Y21482352D01*
X10388500Y21509135D01*
X10388500Y24295390D01*
X10389373Y24310201D01*
X10391136Y24325098D01*
X10393108Y24341755D01*
X10391416Y24351017D01*
X10391416Y24351026D01*
X10383137Y24396352D01*
X10382486Y24400260D01*
X10380772Y24411663D01*
X10374244Y24455084D01*
X10371284Y24461248D01*
X10370055Y24467977D01*
X10344478Y24517215D01*
X10342721Y24520731D01*
X10322780Y24562259D01*
X10322778Y24562263D01*
X10318702Y24570750D01*
X10314059Y24575772D01*
X10310907Y24581841D01*
X10306826Y24586619D01*
X10271651Y24621794D01*
X10268221Y24625360D01*
X10254357Y24640358D01*
X10231605Y24664971D01*
X10225513Y24668510D01*
X10219976Y24673469D01*
X9480605Y25412840D01*
X9446579Y25475152D01*
X9443700Y25501935D01*
X9443700Y28844779D01*
X9444573Y28859590D01*
X9447201Y28881793D01*
X9448308Y28891144D01*
X9446616Y28900406D01*
X9446616Y28900415D01*
X9446424Y28901465D01*
X9446546Y28902626D01*
X9446320Y28909825D01*
X9447308Y28909856D01*
X9453863Y28972071D01*
X9498294Y29027446D01*
X9570374Y29050100D01*
X19824264Y29050100D01*
X19892385Y29030098D01*
G37*
G04 #@! TD.AperFunction*
G04 #@! TA.AperFunction,Conductor*
G36*
X22644949Y25292006D02*
G01*
X23234285Y24702670D01*
X23268311Y24640358D01*
X23263246Y24569543D01*
X23228843Y24519351D01*
X23224225Y24515251D01*
X23077090Y24361283D01*
X23070604Y24353273D01*
X22950598Y24177351D01*
X22945502Y24168381D01*
X22858913Y23981841D01*
X22812089Y23928475D01*
X22743845Y23908894D01*
X22675850Y23929318D01*
X22631619Y23979164D01*
X22575221Y24093527D01*
X22575219Y24093531D01*
X22572665Y24098710D01*
X22446151Y24268133D01*
X22308642Y24395245D01*
X22295122Y24407743D01*
X22295117Y24407747D01*
X22290881Y24411663D01*
X22112054Y24524495D01*
X21915660Y24602848D01*
X21910003Y24603973D01*
X21909997Y24603975D01*
X21712734Y24643212D01*
X21649824Y24676119D01*
X21614692Y24737814D01*
X21618492Y24808709D01*
X21660017Y24866295D01*
X21719234Y24891487D01*
X21851515Y24910667D01*
X21851519Y24910668D01*
X21857230Y24911496D01*
X21946627Y24941842D01*
X22051983Y24977605D01*
X22051988Y24977607D01*
X22057455Y24979463D01*
X22076347Y24990043D01*
X22236895Y25079954D01*
X22236899Y25079957D01*
X22241942Y25082781D01*
X22404512Y25217988D01*
X22458981Y25283480D01*
X22517916Y25323064D01*
X22588898Y25324501D01*
X22644949Y25292006D01*
G37*
G04 #@! TD.AperFunction*
G04 #@! TA.AperFunction,Conductor*
G36*
X7659850Y36224648D02*
G01*
X7699069Y36205143D01*
X7702602Y36202533D01*
X7702604Y36202532D01*
X7710179Y36196937D01*
X7716631Y36194671D01*
X7722257Y36190783D01*
X7731234Y36187944D01*
X7731236Y36187943D01*
X7775161Y36174052D01*
X7778891Y36172807D01*
X7831241Y36154423D01*
X7838077Y36154154D01*
X7844595Y36152093D01*
X7850859Y36151600D01*
X7900620Y36151600D01*
X7905566Y36151503D01*
X7959452Y36149386D01*
X7966263Y36151192D01*
X7973678Y36151600D01*
X19530713Y36151600D01*
X19598834Y36131598D01*
X19619808Y36114695D01*
X20095295Y35639208D01*
X20129321Y35576896D01*
X20132200Y35550113D01*
X20132200Y33261749D01*
X20131327Y33246941D01*
X20127592Y33215384D01*
X20129284Y33206122D01*
X20129284Y33206113D01*
X20137563Y33160787D01*
X20138214Y33156879D01*
X20146456Y33102055D01*
X20149416Y33095891D01*
X20150645Y33089162D01*
X20176222Y33039924D01*
X20177979Y33036408D01*
X20197920Y32994880D01*
X20197922Y32994876D01*
X20201998Y32986389D01*
X20206641Y32981367D01*
X20209793Y32975298D01*
X20213874Y32970520D01*
X20249048Y32935346D01*
X20252478Y32931780D01*
X20289095Y32892168D01*
X20295187Y32888629D01*
X20300719Y32883675D01*
X20836520Y32347875D01*
X20846375Y32336784D01*
X20854529Y32326440D01*
X20866043Y32311835D01*
X20911749Y32280246D01*
X20914854Y32278027D01*
X20930589Y32266405D01*
X20973495Y32209842D01*
X20979009Y32139059D01*
X20945381Y32076532D01*
X20920146Y32056776D01*
X20908356Y32049762D01*
X20749381Y31910345D01*
X20618476Y31744292D01*
X20615787Y31739181D01*
X20615785Y31739178D01*
X20602292Y31713531D01*
X20520023Y31557164D01*
X20457320Y31355227D01*
X20432467Y31145246D01*
X20446296Y30934251D01*
X20498345Y30729310D01*
X20515614Y30691850D01*
X20525969Y30621614D01*
X20496707Y30556928D01*
X20437118Y30518332D01*
X20401188Y30513100D01*
X9358639Y30513100D01*
X9290518Y30533102D01*
X9269544Y30550005D01*
X8449305Y31370244D01*
X8415279Y31432556D01*
X8412400Y31459339D01*
X8412400Y33869702D01*
X8413273Y33884513D01*
X8415901Y33906716D01*
X8417008Y33916067D01*
X8407036Y33970668D01*
X8406387Y33974566D01*
X8399544Y34020085D01*
X8398144Y34029397D01*
X8395184Y34035562D01*
X8393955Y34042289D01*
X8368397Y34091491D01*
X8366630Y34095028D01*
X8346681Y34136571D01*
X8346677Y34136577D01*
X8342602Y34145063D01*
X8337958Y34150087D01*
X8334807Y34156153D01*
X8330727Y34160931D01*
X8295551Y34196107D01*
X8292121Y34199673D01*
X8255505Y34239284D01*
X8249413Y34242823D01*
X8243876Y34247782D01*
X7222711Y35268947D01*
X7188685Y35331259D01*
X7193750Y35402074D01*
X7214931Y35438611D01*
X7216421Y35440402D01*
X7299719Y35540558D01*
X7302543Y35545601D01*
X7302546Y35545605D01*
X7400213Y35720002D01*
X7400214Y35720004D01*
X7403037Y35725045D01*
X7404893Y35730512D01*
X7404895Y35730517D01*
X7466864Y35913073D01*
X7471004Y35925270D01*
X7499511Y36121874D01*
X7529081Y36186420D01*
X7588853Y36224732D01*
X7659850Y36224648D01*
G37*
G04 #@! TD.AperFunction*
G04 #@! TA.AperFunction,Conductor*
G36*
X29090460Y40689440D02*
G01*
X29102970Y40678482D01*
X29389573Y40391879D01*
X29399428Y40380789D01*
X29413264Y40363238D01*
X29419100Y40355835D01*
X29464806Y40324246D01*
X29467894Y40322040D01*
X29512575Y40289037D01*
X29519027Y40286771D01*
X29524653Y40282883D01*
X29533630Y40280044D01*
X29533632Y40280043D01*
X29577557Y40266152D01*
X29581287Y40264907D01*
X29633637Y40246523D01*
X29640473Y40246254D01*
X29646991Y40244193D01*
X29653255Y40243700D01*
X29703016Y40243700D01*
X29707962Y40243603D01*
X29761848Y40241486D01*
X29768659Y40243292D01*
X29776074Y40243700D01*
X41667161Y40243700D01*
X41735282Y40223698D01*
X41756256Y40206795D01*
X42299144Y39663907D01*
X42333170Y39601595D01*
X42328105Y39530780D01*
X42308999Y39496807D01*
X42212642Y39374577D01*
X42208476Y39369292D01*
X42205787Y39364181D01*
X42205785Y39364178D01*
X42165677Y39287945D01*
X42110023Y39182164D01*
X42047320Y38980227D01*
X42022467Y38770246D01*
X42036296Y38559251D01*
X42037717Y38553655D01*
X42037718Y38553650D01*
X42084192Y38370663D01*
X42088345Y38354310D01*
X42090762Y38349067D01*
X42174451Y38167531D01*
X42176869Y38162286D01*
X42298905Y37989609D01*
X42450365Y37842063D01*
X42455161Y37838858D01*
X42455164Y37838856D01*
X42574133Y37759364D01*
X42626177Y37724589D01*
X42631485Y37722308D01*
X42631486Y37722308D01*
X42815150Y37643400D01*
X42815153Y37643399D01*
X42820453Y37641122D01*
X42826082Y37639848D01*
X42826083Y37639848D01*
X43021050Y37595731D01*
X43021053Y37595731D01*
X43026686Y37594456D01*
X43032458Y37594229D01*
X43038187Y37593475D01*
X43037827Y37590743D01*
X43094104Y37571784D01*
X43138450Y37516341D01*
X43145782Y37445724D01*
X43113771Y37382353D01*
X43052581Y37346349D01*
X43043204Y37344368D01*
X42884150Y37317038D01*
X42884149Y37317038D01*
X42878453Y37316059D01*
X42680075Y37242873D01*
X42675114Y37239921D01*
X42675113Y37239921D01*
X42657589Y37229495D01*
X42498356Y37134762D01*
X42339381Y36995345D01*
X42208476Y36829292D01*
X42205787Y36824181D01*
X42205785Y36824178D01*
X42192292Y36798531D01*
X42110023Y36642164D01*
X42047320Y36440227D01*
X42022467Y36230246D01*
X42036296Y36019251D01*
X42037717Y36013655D01*
X42037718Y36013650D01*
X42078295Y35853882D01*
X42088345Y35814310D01*
X42090762Y35809067D01*
X42160658Y35657451D01*
X42176869Y35622286D01*
X42180202Y35617570D01*
X42183091Y35612566D01*
X42181514Y35611655D01*
X42201805Y35552352D01*
X42184823Y35483416D01*
X42133268Y35434604D01*
X42075927Y35420800D01*
X41378711Y35420800D01*
X41363903Y35421673D01*
X41332346Y35425408D01*
X41323082Y35423716D01*
X41323081Y35423716D01*
X41316150Y35422450D01*
X41293512Y35420400D01*
X30767235Y35420400D01*
X30699114Y35440402D01*
X30678140Y35457305D01*
X30412685Y35722760D01*
X30378659Y35785072D01*
X30376546Y35805787D01*
X30375980Y35805756D01*
X30375753Y35809881D01*
X30375796Y35814000D01*
X30375082Y35819905D01*
X30367151Y35885435D01*
X30356808Y35970906D01*
X30300941Y36118754D01*
X30262936Y36174052D01*
X30215722Y36242749D01*
X30215721Y36242751D01*
X30211420Y36249008D01*
X30194891Y36263735D01*
X30099084Y36349097D01*
X30099080Y36349100D01*
X30093413Y36354149D01*
X30086705Y36357701D01*
X30086703Y36357702D01*
X29960442Y36424553D01*
X29960441Y36424554D01*
X29953733Y36428105D01*
X29800444Y36466609D01*
X29792846Y36466649D01*
X29792844Y36466649D01*
X29720847Y36467026D01*
X29642395Y36467437D01*
X29635008Y36465663D01*
X29635004Y36465663D01*
X29529059Y36440227D01*
X29488711Y36430540D01*
X29481967Y36427059D01*
X29481964Y36427058D01*
X29383520Y36376247D01*
X29348264Y36358050D01*
X29342542Y36353058D01*
X29342540Y36353057D01*
X29284178Y36302144D01*
X29219696Y36272436D01*
X29149389Y36282306D01*
X29095579Y36328619D01*
X29075878Y36385563D01*
X29074110Y36404804D01*
X29074110Y36404805D01*
X29073581Y36410560D01*
X29068112Y36429954D01*
X29017755Y36608504D01*
X29016186Y36614069D01*
X29009958Y36626700D01*
X28925219Y36798531D01*
X28922665Y36803710D01*
X28796151Y36973133D01*
X28640881Y37116663D01*
X28635998Y37119744D01*
X28466934Y37226416D01*
X28466933Y37226416D01*
X28462054Y37229495D01*
X28265660Y37307848D01*
X28260003Y37308973D01*
X28259997Y37308975D01*
X28062734Y37348212D01*
X27999824Y37381119D01*
X27964692Y37442814D01*
X27968492Y37513709D01*
X28010017Y37571295D01*
X28069234Y37596487D01*
X28201515Y37615667D01*
X28201519Y37615668D01*
X28207230Y37616496D01*
X28310364Y37651505D01*
X28401983Y37682605D01*
X28401988Y37682607D01*
X28407455Y37684463D01*
X28412498Y37687287D01*
X28586895Y37784954D01*
X28586899Y37784957D01*
X28591942Y37787781D01*
X28754512Y37922988D01*
X28889719Y38085558D01*
X28892543Y38090601D01*
X28892546Y38090605D01*
X28990213Y38265002D01*
X28990214Y38265004D01*
X28993037Y38270045D01*
X28994893Y38275512D01*
X28994895Y38275517D01*
X29057450Y38459800D01*
X29061004Y38470270D01*
X29062778Y38482499D01*
X29090814Y38675860D01*
X29090814Y38675862D01*
X29091346Y38679530D01*
X29092929Y38740000D01*
X29073581Y38950560D01*
X29016186Y39154069D01*
X29011356Y39163865D01*
X28925219Y39338531D01*
X28922665Y39343710D01*
X28837156Y39458221D01*
X28799604Y39508509D01*
X28799603Y39508510D01*
X28796151Y39513133D01*
X28640881Y39656663D01*
X28626159Y39665952D01*
X28466934Y39766416D01*
X28466933Y39766416D01*
X28462054Y39769495D01*
X28265660Y39847848D01*
X28260003Y39848973D01*
X28259997Y39848975D01*
X28062734Y39888212D01*
X27999824Y39921119D01*
X27964692Y39982814D01*
X27968492Y40053709D01*
X28010017Y40111295D01*
X28069234Y40136487D01*
X28201515Y40155667D01*
X28201519Y40155668D01*
X28207230Y40156496D01*
X28280636Y40181414D01*
X28401983Y40222605D01*
X28401988Y40222607D01*
X28407455Y40224463D01*
X28437852Y40241486D01*
X28586895Y40324954D01*
X28586899Y40324957D01*
X28591942Y40327781D01*
X28754512Y40462988D01*
X28889719Y40625558D01*
X28903942Y40650955D01*
X28954678Y40700615D01*
X29024210Y40714962D01*
X29090460Y40689440D01*
G37*
G04 #@! TD.AperFunction*
G04 #@! TA.AperFunction,Conductor*
G36*
X25869186Y40833298D02*
G01*
X25890160Y40816395D01*
X27051872Y39654683D01*
X27085898Y39592371D01*
X27080833Y39521556D01*
X27061727Y39487583D01*
X26972642Y39374577D01*
X26968476Y39369292D01*
X26965787Y39364181D01*
X26965785Y39364178D01*
X26925677Y39287945D01*
X26870023Y39182164D01*
X26807320Y38980227D01*
X26782467Y38770246D01*
X26796296Y38559251D01*
X26797717Y38553655D01*
X26797718Y38553650D01*
X26844192Y38370663D01*
X26848345Y38354310D01*
X26850762Y38349067D01*
X26934451Y38167531D01*
X26936869Y38162286D01*
X27058905Y37989609D01*
X27210365Y37842063D01*
X27215161Y37838858D01*
X27215164Y37838856D01*
X27334133Y37759364D01*
X27386177Y37724589D01*
X27391485Y37722308D01*
X27391486Y37722308D01*
X27575150Y37643400D01*
X27575153Y37643399D01*
X27580453Y37641122D01*
X27586082Y37639848D01*
X27586083Y37639848D01*
X27781050Y37595731D01*
X27781053Y37595731D01*
X27786686Y37594456D01*
X27792458Y37594229D01*
X27798187Y37593475D01*
X27797827Y37590743D01*
X27854104Y37571784D01*
X27898450Y37516341D01*
X27905782Y37445724D01*
X27873771Y37382353D01*
X27812581Y37346349D01*
X27803204Y37344368D01*
X27644150Y37317038D01*
X27644149Y37317038D01*
X27638453Y37316059D01*
X27440075Y37242873D01*
X27435114Y37239921D01*
X27435113Y37239921D01*
X27417589Y37229495D01*
X27258356Y37134762D01*
X27099381Y36995345D01*
X26968476Y36829292D01*
X26965787Y36824181D01*
X26965785Y36824178D01*
X26897312Y36694032D01*
X26847893Y36643060D01*
X26785804Y36626700D01*
X26004935Y36626700D01*
X25936814Y36646702D01*
X25915840Y36663605D01*
X24922684Y37656761D01*
X24888658Y37719073D01*
X24893723Y37789888D01*
X24931210Y37842730D01*
X24980581Y37883791D01*
X24980586Y37883796D01*
X24985018Y37887482D01*
X25042834Y37956998D01*
X25122408Y38052674D01*
X25122410Y38052677D01*
X25126102Y38057116D01*
X25223846Y38231651D01*
X25231086Y38244578D01*
X25231090Y38244586D01*
X25233910Y38249621D01*
X25235766Y38255088D01*
X25235768Y38255093D01*
X25302975Y38453079D01*
X25302976Y38453084D01*
X25304831Y38458548D01*
X25305659Y38464257D01*
X25305660Y38464262D01*
X25335958Y38673228D01*
X25336491Y38676902D01*
X25338143Y38740000D01*
X25317954Y38959711D01*
X25313712Y38974754D01*
X25266120Y39143504D01*
X25258065Y39172064D01*
X25160480Y39369947D01*
X25155278Y39376914D01*
X25031920Y39542109D01*
X25031920Y39542110D01*
X25028467Y39546733D01*
X24919195Y39647743D01*
X24870689Y39692582D01*
X24870686Y39692584D01*
X24866449Y39696501D01*
X24679850Y39814236D01*
X24477455Y39894983D01*
X24421596Y39938804D01*
X24398295Y40005868D01*
X24414951Y40074883D01*
X24466275Y40123937D01*
X24483644Y40131326D01*
X24617407Y40176732D01*
X24617412Y40176734D01*
X24622879Y40178590D01*
X24629240Y40182152D01*
X24735188Y40241486D01*
X24815384Y40286398D01*
X24822243Y40292102D01*
X24980586Y40423796D01*
X24985018Y40427482D01*
X25039485Y40492971D01*
X25122408Y40592674D01*
X25122410Y40592677D01*
X25126102Y40597116D01*
X25233489Y40788869D01*
X25284223Y40838528D01*
X25343421Y40853300D01*
X25801065Y40853300D01*
X25869186Y40833298D01*
G37*
G04 #@! TD.AperFunction*
G04 #@! TA.AperFunction,Conductor*
G36*
X20749161Y42283998D02*
G01*
X20795654Y42230342D01*
X20805758Y42160068D01*
X20776264Y42095488D01*
X20764118Y42083269D01*
X20749381Y42070345D01*
X20618476Y41904292D01*
X20615787Y41899181D01*
X20615785Y41899178D01*
X20604922Y41878531D01*
X20520023Y41717164D01*
X20457320Y41515227D01*
X20432467Y41305246D01*
X20446296Y41094251D01*
X20447717Y41088655D01*
X20447718Y41088650D01*
X20471992Y40993073D01*
X20498345Y40889310D01*
X20586869Y40697286D01*
X20708905Y40524609D01*
X20767605Y40467426D01*
X20808609Y40427482D01*
X20860365Y40377063D01*
X20865161Y40373858D01*
X20865164Y40373856D01*
X20987111Y40292374D01*
X21036177Y40259589D01*
X21041485Y40257308D01*
X21041486Y40257308D01*
X21225150Y40178400D01*
X21225153Y40178399D01*
X21230453Y40176122D01*
X21236082Y40174848D01*
X21236083Y40174848D01*
X21431050Y40130731D01*
X21431053Y40130731D01*
X21436686Y40129456D01*
X21442458Y40129229D01*
X21448187Y40128475D01*
X21447827Y40125743D01*
X21504104Y40106784D01*
X21548450Y40051341D01*
X21555782Y39980724D01*
X21523771Y39917353D01*
X21462581Y39881349D01*
X21453204Y39879368D01*
X21294150Y39852038D01*
X21294149Y39852038D01*
X21288453Y39851059D01*
X21090075Y39777873D01*
X21085114Y39774921D01*
X21085113Y39774921D01*
X20926323Y39680451D01*
X20908356Y39669762D01*
X20749381Y39530345D01*
X20618476Y39364292D01*
X20615787Y39359181D01*
X20615785Y39359178D01*
X20602292Y39333531D01*
X20520023Y39177164D01*
X20457320Y38975227D01*
X20432467Y38765246D01*
X20446296Y38554251D01*
X20447717Y38548655D01*
X20447718Y38548650D01*
X20464519Y38482499D01*
X20461901Y38411551D01*
X20421341Y38353280D01*
X20355716Y38326189D01*
X20301772Y38333258D01*
X20301733Y38333105D01*
X20300415Y38333436D01*
X20300416Y38333436D01*
X20148444Y38371609D01*
X20140846Y38371649D01*
X20140844Y38371649D01*
X20069419Y38372023D01*
X19990395Y38372437D01*
X19983008Y38370663D01*
X19983004Y38370663D01*
X19868379Y38343143D01*
X19836711Y38335540D01*
X19829967Y38332059D01*
X19829964Y38332058D01*
X19703012Y38266533D01*
X19696264Y38263050D01*
X19690542Y38258058D01*
X19690540Y38258057D01*
X19631735Y38206758D01*
X19577162Y38159151D01*
X19558853Y38133100D01*
X19502329Y38052674D01*
X19486282Y38029842D01*
X19428870Y37882587D01*
X19408240Y37725888D01*
X19405323Y37726272D01*
X19388585Y37671383D01*
X19334450Y37625449D01*
X19283300Y37614600D01*
X8420087Y37614600D01*
X8351966Y37634602D01*
X8330992Y37651505D01*
X7839705Y38142792D01*
X7805679Y38205104D01*
X7802800Y38231887D01*
X7802800Y39128251D01*
X7803673Y39143062D01*
X7804976Y39154069D01*
X7807408Y39174616D01*
X7805716Y39183878D01*
X7805716Y39183887D01*
X7797437Y39229213D01*
X7796786Y39233121D01*
X7789944Y39278631D01*
X7788544Y39287945D01*
X7785584Y39294109D01*
X7784355Y39300838D01*
X7758778Y39350076D01*
X7757021Y39353592D01*
X7737080Y39395120D01*
X7737078Y39395124D01*
X7733002Y39403611D01*
X7728359Y39408633D01*
X7725207Y39414702D01*
X7721126Y39419480D01*
X7685951Y39454655D01*
X7682521Y39458221D01*
X7652297Y39490917D01*
X7652298Y39490917D01*
X7645905Y39497832D01*
X7639813Y39501371D01*
X7634276Y39506330D01*
X6999082Y40141524D01*
X6965056Y40203836D01*
X6970121Y40274651D01*
X7007608Y40327493D01*
X7160074Y40454297D01*
X7164512Y40457988D01*
X7299719Y40620558D01*
X7302543Y40625601D01*
X7302546Y40625605D01*
X7400213Y40800002D01*
X7400214Y40800004D01*
X7403037Y40805045D01*
X7404893Y40810512D01*
X7404895Y40810517D01*
X7469147Y40999800D01*
X7471004Y41005270D01*
X7473776Y41024384D01*
X7500814Y41210860D01*
X7500814Y41210862D01*
X7501346Y41214530D01*
X7502929Y41275000D01*
X7483581Y41485560D01*
X7426186Y41689069D01*
X7420423Y41700757D01*
X7335219Y41873531D01*
X7332665Y41878710D01*
X7235414Y42008945D01*
X7209604Y42043509D01*
X7209603Y42043510D01*
X7206151Y42048133D01*
X7201913Y42052051D01*
X7201909Y42052055D01*
X7165755Y42085476D01*
X7129310Y42146404D01*
X7131591Y42217364D01*
X7171874Y42275826D01*
X7237369Y42303229D01*
X7251284Y42304000D01*
X20681040Y42304000D01*
X20749161Y42283998D01*
G37*
G04 #@! TD.AperFunction*
G04 #@! TA.AperFunction,Conductor*
G36*
X26825680Y52639298D02*
G01*
X26872173Y52585642D01*
X26882277Y52515368D01*
X26860138Y52460132D01*
X26855565Y52453721D01*
X26848207Y52446350D01*
X26796964Y52341518D01*
X26787000Y52273218D01*
X26787000Y50606782D01*
X26787670Y50602232D01*
X26787670Y50602229D01*
X26795716Y50547574D01*
X26797142Y50537888D01*
X26814956Y50501605D01*
X26842813Y50444867D01*
X26848568Y50433145D01*
X26855938Y50425788D01*
X26913134Y50368692D01*
X26931150Y50350707D01*
X26940506Y50346134D01*
X26940507Y50346133D01*
X26950759Y50341122D01*
X27035982Y50299464D01*
X27061571Y50295731D01*
X27099756Y50290160D01*
X27099760Y50290160D01*
X27104282Y50289500D01*
X27253951Y50289500D01*
X27322072Y50269498D01*
X27368565Y50215842D01*
X27378669Y50145568D01*
X27349175Y50080988D01*
X27307202Y50049306D01*
X27285994Y50039417D01*
X27276493Y50033931D01*
X27098033Y49908972D01*
X27089625Y49901916D01*
X26935584Y49747875D01*
X26928528Y49739467D01*
X26803569Y49561007D01*
X26798086Y49551511D01*
X26706010Y49354053D01*
X26702264Y49343761D01*
X26656106Y49171497D01*
X26656442Y49157401D01*
X26664384Y49154000D01*
X29205467Y49154000D01*
X29218998Y49157973D01*
X29220227Y49166522D01*
X29172736Y49343761D01*
X29168990Y49354053D01*
X29076914Y49551511D01*
X29071431Y49561007D01*
X28946472Y49739467D01*
X28939416Y49747875D01*
X28785375Y49901916D01*
X28776967Y49908972D01*
X28598507Y50033931D01*
X28589006Y50039417D01*
X28567798Y50049306D01*
X28514514Y50096223D01*
X28495053Y50164500D01*
X28515595Y50232460D01*
X28569618Y50278526D01*
X28621049Y50289500D01*
X28770718Y50289500D01*
X28775268Y50290170D01*
X28775271Y50290170D01*
X28829926Y50298216D01*
X28829927Y50298216D01*
X28839612Y50299642D01*
X28911319Y50334848D01*
X28935007Y50346478D01*
X28935009Y50346479D01*
X28944355Y50351068D01*
X29006959Y50413781D01*
X29019435Y50426279D01*
X29019435Y50426280D01*
X29026793Y50433650D01*
X29037217Y50454974D01*
X29060010Y50501605D01*
X29078036Y50538482D01*
X29088000Y50606782D01*
X29088000Y52273218D01*
X29087051Y52279669D01*
X29079284Y52332426D01*
X29079284Y52332427D01*
X29077858Y52342112D01*
X29026432Y52446855D01*
X29019062Y52454212D01*
X29014952Y52459953D01*
X28991561Y52526986D01*
X29008125Y52596023D01*
X29059383Y52645147D01*
X29117403Y52659300D01*
X33045065Y52659300D01*
X33113186Y52639298D01*
X33134160Y52622395D01*
X37135077Y48621478D01*
X37144932Y48610388D01*
X37158771Y48592833D01*
X37158775Y48592830D01*
X37164604Y48585435D01*
X37172351Y48580081D01*
X37172355Y48580077D01*
X37210251Y48553885D01*
X37213471Y48551585D01*
X37258079Y48518637D01*
X37264531Y48516371D01*
X37270157Y48512483D01*
X37279134Y48509644D01*
X37279136Y48509643D01*
X37323061Y48495752D01*
X37326791Y48494507D01*
X37379141Y48476123D01*
X37385977Y48475854D01*
X37392495Y48473793D01*
X37398759Y48473300D01*
X37448520Y48473300D01*
X37453466Y48473203D01*
X37507352Y48471086D01*
X37514163Y48472892D01*
X37521578Y48473300D01*
X42026593Y48473300D01*
X42094714Y48453298D01*
X42141019Y48400051D01*
X42165803Y48346291D01*
X42176869Y48322286D01*
X42298905Y48149609D01*
X42450365Y48002063D01*
X42455161Y47998858D01*
X42455164Y47998856D01*
X42588009Y47910092D01*
X42626177Y47884589D01*
X42631485Y47882308D01*
X42631486Y47882308D01*
X42815150Y47803400D01*
X42815153Y47803399D01*
X42820453Y47801122D01*
X42826082Y47799848D01*
X42826083Y47799848D01*
X43021050Y47755731D01*
X43021053Y47755731D01*
X43026686Y47754456D01*
X43032458Y47754229D01*
X43038187Y47753475D01*
X43037827Y47750743D01*
X43094104Y47731784D01*
X43138450Y47676341D01*
X43145782Y47605724D01*
X43113771Y47542353D01*
X43052581Y47506349D01*
X43043204Y47504368D01*
X42884150Y47477038D01*
X42884149Y47477038D01*
X42878453Y47476059D01*
X42680075Y47402873D01*
X42675114Y47399921D01*
X42675113Y47399921D01*
X42511662Y47302678D01*
X42498356Y47294762D01*
X42339381Y47155345D01*
X42208476Y46989292D01*
X42205787Y46984181D01*
X42205785Y46984178D01*
X42155900Y46889362D01*
X42110023Y46802164D01*
X42047320Y46600227D01*
X42022467Y46390246D01*
X42036296Y46179251D01*
X42037717Y46173655D01*
X42037718Y46173650D01*
X42081034Y46003098D01*
X42088345Y45974310D01*
X42090762Y45969067D01*
X42129497Y45885045D01*
X42176869Y45782286D01*
X42298905Y45609609D01*
X42450365Y45462063D01*
X42455161Y45458858D01*
X42455164Y45458856D01*
X42565355Y45385229D01*
X42626177Y45344589D01*
X42631485Y45342308D01*
X42631486Y45342308D01*
X42815150Y45263400D01*
X42815153Y45263399D01*
X42820453Y45261122D01*
X42826082Y45259848D01*
X42826083Y45259848D01*
X43021050Y45215731D01*
X43021053Y45215731D01*
X43026686Y45214456D01*
X43032458Y45214229D01*
X43038187Y45213475D01*
X43037827Y45210743D01*
X43094104Y45191784D01*
X43138450Y45136341D01*
X43145782Y45065724D01*
X43113771Y45002353D01*
X43052581Y44966349D01*
X43043204Y44964368D01*
X42884150Y44937038D01*
X42884149Y44937038D01*
X42878453Y44936059D01*
X42680075Y44862873D01*
X42675114Y44859921D01*
X42675113Y44859921D01*
X42540077Y44779583D01*
X42498356Y44754762D01*
X42339381Y44615345D01*
X42208476Y44449292D01*
X42205787Y44444181D01*
X42205785Y44444178D01*
X42194821Y44423338D01*
X42110023Y44262164D01*
X42047320Y44060227D01*
X42022467Y43850246D01*
X42036296Y43639251D01*
X42037717Y43633655D01*
X42037718Y43633650D01*
X42063262Y43533073D01*
X42088345Y43434310D01*
X42090762Y43429067D01*
X42165976Y43265914D01*
X42176869Y43242286D01*
X42298905Y43069609D01*
X42450365Y42922063D01*
X42455161Y42918858D01*
X42455164Y42918856D01*
X42575641Y42838356D01*
X42626177Y42804589D01*
X42631485Y42802308D01*
X42631486Y42802308D01*
X42815150Y42723400D01*
X42815153Y42723399D01*
X42820453Y42721122D01*
X42826082Y42719848D01*
X42826083Y42719848D01*
X43021050Y42675731D01*
X43021053Y42675731D01*
X43026686Y42674456D01*
X43032458Y42674229D01*
X43038187Y42673475D01*
X43037827Y42670743D01*
X43094104Y42651784D01*
X43138450Y42596341D01*
X43145782Y42525724D01*
X43113771Y42462353D01*
X43052581Y42426349D01*
X43043204Y42424368D01*
X42884150Y42397038D01*
X42884149Y42397038D01*
X42878453Y42396059D01*
X42680075Y42322873D01*
X42675114Y42319921D01*
X42675113Y42319921D01*
X42642468Y42300499D01*
X42498356Y42214762D01*
X42339381Y42075345D01*
X42208476Y41909292D01*
X42205787Y41904181D01*
X42205785Y41904178D01*
X42137312Y41774032D01*
X42087893Y41723060D01*
X42025804Y41706700D01*
X30195935Y41706700D01*
X30127814Y41726702D01*
X30106840Y41743605D01*
X30039305Y41811140D01*
X30005279Y41873452D01*
X30002400Y41900235D01*
X30002400Y46574710D01*
X30003273Y46589519D01*
X30004540Y46600227D01*
X30007007Y46621068D01*
X30005315Y46630335D01*
X29997042Y46675635D01*
X29996392Y46679538D01*
X29989544Y46725088D01*
X29989543Y46725091D01*
X29988144Y46734397D01*
X29985184Y46740562D01*
X29983955Y46747290D01*
X29958378Y46796528D01*
X29956621Y46800044D01*
X29936680Y46841572D01*
X29936678Y46841576D01*
X29932602Y46850063D01*
X29927959Y46855085D01*
X29924807Y46861154D01*
X29920726Y46865932D01*
X29885551Y46901107D01*
X29882121Y46904673D01*
X29851897Y46937369D01*
X29851898Y46937369D01*
X29845505Y46944284D01*
X29839413Y46947823D01*
X29833876Y46952782D01*
X28926070Y47860588D01*
X28892044Y47922900D01*
X28897109Y47993715D01*
X28926070Y48038778D01*
X28939418Y48052126D01*
X28946469Y48060529D01*
X29071431Y48238993D01*
X29076914Y48248489D01*
X29168990Y48445947D01*
X29172736Y48456239D01*
X29218894Y48628503D01*
X29218558Y48642599D01*
X29210616Y48646000D01*
X26669533Y48646000D01*
X26656002Y48642027D01*
X26654773Y48633478D01*
X26702264Y48456239D01*
X26706010Y48445947D01*
X26745039Y48362250D01*
X26755700Y48292059D01*
X26726720Y48227246D01*
X26667301Y48188389D01*
X26630844Y48183000D01*
X25952700Y48183000D01*
X25884579Y48203002D01*
X25838086Y48256658D01*
X25826700Y48309000D01*
X25826700Y52296897D01*
X25827573Y52311707D01*
X25830200Y52333902D01*
X25831307Y52343255D01*
X25829600Y52352604D01*
X25821342Y52397822D01*
X25820692Y52401725D01*
X25813844Y52447275D01*
X25813843Y52447278D01*
X25812444Y52456584D01*
X25809484Y52462749D01*
X25808255Y52469477D01*
X25803913Y52477836D01*
X25800863Y52486743D01*
X25802880Y52487434D01*
X25791621Y52544884D01*
X25817801Y52610877D01*
X25875503Y52652240D01*
X25917087Y52659300D01*
X26757559Y52659300D01*
X26825680Y52639298D01*
G37*
G04 #@! TD.AperFunction*
G04 #@! TA.AperFunction,Conductor*
G36*
X20457017Y51051567D02*
G01*
X20513853Y51009020D01*
X20527409Y50986266D01*
X20586869Y50857286D01*
X20708905Y50684609D01*
X20713039Y50680582D01*
X20851099Y50546090D01*
X20860365Y50537063D01*
X20865161Y50533858D01*
X20865164Y50533856D01*
X20983220Y50454974D01*
X21036177Y50419589D01*
X21041484Y50417309D01*
X21225150Y50338400D01*
X21225153Y50338399D01*
X21230453Y50336122D01*
X21236082Y50334848D01*
X21236083Y50334848D01*
X21431050Y50290731D01*
X21431053Y50290731D01*
X21436686Y50289456D01*
X21442458Y50289229D01*
X21448187Y50288475D01*
X21447827Y50285743D01*
X21504104Y50266784D01*
X21548450Y50211341D01*
X21555782Y50140724D01*
X21523771Y50077353D01*
X21462581Y50041349D01*
X21453204Y50039368D01*
X21294150Y50012038D01*
X21294149Y50012038D01*
X21288453Y50011059D01*
X21090075Y49937873D01*
X21085114Y49934921D01*
X21085113Y49934921D01*
X20921726Y49837716D01*
X20908356Y49829762D01*
X20749381Y49690345D01*
X20618476Y49524292D01*
X20615787Y49519181D01*
X20615785Y49519178D01*
X20547312Y49389032D01*
X20497893Y49338060D01*
X20435804Y49321700D01*
X20000977Y49321700D01*
X19932856Y49341702D01*
X19886363Y49395358D01*
X19879619Y49413813D01*
X19877993Y49419638D01*
X19877990Y49419646D01*
X19876786Y49423959D01*
X19819103Y49555052D01*
X19816733Y49558860D01*
X19768230Y49636782D01*
X19768227Y49636786D01*
X19765863Y49640584D01*
X19757831Y49650140D01*
X19676590Y49746788D01*
X19673706Y49750219D01*
X19603778Y49812743D01*
X19601931Y49814394D01*
X19601930Y49814394D01*
X19598598Y49817374D01*
X19594877Y49819851D01*
X19594873Y49819854D01*
X19483102Y49894255D01*
X19483100Y49894256D01*
X19479373Y49896737D01*
X19388436Y49940112D01*
X19384157Y49941449D01*
X19384154Y49941450D01*
X19256009Y49981485D01*
X19256011Y49981485D01*
X19251730Y49982822D01*
X19247306Y49983539D01*
X19247304Y49983539D01*
X19174762Y49995288D01*
X19152276Y49998930D01*
X19009077Y50001555D01*
X19004637Y50001002D01*
X19000153Y50000765D01*
X19000147Y50000879D01*
X18991553Y50000346D01*
X18565000Y50000346D01*
X18477768Y49989473D01*
X18469405Y49985805D01*
X18469406Y49985805D01*
X18386516Y49949446D01*
X18370644Y49942484D01*
X18284582Y49863258D01*
X18279614Y49854078D01*
X18258629Y49815300D01*
X18228908Y49760381D01*
X18209654Y49645000D01*
X18209654Y49222670D01*
X18209150Y49211414D01*
X18204690Y49161689D01*
X18204660Y49159262D01*
X18204660Y49159256D01*
X18204623Y49156229D01*
X18204539Y49149347D01*
X18208101Y49094624D01*
X18208449Y49092196D01*
X18208698Y49089800D01*
X18208586Y49089788D01*
X18209654Y49074806D01*
X18209654Y48722670D01*
X18209150Y48711414D01*
X18204690Y48661689D01*
X18204539Y48649347D01*
X18208101Y48594624D01*
X18208449Y48592196D01*
X18208698Y48589800D01*
X18208586Y48589788D01*
X18209654Y48574806D01*
X18209654Y48145000D01*
X18220527Y48057768D01*
X18224195Y48049406D01*
X18262229Y47962698D01*
X18267516Y47950644D01*
X18346742Y47864582D01*
X18355922Y47859614D01*
X18378701Y47847287D01*
X18449619Y47808908D01*
X18565000Y47789654D01*
X19055485Y47789654D01*
X19056255Y47789652D01*
X19126899Y47789220D01*
X19126905Y47789220D01*
X19131385Y47789193D01*
X19135828Y47789802D01*
X19135834Y47789802D01*
X19186430Y47796733D01*
X19231204Y47802866D01*
X19235511Y47804097D01*
X19235516Y47804098D01*
X19364596Y47840989D01*
X19364599Y47840990D01*
X19368913Y47842223D01*
X19460883Y47883363D01*
X19582011Y47959789D01*
X19658738Y48025090D01*
X19753546Y48132441D01*
X19808859Y48216646D01*
X19811449Y48222161D01*
X19856243Y48317570D01*
X19869728Y48346291D01*
X19879771Y48379140D01*
X19918816Y48438436D01*
X19983721Y48467209D01*
X20000265Y48468300D01*
X20436593Y48468300D01*
X20504714Y48448298D01*
X20551019Y48395051D01*
X20586869Y48317286D01*
X20708905Y48144609D01*
X20767605Y48087426D01*
X20851099Y48006090D01*
X20860365Y47997063D01*
X20865161Y47993858D01*
X20865164Y47993856D01*
X20990526Y47910092D01*
X21036177Y47879589D01*
X21041485Y47877308D01*
X21041486Y47877308D01*
X21225150Y47798400D01*
X21225153Y47798399D01*
X21230453Y47796122D01*
X21236082Y47794848D01*
X21236083Y47794848D01*
X21431050Y47750731D01*
X21431053Y47750731D01*
X21436686Y47749456D01*
X21442458Y47749229D01*
X21448187Y47748475D01*
X21447827Y47745743D01*
X21504104Y47726784D01*
X21548450Y47671341D01*
X21555782Y47600724D01*
X21523771Y47537353D01*
X21462581Y47501349D01*
X21453204Y47499368D01*
X21294150Y47472038D01*
X21294149Y47472038D01*
X21288453Y47471059D01*
X21090075Y47397873D01*
X21085114Y47394921D01*
X21085113Y47394921D01*
X20921726Y47297716D01*
X20908356Y47289762D01*
X20749381Y47150345D01*
X20618476Y46984292D01*
X20615787Y46979181D01*
X20615785Y46979178D01*
X20576586Y46904673D01*
X20520023Y46797164D01*
X20457320Y46595227D01*
X20432467Y46385246D01*
X20446296Y46174251D01*
X20447717Y46168655D01*
X20447718Y46168650D01*
X20495654Y45979905D01*
X20498345Y45969310D01*
X20500762Y45964067D01*
X20512310Y45939018D01*
X20586869Y45777286D01*
X20708905Y45604609D01*
X20738936Y45575354D01*
X20851099Y45466090D01*
X20860365Y45457063D01*
X20865161Y45453858D01*
X20865164Y45453856D01*
X20967872Y45385229D01*
X21036177Y45339589D01*
X21041485Y45337308D01*
X21041486Y45337308D01*
X21225150Y45258400D01*
X21225153Y45258399D01*
X21230453Y45256122D01*
X21236082Y45254848D01*
X21236083Y45254848D01*
X21431050Y45210731D01*
X21431053Y45210731D01*
X21436686Y45209456D01*
X21442458Y45209229D01*
X21448187Y45208475D01*
X21447827Y45205743D01*
X21504104Y45186784D01*
X21548450Y45131341D01*
X21555782Y45060724D01*
X21523771Y44997353D01*
X21462581Y44961349D01*
X21453204Y44959368D01*
X21294150Y44932038D01*
X21294149Y44932038D01*
X21288453Y44931059D01*
X21090075Y44857873D01*
X21085114Y44854921D01*
X21085113Y44854921D01*
X20921726Y44757716D01*
X20908356Y44749762D01*
X20749381Y44610345D01*
X20618476Y44444292D01*
X20615787Y44439181D01*
X20615785Y44439178D01*
X20604922Y44418531D01*
X20520023Y44257164D01*
X20457320Y44055227D01*
X20432467Y43845246D01*
X20446296Y43634251D01*
X20447717Y43628655D01*
X20447718Y43628650D01*
X20471992Y43533073D01*
X20498345Y43429310D01*
X20541292Y43336152D01*
X20541292Y43336151D01*
X20551647Y43265914D01*
X20522384Y43201228D01*
X20462796Y43162631D01*
X20426866Y43157400D01*
X7512927Y43157400D01*
X7444806Y43177402D01*
X7398313Y43231058D01*
X7388209Y43301332D01*
X7399270Y43334104D01*
X7397865Y43334729D01*
X7400214Y43340003D01*
X7403037Y43345045D01*
X7404893Y43350512D01*
X7404895Y43350517D01*
X7469147Y43539800D01*
X7471004Y43545270D01*
X7473776Y43564384D01*
X7500814Y43750860D01*
X7500814Y43750862D01*
X7501346Y43754530D01*
X7502929Y43815000D01*
X7483581Y44025560D01*
X7426186Y44229069D01*
X7423348Y44234825D01*
X7335219Y44413531D01*
X7332665Y44418710D01*
X7238447Y44544883D01*
X7209604Y44583509D01*
X7209603Y44583510D01*
X7206151Y44588133D01*
X7050881Y44731663D01*
X7045998Y44734744D01*
X7045994Y44734747D01*
X7019553Y44751430D01*
X6972615Y44804696D01*
X6961925Y44874884D01*
X6990879Y44939708D01*
X6997693Y44947087D01*
X7959422Y45908816D01*
X7970512Y45918671D01*
X7988066Y45932509D01*
X7988070Y45932513D01*
X7995465Y45938343D01*
X8001833Y45947556D01*
X8027000Y45983971D01*
X8029302Y45987193D01*
X8056668Y46024242D01*
X8056670Y46024246D01*
X8062263Y46031818D01*
X8064529Y46038270D01*
X8068417Y46043896D01*
X8081502Y46085270D01*
X8085148Y46096800D01*
X8086402Y46100558D01*
X8101657Y46143996D01*
X8104777Y46152880D01*
X8105046Y46159716D01*
X8107107Y46166234D01*
X8107600Y46172498D01*
X8107600Y46222259D01*
X8107697Y46227205D01*
X8109444Y46271678D01*
X8109814Y46281091D01*
X8108008Y46287902D01*
X8107600Y46295317D01*
X8107600Y48295913D01*
X8127602Y48364034D01*
X8144505Y48385008D01*
X10095891Y50336395D01*
X10158203Y50370420D01*
X10184986Y50373300D01*
X19465029Y50373300D01*
X19479837Y50372427D01*
X19511394Y50368692D01*
X19520656Y50370384D01*
X19520665Y50370384D01*
X19565991Y50378663D01*
X19569899Y50379314D01*
X19571928Y50379619D01*
X19624723Y50387556D01*
X19630887Y50390516D01*
X19637616Y50391745D01*
X19686854Y50417322D01*
X19690370Y50419079D01*
X19731898Y50439020D01*
X19731902Y50439022D01*
X19740389Y50443098D01*
X19745411Y50447741D01*
X19751480Y50450893D01*
X19756258Y50454974D01*
X19791433Y50490149D01*
X19794999Y50493579D01*
X19834610Y50530195D01*
X19838149Y50536287D01*
X19843108Y50541824D01*
X20323890Y51022606D01*
X20386202Y51056632D01*
X20457017Y51051567D01*
G37*
G04 #@! TD.AperFunction*
M02*
