M48
; DRILL file {KiCad (6.0.10-0)} date 
; FORMAT={-:-/ absolute / metric / decimal}
; #@! TF.CreationDate,2022-12-27T18:05:15+09:00
; #@! TF.GenerationSoftware,Kicad,Pcbnew,(6.0.10-0)
; #@! TF.FileFunction,MixedPlating,1,2
FMAT,2
METRIC
; #@! TA.AperFunction,Plated,PTH,ViaDrill
T1C0.300
; #@! TA.AperFunction,Plated,PTH,ComponentDrill
T2C0.800
; #@! TA.AperFunction,Plated,PTH,ComponentDrill
T3C1.000
%
G90
G05
T1
X1.905Y1.905
X7.383Y26.88
X7.813Y29.33
X8.516Y23.495
X9.525Y18.415
X10.16Y53.34
X10.16Y41.275
X10.16Y40.005
X10.16Y38.735
X10.16Y8.255
X10.795Y35.56
X13.97Y53.34
X13.97Y35.56
X17.145Y31.115
X17.767Y50.152
X17.78Y41.275
X17.78Y40.005
X17.78Y38.735
X17.78Y35.56
X17.78Y8.255
X18.265Y17.549
X18.288Y16.487
X18.415Y53.34
X18.415Y31.115
X18.415Y28.575
X18.415Y27.305
X18.415Y26.035
X19.419Y17.018
X19.685Y31.115
X19.71Y19.418
X20.066Y37.719
X26.035Y38.1
X26.035Y1.905
X26.038Y19.688
X26.67Y10.16
X29.718Y35.814
X31.115Y38.119
X31.115Y33.655
X31.242Y14.305
X33.02Y10.16
X35.56Y17.78
X39.37Y50.165
X40.64Y51.435
X40.64Y50.165
X40.64Y38.1
X40.64Y33.655
X40.64Y31.115
X43.18Y10.16
X45.085Y8.255
T2
X3.833Y55.245
X6.332Y55.245
X6.348Y51.435
X6.348Y48.895
X6.348Y46.355
X6.348Y43.815
X6.348Y41.275
X6.348Y38.735
X6.348Y36.195
X6.348Y33.655
X6.348Y31.115
X6.348Y28.575
X6.348Y26.035
X6.348Y23.495
X6.348Y20.955
X6.348Y18.415
X6.348Y15.875
X6.348Y13.335
X6.348Y10.795
X6.348Y8.255
X6.348Y5.715
X6.348Y3.175
X21.587Y51.435
X21.587Y48.895
X21.587Y46.355
X21.587Y43.815
X21.587Y41.275
X21.587Y38.735
X21.587Y36.195
X21.587Y33.655
X21.587Y31.115
X21.587Y28.575
X21.587Y26.035
X21.587Y23.495
X21.587Y20.955
X21.587Y18.415
X21.587Y15.875
X21.587Y13.335
X21.587Y10.795
X21.587Y8.255
X21.587Y5.715
X21.587Y3.175
X27.938Y51.44
X27.938Y48.9
X27.938Y46.36
X27.938Y43.82
X27.938Y41.28
X27.938Y38.74
X27.938Y36.2
X27.938Y33.66
X27.938Y31.12
X27.938Y28.58
X27.938Y26.04
X27.938Y23.5
X27.938Y20.96
X27.938Y18.42
X27.938Y15.88
X27.938Y13.34
X40.663Y55.245
X43.163Y55.245
X43.177Y51.44
X43.177Y48.9
X43.177Y46.36
X43.177Y43.82
X43.177Y41.28
X43.177Y38.74
X43.177Y36.2
X43.177Y33.66
X43.177Y31.12
X43.177Y28.58
X43.177Y26.04
X43.177Y23.5
X43.177Y20.96
X43.177Y18.42
X43.177Y15.88
X43.177Y13.34
T3
X3.812Y51.44
X3.812Y48.9
X3.812Y46.36
X3.812Y43.82
X3.812Y41.28
X3.812Y38.74
X3.812Y36.2
X3.812Y33.66
X3.812Y31.12
X3.812Y28.58
X3.812Y26.04
X3.812Y23.5
X3.812Y20.96
X3.812Y18.42
X3.812Y15.88
X3.812Y13.34
X3.812Y10.8
X3.812Y8.26
X3.812Y5.72
X3.812Y3.18
X24.133Y51.44
X24.133Y48.9
X24.133Y46.36
X24.133Y43.82
X24.133Y41.28
X24.133Y38.74
X24.133Y36.2
X24.133Y33.66
X24.133Y31.12
X24.133Y28.58
X24.133Y26.04
X24.133Y23.5
X24.133Y20.96
X24.133Y18.42
X24.133Y15.88
X24.133Y13.34
X24.133Y10.8
X24.133Y8.26
X24.133Y5.72
X24.133Y3.18
T0
M30
