G04 #@! TF.GenerationSoftware,KiCad,Pcbnew,(6.0.10-0)*
G04 #@! TF.CreationDate,2022-12-27T18:05:12+09:00*
G04 #@! TF.ProjectId,MEZ6809RAM,4d455a36-3830-4395-9241-4d2e6b696361,A*
G04 #@! TF.SameCoordinates,PX5f5e100PY8f0d180*
G04 #@! TF.FileFunction,Legend,Bot*
G04 #@! TF.FilePolarity,Positive*
%FSLAX46Y46*%
G04 Gerber Fmt 4.6, Leading zero omitted, Abs format (unit mm)*
G04 Created by KiCad (PCBNEW (6.0.10-0)) date 2022-12-27 18:05:12*
%MOMM*%
%LPD*%
G01*
G04 APERTURE LIST*
%ADD10C,0.150000*%
%ADD11C,0.120000*%
G04 APERTURE END LIST*
D10*
X19348690Y46902620D02*
X19539166Y46902620D01*
X19634404Y46855000D01*
X19682023Y46807381D01*
X19777261Y46664524D01*
X19824880Y46474048D01*
X19824880Y46093096D01*
X19777261Y45997858D01*
X19729642Y45950239D01*
X19634404Y45902620D01*
X19443928Y45902620D01*
X19348690Y45950239D01*
X19301071Y45997858D01*
X19253452Y46093096D01*
X19253452Y46331191D01*
X19301071Y46426429D01*
X19348690Y46474048D01*
X19443928Y46521667D01*
X19634404Y46521667D01*
X19729642Y46474048D01*
X19777261Y46426429D01*
X19824880Y46331191D01*
X18920119Y46902620D02*
X18301071Y46902620D01*
X18634404Y46521667D01*
X18491547Y46521667D01*
X18396309Y46474048D01*
X18348690Y46426429D01*
X18301071Y46331191D01*
X18301071Y46093096D01*
X18348690Y45997858D01*
X18396309Y45950239D01*
X18491547Y45902620D01*
X18777261Y45902620D01*
X18872500Y45950239D01*
X18920119Y45997858D01*
X17682023Y46902620D02*
X17586785Y46902620D01*
X17491547Y46855000D01*
X17443928Y46807381D01*
X17396309Y46712143D01*
X17348690Y46521667D01*
X17348690Y46283572D01*
X17396309Y46093096D01*
X17443928Y45997858D01*
X17491547Y45950239D01*
X17586785Y45902620D01*
X17682023Y45902620D01*
X17777261Y45950239D01*
X17824880Y45997858D01*
X17872500Y46093096D01*
X17920119Y46283572D01*
X17920119Y46521667D01*
X17872500Y46712143D01*
X17824880Y46807381D01*
X17777261Y46855000D01*
X17682023Y46902620D01*
X16872500Y45902620D02*
X16682023Y45902620D01*
X16586785Y45950239D01*
X16539166Y45997858D01*
X16443928Y46140715D01*
X16396309Y46331191D01*
X16396309Y46712143D01*
X16443928Y46807381D01*
X16491547Y46855000D01*
X16586785Y46902620D01*
X16777261Y46902620D01*
X16872500Y46855000D01*
X16920119Y46807381D01*
X16967738Y46712143D01*
X16967738Y46474048D01*
X16920119Y46378810D01*
X16872500Y46331191D01*
X16777261Y46283572D01*
X16586785Y46283572D01*
X16491547Y46331191D01*
X16443928Y46378810D01*
X16396309Y46474048D01*
X15967738Y45997858D02*
X15920119Y45950239D01*
X15967738Y45902620D01*
X16015357Y45950239D01*
X15967738Y45997858D01*
X15967738Y45902620D01*
X15967738Y46521667D02*
X15920119Y46474048D01*
X15967738Y46426429D01*
X16015357Y46474048D01*
X15967738Y46521667D01*
X15967738Y46426429D01*
X15301071Y46902620D02*
X15110595Y46902620D01*
X15015357Y46855000D01*
X14920119Y46759762D01*
X14872500Y46569286D01*
X14872500Y46235953D01*
X14920119Y46045477D01*
X15015357Y45950239D01*
X15110595Y45902620D01*
X15301071Y45902620D01*
X15396309Y45950239D01*
X15491547Y46045477D01*
X15539166Y46235953D01*
X15539166Y46569286D01*
X15491547Y46759762D01*
X15396309Y46855000D01*
X15301071Y46902620D01*
X14443928Y45902620D02*
X14443928Y46902620D01*
X14062976Y46902620D01*
X13967738Y46855000D01*
X13920119Y46807381D01*
X13872500Y46712143D01*
X13872500Y46569286D01*
X13920119Y46474048D01*
X13967738Y46426429D01*
X14062976Y46378810D01*
X14443928Y46378810D01*
X13443928Y46426429D02*
X13110595Y46426429D01*
X12967738Y45902620D02*
X13443928Y45902620D01*
X13443928Y46902620D01*
X12967738Y46902620D01*
X12539166Y45902620D02*
X12539166Y46902620D01*
X11967738Y45902620D01*
X11967738Y46902620D01*
X34402380Y37051667D02*
X33402380Y37051667D01*
X34116666Y36718334D01*
X33402380Y36385000D01*
X34402380Y36385000D01*
X33878571Y35908810D02*
X33878571Y35575477D01*
X34402380Y35432620D02*
X34402380Y35908810D01*
X33402380Y35908810D01*
X33402380Y35432620D01*
X33402380Y35099286D02*
X33402380Y34432620D01*
X34402380Y35099286D01*
X34402380Y34432620D01*
X33402380Y33623096D02*
X33402380Y33813572D01*
X33450000Y33908810D01*
X33497619Y33956429D01*
X33640476Y34051667D01*
X33830952Y34099286D01*
X34211904Y34099286D01*
X34307142Y34051667D01*
X34354761Y34004048D01*
X34402380Y33908810D01*
X34402380Y33718334D01*
X34354761Y33623096D01*
X34307142Y33575477D01*
X34211904Y33527858D01*
X33973809Y33527858D01*
X33878571Y33575477D01*
X33830952Y33623096D01*
X33783333Y33718334D01*
X33783333Y33908810D01*
X33830952Y34004048D01*
X33878571Y34051667D01*
X33973809Y34099286D01*
X33830952Y32956429D02*
X33783333Y33051667D01*
X33735714Y33099286D01*
X33640476Y33146905D01*
X33592857Y33146905D01*
X33497619Y33099286D01*
X33450000Y33051667D01*
X33402380Y32956429D01*
X33402380Y32765953D01*
X33450000Y32670715D01*
X33497619Y32623096D01*
X33592857Y32575477D01*
X33640476Y32575477D01*
X33735714Y32623096D01*
X33783333Y32670715D01*
X33830952Y32765953D01*
X33830952Y32956429D01*
X33878571Y33051667D01*
X33926190Y33099286D01*
X34021428Y33146905D01*
X34211904Y33146905D01*
X34307142Y33099286D01*
X34354761Y33051667D01*
X34402380Y32956429D01*
X34402380Y32765953D01*
X34354761Y32670715D01*
X34307142Y32623096D01*
X34211904Y32575477D01*
X34021428Y32575477D01*
X33926190Y32623096D01*
X33878571Y32670715D01*
X33830952Y32765953D01*
X33402380Y31956429D02*
X33402380Y31861191D01*
X33450000Y31765953D01*
X33497619Y31718334D01*
X33592857Y31670715D01*
X33783333Y31623096D01*
X34021428Y31623096D01*
X34211904Y31670715D01*
X34307142Y31718334D01*
X34354761Y31765953D01*
X34402380Y31861191D01*
X34402380Y31956429D01*
X34354761Y32051667D01*
X34307142Y32099286D01*
X34211904Y32146905D01*
X34021428Y32194524D01*
X33783333Y32194524D01*
X33592857Y32146905D01*
X33497619Y32099286D01*
X33450000Y32051667D01*
X33402380Y31956429D01*
X34402380Y31146905D02*
X34402380Y30956429D01*
X34354761Y30861191D01*
X34307142Y30813572D01*
X34164285Y30718334D01*
X33973809Y30670715D01*
X33592857Y30670715D01*
X33497619Y30718334D01*
X33450000Y30765953D01*
X33402380Y30861191D01*
X33402380Y31051667D01*
X33450000Y31146905D01*
X33497619Y31194524D01*
X33592857Y31242143D01*
X33830952Y31242143D01*
X33926190Y31194524D01*
X33973809Y31146905D01*
X34021428Y31051667D01*
X34021428Y30861191D01*
X33973809Y30765953D01*
X33926190Y30718334D01*
X33830952Y30670715D01*
X34402380Y29670715D02*
X33926190Y30004048D01*
X34402380Y30242143D02*
X33402380Y30242143D01*
X33402380Y29861191D01*
X33450000Y29765953D01*
X33497619Y29718334D01*
X33592857Y29670715D01*
X33735714Y29670715D01*
X33830952Y29718334D01*
X33878571Y29765953D01*
X33926190Y29861191D01*
X33926190Y30242143D01*
X34116666Y29289762D02*
X34116666Y28813572D01*
X34402380Y29385000D02*
X33402380Y29051667D01*
X34402380Y28718334D01*
X34402380Y28385000D02*
X33402380Y28385000D01*
X34116666Y28051667D01*
X33402380Y27718334D01*
X34402380Y27718334D01*
X36012380Y43265953D02*
X35012380Y43265953D01*
X35726666Y42932620D01*
X35012380Y42599286D01*
X36012380Y42599286D01*
X35964761Y41742143D02*
X36012380Y41837381D01*
X36012380Y42027858D01*
X35964761Y42123096D01*
X35869523Y42170715D01*
X35488571Y42170715D01*
X35393333Y42123096D01*
X35345714Y42027858D01*
X35345714Y41837381D01*
X35393333Y41742143D01*
X35488571Y41694524D01*
X35583809Y41694524D01*
X35679047Y42170715D01*
X35345714Y41361191D02*
X35345714Y40837381D01*
X36012380Y41361191D01*
X36012380Y40837381D01*
X35345714Y40551667D02*
X35345714Y40027858D01*
X36012380Y40551667D01*
X36012380Y40027858D01*
X36012380Y39218334D02*
X35488571Y39218334D01*
X35393333Y39265953D01*
X35345714Y39361191D01*
X35345714Y39551667D01*
X35393333Y39646905D01*
X35964761Y39218334D02*
X36012380Y39313572D01*
X36012380Y39551667D01*
X35964761Y39646905D01*
X35869523Y39694524D01*
X35774285Y39694524D01*
X35679047Y39646905D01*
X35631428Y39551667D01*
X35631428Y39313572D01*
X35583809Y39218334D01*
X35345714Y38742143D02*
X36012380Y38742143D01*
X35440952Y38742143D02*
X35393333Y38694524D01*
X35345714Y38599286D01*
X35345714Y38456429D01*
X35393333Y38361191D01*
X35488571Y38313572D01*
X36012380Y38313572D01*
X36012380Y37837381D02*
X35345714Y37837381D01*
X35012380Y37837381D02*
X35060000Y37885000D01*
X35107619Y37837381D01*
X35060000Y37789762D01*
X35012380Y37837381D01*
X35107619Y37837381D01*
X35345714Y37361191D02*
X36012380Y37361191D01*
X35440952Y37361191D02*
X35393333Y37313572D01*
X35345714Y37218334D01*
X35345714Y37075477D01*
X35393333Y36980239D01*
X35488571Y36932620D01*
X36012380Y36932620D01*
X35964761Y36075477D02*
X36012380Y36170715D01*
X36012380Y36361191D01*
X35964761Y36456429D01*
X35869523Y36504048D01*
X35488571Y36504048D01*
X35393333Y36456429D01*
X35345714Y36361191D01*
X35345714Y36170715D01*
X35393333Y36075477D01*
X35488571Y36027858D01*
X35583809Y36027858D01*
X35679047Y36504048D01*
X36012380Y34837381D02*
X35012380Y34837381D01*
X35393333Y34837381D02*
X35345714Y34742143D01*
X35345714Y34551667D01*
X35393333Y34456429D01*
X35440952Y34408810D01*
X35536190Y34361191D01*
X35821904Y34361191D01*
X35917142Y34408810D01*
X35964761Y34456429D01*
X36012380Y34551667D01*
X36012380Y34742143D01*
X35964761Y34837381D01*
X36012380Y33789762D02*
X35964761Y33885000D01*
X35917142Y33932620D01*
X35821904Y33980239D01*
X35536190Y33980239D01*
X35440952Y33932620D01*
X35393333Y33885000D01*
X35345714Y33789762D01*
X35345714Y33646905D01*
X35393333Y33551667D01*
X35440952Y33504048D01*
X35536190Y33456429D01*
X35821904Y33456429D01*
X35917142Y33504048D01*
X35964761Y33551667D01*
X36012380Y33646905D01*
X36012380Y33789762D01*
X36012380Y32599286D02*
X35488571Y32599286D01*
X35393333Y32646905D01*
X35345714Y32742143D01*
X35345714Y32932620D01*
X35393333Y33027858D01*
X35964761Y32599286D02*
X36012380Y32694524D01*
X36012380Y32932620D01*
X35964761Y33027858D01*
X35869523Y33075477D01*
X35774285Y33075477D01*
X35679047Y33027858D01*
X35631428Y32932620D01*
X35631428Y32694524D01*
X35583809Y32599286D01*
X36012380Y32123096D02*
X35345714Y32123096D01*
X35536190Y32123096D02*
X35440952Y32075477D01*
X35393333Y32027858D01*
X35345714Y31932620D01*
X35345714Y31837381D01*
X36012380Y31075477D02*
X35012380Y31075477D01*
X35964761Y31075477D02*
X36012380Y31170715D01*
X36012380Y31361191D01*
X35964761Y31456429D01*
X35917142Y31504048D01*
X35821904Y31551667D01*
X35536190Y31551667D01*
X35440952Y31504048D01*
X35393333Y31456429D01*
X35345714Y31361191D01*
X35345714Y31170715D01*
X35393333Y31075477D01*
X35345714Y29980239D02*
X35345714Y29599286D01*
X36012380Y29837381D02*
X35155238Y29837381D01*
X35060000Y29789762D01*
X35012380Y29694524D01*
X35012380Y29599286D01*
X36012380Y29123096D02*
X35964761Y29218334D01*
X35917142Y29265953D01*
X35821904Y29313572D01*
X35536190Y29313572D01*
X35440952Y29265953D01*
X35393333Y29218334D01*
X35345714Y29123096D01*
X35345714Y28980239D01*
X35393333Y28885000D01*
X35440952Y28837381D01*
X35536190Y28789762D01*
X35821904Y28789762D01*
X35917142Y28837381D01*
X35964761Y28885000D01*
X36012380Y28980239D01*
X36012380Y29123096D01*
X36012380Y28361191D02*
X35345714Y28361191D01*
X35536190Y28361191D02*
X35440952Y28313572D01*
X35393333Y28265953D01*
X35345714Y28170715D01*
X35345714Y28075477D01*
X35488571Y26980239D02*
X35488571Y26646905D01*
X36012380Y26504048D02*
X36012380Y26980239D01*
X35012380Y26980239D01*
X35012380Y26504048D01*
X36012380Y26075477D02*
X35012380Y26075477D01*
X35726666Y25742143D01*
X35012380Y25408810D01*
X36012380Y25408810D01*
X35012380Y24932620D02*
X35821904Y24932620D01*
X35917142Y24885000D01*
X35964761Y24837381D01*
X36012380Y24742143D01*
X36012380Y24551667D01*
X35964761Y24456429D01*
X35917142Y24408810D01*
X35821904Y24361191D01*
X35012380Y24361191D01*
X35012380Y23980239D02*
X35012380Y23313572D01*
X36012380Y23980239D01*
X36012380Y23313572D01*
X35440952Y22789762D02*
X35393333Y22885000D01*
X35345714Y22932620D01*
X35250476Y22980239D01*
X35202857Y22980239D01*
X35107619Y22932620D01*
X35060000Y22885000D01*
X35012380Y22789762D01*
X35012380Y22599286D01*
X35060000Y22504048D01*
X35107619Y22456429D01*
X35202857Y22408810D01*
X35250476Y22408810D01*
X35345714Y22456429D01*
X35393333Y22504048D01*
X35440952Y22599286D01*
X35440952Y22789762D01*
X35488571Y22885000D01*
X35536190Y22932620D01*
X35631428Y22980239D01*
X35821904Y22980239D01*
X35917142Y22932620D01*
X35964761Y22885000D01*
X36012380Y22789762D01*
X36012380Y22599286D01*
X35964761Y22504048D01*
X35917142Y22456429D01*
X35821904Y22408810D01*
X35631428Y22408810D01*
X35536190Y22456429D01*
X35488571Y22504048D01*
X35440952Y22599286D01*
X35012380Y21789762D02*
X35012380Y21694524D01*
X35060000Y21599286D01*
X35107619Y21551667D01*
X35202857Y21504048D01*
X35393333Y21456429D01*
X35631428Y21456429D01*
X35821904Y21504048D01*
X35917142Y21551667D01*
X35964761Y21599286D01*
X36012380Y21694524D01*
X36012380Y21789762D01*
X35964761Y21885000D01*
X35917142Y21932620D01*
X35821904Y21980239D01*
X35631428Y22027858D01*
X35393333Y22027858D01*
X35202857Y21980239D01*
X35107619Y21932620D01*
X35060000Y21885000D01*
X35012380Y21789762D01*
X37622380Y51908810D02*
X36622380Y51908810D01*
X37622380Y51480239D02*
X37098571Y51480239D01*
X37003333Y51527858D01*
X36955714Y51623096D01*
X36955714Y51765953D01*
X37003333Y51861191D01*
X37050952Y51908810D01*
X36955714Y51146905D02*
X36955714Y50765953D01*
X36622380Y51004048D02*
X37479523Y51004048D01*
X37574761Y50956429D01*
X37622380Y50861191D01*
X37622380Y50765953D01*
X36955714Y50575477D02*
X36955714Y50194524D01*
X36622380Y50432620D02*
X37479523Y50432620D01*
X37574761Y50385000D01*
X37622380Y50289762D01*
X37622380Y50194524D01*
X36955714Y49861191D02*
X37955714Y49861191D01*
X37003333Y49861191D02*
X36955714Y49765953D01*
X36955714Y49575477D01*
X37003333Y49480239D01*
X37050952Y49432620D01*
X37146190Y49385000D01*
X37431904Y49385000D01*
X37527142Y49432620D01*
X37574761Y49480239D01*
X37622380Y49575477D01*
X37622380Y49765953D01*
X37574761Y49861191D01*
X37574761Y49004048D02*
X37622380Y48908810D01*
X37622380Y48718334D01*
X37574761Y48623096D01*
X37479523Y48575477D01*
X37431904Y48575477D01*
X37336666Y48623096D01*
X37289047Y48718334D01*
X37289047Y48861191D01*
X37241428Y48956429D01*
X37146190Y49004048D01*
X37098571Y49004048D01*
X37003333Y48956429D01*
X36955714Y48861191D01*
X36955714Y48718334D01*
X37003333Y48623096D01*
X37527142Y48146905D02*
X37574761Y48099286D01*
X37622380Y48146905D01*
X37574761Y48194524D01*
X37527142Y48146905D01*
X37622380Y48146905D01*
X37003333Y48146905D02*
X37050952Y48099286D01*
X37098571Y48146905D01*
X37050952Y48194524D01*
X37003333Y48146905D01*
X37098571Y48146905D01*
X36574761Y46956429D02*
X37860476Y47813572D01*
X36574761Y45908810D02*
X37860476Y46765953D01*
X36955714Y45146905D02*
X37765238Y45146905D01*
X37860476Y45194524D01*
X37908095Y45242143D01*
X37955714Y45337381D01*
X37955714Y45480239D01*
X37908095Y45575477D01*
X37574761Y45146905D02*
X37622380Y45242143D01*
X37622380Y45432620D01*
X37574761Y45527858D01*
X37527142Y45575477D01*
X37431904Y45623096D01*
X37146190Y45623096D01*
X37050952Y45575477D01*
X37003333Y45527858D01*
X36955714Y45432620D01*
X36955714Y45242143D01*
X37003333Y45146905D01*
X37622380Y44670715D02*
X36955714Y44670715D01*
X36622380Y44670715D02*
X36670000Y44718334D01*
X36717619Y44670715D01*
X36670000Y44623096D01*
X36622380Y44670715D01*
X36717619Y44670715D01*
X36955714Y44337381D02*
X36955714Y43956429D01*
X36622380Y44194524D02*
X37479523Y44194524D01*
X37574761Y44146905D01*
X37622380Y44051667D01*
X37622380Y43956429D01*
X37622380Y43623096D02*
X36622380Y43623096D01*
X37622380Y43194524D02*
X37098571Y43194524D01*
X37003333Y43242143D01*
X36955714Y43337381D01*
X36955714Y43480239D01*
X37003333Y43575477D01*
X37050952Y43623096D01*
X36955714Y42289762D02*
X37622380Y42289762D01*
X36955714Y42718334D02*
X37479523Y42718334D01*
X37574761Y42670715D01*
X37622380Y42575477D01*
X37622380Y42432620D01*
X37574761Y42337381D01*
X37527142Y42289762D01*
X37622380Y41813572D02*
X36622380Y41813572D01*
X37003333Y41813572D02*
X36955714Y41718334D01*
X36955714Y41527858D01*
X37003333Y41432620D01*
X37050952Y41385000D01*
X37146190Y41337381D01*
X37431904Y41337381D01*
X37527142Y41385000D01*
X37574761Y41432620D01*
X37622380Y41527858D01*
X37622380Y41718334D01*
X37574761Y41813572D01*
X37527142Y40908810D02*
X37574761Y40861191D01*
X37622380Y40908810D01*
X37574761Y40956429D01*
X37527142Y40908810D01*
X37622380Y40908810D01*
X37574761Y40004048D02*
X37622380Y40099286D01*
X37622380Y40289762D01*
X37574761Y40385000D01*
X37527142Y40432620D01*
X37431904Y40480239D01*
X37146190Y40480239D01*
X37050952Y40432620D01*
X37003333Y40385000D01*
X36955714Y40289762D01*
X36955714Y40099286D01*
X37003333Y40004048D01*
X37622380Y39432620D02*
X37574761Y39527858D01*
X37527142Y39575477D01*
X37431904Y39623096D01*
X37146190Y39623096D01*
X37050952Y39575477D01*
X37003333Y39527858D01*
X36955714Y39432620D01*
X36955714Y39289762D01*
X37003333Y39194524D01*
X37050952Y39146905D01*
X37146190Y39099286D01*
X37431904Y39099286D01*
X37527142Y39146905D01*
X37574761Y39194524D01*
X37622380Y39289762D01*
X37622380Y39432620D01*
X37622380Y38670715D02*
X36955714Y38670715D01*
X37050952Y38670715D02*
X37003333Y38623096D01*
X36955714Y38527858D01*
X36955714Y38385000D01*
X37003333Y38289762D01*
X37098571Y38242143D01*
X37622380Y38242143D01*
X37098571Y38242143D02*
X37003333Y38194524D01*
X36955714Y38099286D01*
X36955714Y37956429D01*
X37003333Y37861191D01*
X37098571Y37813572D01*
X37622380Y37813572D01*
X36574761Y36623096D02*
X37860476Y37480239D01*
X37574761Y36337381D02*
X37622380Y36242143D01*
X37622380Y36051667D01*
X37574761Y35956429D01*
X37479523Y35908810D01*
X37431904Y35908810D01*
X37336666Y35956429D01*
X37289047Y36051667D01*
X37289047Y36194524D01*
X37241428Y36289762D01*
X37146190Y36337381D01*
X37098571Y36337381D01*
X37003333Y36289762D01*
X36955714Y36194524D01*
X36955714Y36051667D01*
X37003333Y35956429D01*
X37622380Y35051667D02*
X37098571Y35051667D01*
X37003333Y35099286D01*
X36955714Y35194524D01*
X36955714Y35385000D01*
X37003333Y35480239D01*
X37574761Y35051667D02*
X37622380Y35146905D01*
X37622380Y35385000D01*
X37574761Y35480239D01*
X37479523Y35527858D01*
X37384285Y35527858D01*
X37289047Y35480239D01*
X37241428Y35385000D01*
X37241428Y35146905D01*
X37193809Y35051667D01*
X36955714Y34718334D02*
X36955714Y34337381D01*
X36622380Y34575477D02*
X37479523Y34575477D01*
X37574761Y34527858D01*
X37622380Y34432620D01*
X37622380Y34337381D01*
X37622380Y33861191D02*
X37574761Y33956429D01*
X37527142Y34004048D01*
X37431904Y34051667D01*
X37146190Y34051667D01*
X37050952Y34004048D01*
X37003333Y33956429D01*
X36955714Y33861191D01*
X36955714Y33718334D01*
X37003333Y33623096D01*
X37050952Y33575477D01*
X37146190Y33527858D01*
X37431904Y33527858D01*
X37527142Y33575477D01*
X37574761Y33623096D01*
X37622380Y33718334D01*
X37622380Y33861191D01*
X37574761Y33146905D02*
X37622380Y33051667D01*
X37622380Y32861191D01*
X37574761Y32765953D01*
X37479523Y32718334D01*
X37431904Y32718334D01*
X37336666Y32765953D01*
X37289047Y32861191D01*
X37289047Y33004048D01*
X37241428Y33099286D01*
X37146190Y33146905D01*
X37098571Y33146905D01*
X37003333Y33099286D01*
X36955714Y33004048D01*
X36955714Y32861191D01*
X37003333Y32765953D01*
X37622380Y32289762D02*
X36622380Y32289762D01*
X37622380Y31861191D02*
X37098571Y31861191D01*
X37003333Y31908810D01*
X36955714Y32004048D01*
X36955714Y32146905D01*
X37003333Y32242143D01*
X37050952Y32289762D01*
X37622380Y31385000D02*
X36955714Y31385000D01*
X36622380Y31385000D02*
X36670000Y31432620D01*
X36717619Y31385000D01*
X36670000Y31337381D01*
X36622380Y31385000D01*
X36717619Y31385000D01*
X37622380Y30765953D02*
X37574761Y30861191D01*
X37527142Y30908810D01*
X37431904Y30956429D01*
X37146190Y30956429D01*
X37050952Y30908810D01*
X37003333Y30861191D01*
X36955714Y30765953D01*
X36955714Y30623096D01*
X37003333Y30527858D01*
X37050952Y30480239D01*
X37146190Y30432620D01*
X37431904Y30432620D01*
X37527142Y30480239D01*
X37574761Y30527858D01*
X37622380Y30623096D01*
X37622380Y30765953D01*
X37622380Y30004048D02*
X36622380Y30004048D01*
X37241428Y29908810D02*
X37622380Y29623096D01*
X36955714Y29623096D02*
X37336666Y30004048D01*
X36955714Y28765953D02*
X37622380Y28765953D01*
X36955714Y29194524D02*
X37479523Y29194524D01*
X37574761Y29146905D01*
X37622380Y29051667D01*
X37622380Y28908810D01*
X37574761Y28813572D01*
X37527142Y28765953D01*
X37574761Y27908810D02*
X37622380Y28004048D01*
X37622380Y28194524D01*
X37574761Y28289762D01*
X37479523Y28337381D01*
X37098571Y28337381D01*
X37003333Y28289762D01*
X36955714Y28194524D01*
X36955714Y28004048D01*
X37003333Y27908810D01*
X37098571Y27861191D01*
X37193809Y27861191D01*
X37289047Y28337381D01*
X36574761Y26718334D02*
X37860476Y27575477D01*
X37098571Y26385000D02*
X37098571Y26051667D01*
X37622380Y25908810D02*
X37622380Y26385000D01*
X36622380Y26385000D01*
X36622380Y25908810D01*
X37622380Y25480239D02*
X36622380Y25480239D01*
X37336666Y25146905D01*
X36622380Y24813572D01*
X37622380Y24813572D01*
X36622380Y24337381D02*
X37431904Y24337381D01*
X37527142Y24289762D01*
X37574761Y24242143D01*
X37622380Y24146905D01*
X37622380Y23956429D01*
X37574761Y23861191D01*
X37527142Y23813572D01*
X37431904Y23765953D01*
X36622380Y23765953D01*
X36622380Y23385000D02*
X36622380Y22718334D01*
X37622380Y23385000D01*
X37622380Y22718334D01*
X37050952Y22194524D02*
X37003333Y22289762D01*
X36955714Y22337381D01*
X36860476Y22385001D01*
X36812857Y22385001D01*
X36717619Y22337381D01*
X36670000Y22289762D01*
X36622380Y22194524D01*
X36622380Y22004048D01*
X36670000Y21908810D01*
X36717619Y21861191D01*
X36812857Y21813572D01*
X36860476Y21813572D01*
X36955714Y21861191D01*
X37003333Y21908810D01*
X37050952Y22004048D01*
X37050952Y22194524D01*
X37098571Y22289762D01*
X37146190Y22337381D01*
X37241428Y22385001D01*
X37431904Y22385001D01*
X37527142Y22337381D01*
X37574761Y22289762D01*
X37622380Y22194524D01*
X37622380Y22004048D01*
X37574761Y21908810D01*
X37527142Y21861191D01*
X37431904Y21813572D01*
X37241428Y21813572D01*
X37146190Y21861191D01*
X37098571Y21908810D01*
X37050952Y22004048D01*
X36622380Y21194524D02*
X36622380Y21099286D01*
X36670000Y21004048D01*
X36717619Y20956429D01*
X36812857Y20908810D01*
X37003333Y20861191D01*
X37241428Y20861191D01*
X37431904Y20908810D01*
X37527142Y20956429D01*
X37574761Y21004048D01*
X37622380Y21099286D01*
X37622380Y21194524D01*
X37574761Y21289762D01*
X37527142Y21337381D01*
X37431904Y21385001D01*
X37241428Y21432620D01*
X37003333Y21432620D01*
X36812857Y21385001D01*
X36717619Y21337381D01*
X36670000Y21289762D01*
X36622380Y21194524D01*
X37241428Y20432620D02*
X37241428Y19670715D01*
X36622380Y18765953D02*
X36622380Y18956429D01*
X36670000Y19051667D01*
X36717619Y19099286D01*
X36860476Y19194524D01*
X37050952Y19242143D01*
X37431904Y19242143D01*
X37527142Y19194524D01*
X37574761Y19146905D01*
X37622380Y19051667D01*
X37622380Y18861191D01*
X37574761Y18765953D01*
X37527142Y18718334D01*
X37431904Y18670715D01*
X37193809Y18670715D01*
X37098571Y18718334D01*
X37050952Y18765953D01*
X37003333Y18861191D01*
X37003333Y19051667D01*
X37050952Y19146905D01*
X37098571Y19194524D01*
X37193809Y19242143D01*
X37050952Y18099286D02*
X37003333Y18194524D01*
X36955714Y18242143D01*
X36860476Y18289762D01*
X36812857Y18289762D01*
X36717619Y18242143D01*
X36670000Y18194524D01*
X36622380Y18099286D01*
X36622380Y17908810D01*
X36670000Y17813572D01*
X36717619Y17765953D01*
X36812857Y17718334D01*
X36860476Y17718334D01*
X36955714Y17765953D01*
X37003333Y17813572D01*
X37050952Y17908810D01*
X37050952Y18099286D01*
X37098571Y18194524D01*
X37146190Y18242143D01*
X37241428Y18289762D01*
X37431904Y18289762D01*
X37527142Y18242143D01*
X37574761Y18194524D01*
X37622380Y18099286D01*
X37622380Y17908810D01*
X37574761Y17813572D01*
X37527142Y17765953D01*
X37431904Y17718334D01*
X37241428Y17718334D01*
X37146190Y17765953D01*
X37098571Y17813572D01*
X37050952Y17908810D01*
X36622380Y17099286D02*
X36622380Y17004048D01*
X36670000Y16908810D01*
X36717619Y16861191D01*
X36812857Y16813572D01*
X37003333Y16765953D01*
X37241428Y16765953D01*
X37431904Y16813572D01*
X37527142Y16861191D01*
X37574761Y16908810D01*
X37622380Y17004048D01*
X37622380Y17099286D01*
X37574761Y17194524D01*
X37527142Y17242143D01*
X37431904Y17289762D01*
X37241428Y17337381D01*
X37003333Y17337381D01*
X36812857Y17289762D01*
X36717619Y17242143D01*
X36670000Y17194524D01*
X36622380Y17099286D01*
X37622380Y16289762D02*
X37622380Y16099286D01*
X37574761Y16004048D01*
X37527142Y15956429D01*
X37384285Y15861191D01*
X37193809Y15813572D01*
X36812857Y15813572D01*
X36717619Y15861191D01*
X36670000Y15908810D01*
X36622380Y16004048D01*
X36622380Y16194524D01*
X36670000Y16289762D01*
X36717619Y16337381D01*
X36812857Y16385001D01*
X37050952Y16385001D01*
X37146190Y16337381D01*
X37193809Y16289762D01*
X37241428Y16194524D01*
X37241428Y16004048D01*
X37193809Y15908810D01*
X37146190Y15861191D01*
X37050952Y15813572D01*
X37622380Y14813572D02*
X37146190Y15146905D01*
X37622380Y15385000D02*
X36622380Y15385000D01*
X36622380Y15004048D01*
X36670000Y14908810D01*
X36717619Y14861191D01*
X36812857Y14813572D01*
X36955714Y14813572D01*
X37050952Y14861191D01*
X37098571Y14908810D01*
X37146190Y15004048D01*
X37146190Y15385000D01*
X37336666Y14432620D02*
X37336666Y13956429D01*
X37622380Y14527858D02*
X36622380Y14194524D01*
X37622380Y13861191D01*
X37622380Y13527858D02*
X36622380Y13527858D01*
X37336666Y13194524D01*
X36622380Y12861191D01*
X37622380Y12861191D01*
X16070833Y49442620D02*
X16070833Y48728334D01*
X16118452Y48585477D01*
X16213690Y48490239D01*
X16356547Y48442620D01*
X16451785Y48442620D01*
X15594642Y48442620D02*
X15594642Y49442620D01*
X15213690Y49442620D01*
X15118452Y49395000D01*
X15070833Y49347381D01*
X15023214Y49252143D01*
X15023214Y49109286D01*
X15070833Y49014048D01*
X15118452Y48966429D01*
X15213690Y48918810D01*
X15594642Y48918810D01*
X14070833Y48442620D02*
X14642261Y48442620D01*
X14356547Y48442620D02*
X14356547Y49442620D01*
X14451785Y49299762D01*
X14547023Y49204524D01*
X14642261Y49156905D01*
X24465833Y54317620D02*
X24465833Y53603334D01*
X24513452Y53460477D01*
X24608690Y53365239D01*
X24751547Y53317620D01*
X24846785Y53317620D01*
X24037261Y54222381D02*
X23989642Y54270000D01*
X23894404Y54317620D01*
X23656309Y54317620D01*
X23561071Y54270000D01*
X23513452Y54222381D01*
X23465833Y54127143D01*
X23465833Y54031905D01*
X23513452Y53889048D01*
X24084880Y53317620D01*
X23465833Y53317620D01*
X4145833Y54317620D02*
X4145833Y53603334D01*
X4193452Y53460477D01*
X4288690Y53365239D01*
X4431547Y53317620D01*
X4526785Y53317620D01*
X3145833Y53317620D02*
X3717261Y53317620D01*
X3431547Y53317620D02*
X3431547Y54317620D01*
X3526785Y54174762D01*
X3622023Y54079524D01*
X3717261Y54031905D01*
D11*
X17715000Y47895000D02*
X19115000Y47895000D01*
X19815000Y48595000D02*
X19815000Y49195000D01*
X17015000Y49195000D02*
X17015000Y48595000D01*
X19115000Y49895000D02*
X17715000Y49895000D01*
X19115000Y47895000D02*
G75*
G03*
X19815000Y48595000I1J699999D01*
G01*
X17715000Y49895000D02*
G75*
G03*
X17015000Y49195000I0J-700000D01*
G01*
X19815000Y49195000D02*
G75*
G03*
X19115000Y49895000I-699999J1D01*
G01*
X17015000Y48595000D02*
G75*
G03*
X17715000Y47895000I700000J0D01*
G01*
X25462500Y50170000D02*
X22802500Y50170000D01*
X25462500Y52770000D02*
X24132500Y52770000D01*
X25462500Y51440000D02*
X25462500Y52770000D01*
X25462500Y50170000D02*
X25462500Y1850000D01*
X22802500Y50170000D02*
X22802500Y1850000D01*
X25462500Y1850000D02*
X22802500Y1850000D01*
X5142500Y50170000D02*
X2482500Y50170000D01*
X2482500Y50170000D02*
X2482500Y1850000D01*
X5142500Y52770000D02*
X3812500Y52770000D01*
X5142500Y1850000D02*
X2482500Y1850000D01*
X5142500Y51440000D02*
X5142500Y52770000D01*
X5142500Y50170000D02*
X5142500Y1850000D01*
M02*
